<svg xmlns="http://www.w3.org/2000/svg" viewBox="0 0 76.01 70.92"><defs><style>.cls-1{fill:#fff;}</style></defs><title>logo-museo-caja-V_1</title><g id="Layer_2" data-name="Layer 2"><g id="Layer_1-2" data-name="Layer 1"><path class="cls-1" d="M3.5,66.73a1.85,1.85,0,0,0-.24-.65c-.14-.22-.32-.28-.9-.28H1.78c-.24,0-.28,0-.28.26V68h.81c.72,0,.77-.07.87-.59h.24v1.56H3.18c-.1-.55-.15-.64-.87-.64H1.5v1.43c0,.7.07.74.8.8v.24H.05v-.24c.63-.05.7-.1.7-.8V66.54c0-.7-.06-.74-.68-.79v-.24H3.66c0,.26,0,.79.08,1.19Z"/><path class="cls-1" d="M2.35,70.79H0v-.33H0c.61,0,.66-.07.66-.75V66.54c0-.68,0-.7-.64-.74H0v-.33H3.71v0c0,.26,0,.75.08,1.2v0l-.33.05v-.05a1.63,1.63,0,0,0-.23-.63c-.12-.2-.27-.26-.86-.26H1.78c-.22,0-.23,0-.23.21V67.9h.76c.72,0,.73-.07.82-.55v0h.33V69H3.13v0c-.09-.51-.11-.59-.82-.59H1.55v1.38c0,.68.05.7.75.75h.05ZM.1,70.7H2.25v-.14c-.7-.06-.8-.13-.8-.85V68.23h.86c.72,0,.81.1.91.64h.15V67.41H3.22c-.1.51-.18.59-.91.59H1.45V66.06c0-.28.07-.31.33-.31h.58c.59,0,.79.06.94.3a1.84,1.84,0,0,1,.24.63l.15,0c0-.41-.07-.85-.08-1.1H.12v.14c.59,0,.68.12.68.84v3.17c0,.72-.1.8-.7.85Z"/><path class="cls-1" d="M8.39,70.55a10.34,10.34,0,0,0-1.23.29l-.06,0v-.55c-.18.13-.34.26-.55.39a1.21,1.21,0,0,1-.64.21c-.56,0-1-.35-1-1.19V68.06c0-.44,0-.47-.49-.56v-.2a10.37,10.37,0,0,0,1.22-.14c0,.26,0,.65,0,1.18v1.1c0,.68.34.88.69.88A1.15,1.15,0,0,0,7.1,70v-1.9c0-.45,0-.48-.6-.56v-.2a8.58,8.58,0,0,0,1.31-.14v2.67c0,.42.07.47.37.5h.21Z"/><path class="cls-1" d="M7.15,70.9l-.1-.08v-.48a5,5,0,0,1-.48.33,1.2,1.2,0,0,1-.66.22c-.67,0-1.06-.45-1.06-1.24V68.06c0-.41,0-.43-.45-.51h0v-.29h0a11.14,11.14,0,0,0,1.22-.14h.06v.06a10.92,10.92,0,0,0,0,1.18v1.1c0,.54.22.83.64.83a1.06,1.06,0,0,0,.76-.34V68.06c0-.42,0-.44-.56-.5h0v-.29h0a9,9,0,0,0,1.31-.14h.06v2.73c0,.41.06.43.33.45l.25,0v.29h0a10,10,0,0,0-1.23.29ZM4.46,67.46c.44.08.49.15.49.6v1.59c0,1,.6,1.14,1,1.14a1.21,1.21,0,0,0,.61-.2A3.85,3.85,0,0,0,7,70.24l.14-.1v.63l0,0a9.48,9.48,0,0,1,1.17-.28v-.12H8.18c-.35,0-.42-.12-.42-.55V67.22a9.09,9.09,0,0,1-1.21.13v.11c.53.07.6.12.6.6V70h0a1.22,1.22,0,0,1-.85.38c-.28,0-.74-.12-.74-.93v-1.1c0-.53,0-.88,0-1.12-.39.06-.76.11-1.12.13Z"/><path class="cls-1" d="M11.36,70.75v-.22c.45,0,.51-.11.51-.67V68.51c0-.56-.21-.89-.7-.89a1.41,1.41,0,0,0-.84.38v1.91c0,.54.05.57.51.62v.22H9.05v-.22c.53-.06.58-.1.58-.63V68.23c0-.51-.05-.53-.48-.61v-.2a5.3,5.3,0,0,0,1.18-.33v.64l.54-.37a1.16,1.16,0,0,1,.66-.24c.64,0,1,.45,1,1.23v1.56c0,.54,0,.56.51.62v.22Z"/><path class="cls-1" d="M13.13,70.79H11.31v-.31h0c.42,0,.47-.07.47-.62V68.51c0-.57-.22-.84-.65-.84a1.32,1.32,0,0,0-.79.36v1.88c0,.52,0,.52.46.57h0v.31H9v-.31h.05c.5-.06.53-.08.53-.58V68.23c0-.48,0-.49-.44-.56h0v-.28h0a6.11,6.11,0,0,0,1.18-.33l.06,0v.61c.13-.09.28-.2.46-.31a1.21,1.21,0,0,1,.69-.25c.68,0,1.09.48,1.09,1.28v1.56c0,.51,0,.51.46.57h.05Zm-1.72-.09H13v-.13c-.45-.06-.51-.12-.51-.66V68.35c0-.74-.37-1.18-1-1.18a1.16,1.16,0,0,0-.64.23c-.22.14-.39.27-.52.37l-.08.06v-.66a7.46,7.46,0,0,1-1.09.3v.11c.41.08.47.14.47.65V69.9c0,.54-.05.61-.57.67v.13h1.69v-.13c-.45,0-.5-.13-.5-.66V68h0a1.44,1.44,0,0,1,.87-.4c.49,0,.75.32.75.94v1.35c0,.56-.07.66-.51.71Z"/><path class="cls-1" d="M17.76,70.54a8.71,8.71,0,0,0-1.32.3v-.51l-.49.29a1.24,1.24,0,0,1-.59.22,1.63,1.63,0,0,1-1.51-1.72,2.06,2.06,0,0,1,2.09-2,1.46,1.46,0,0,1,.5.08V66.09c0-.51-.05-.53-.6-.58v-.2A8,8,0,0,0,17.15,65V69.8c0,.43.05.47.36.5l.25,0Zm-1.32-2.7a.94.94,0,0,0-.78-.42c-.34,0-1,.3-1,1.48,0,1,.59,1.42,1.08,1.42a1.24,1.24,0,0,0,.71-.25Z"/><path class="cls-1" d="M16.39,70.91v-.5l-.41.26a1.32,1.32,0,0,1-.62.22,1.67,1.67,0,0,1-1.56-1.77,2.1,2.1,0,0,1,2.14-2.05,1.63,1.63,0,0,1,.45.06v-1c0-.47,0-.49-.55-.53h-.05v-.29h0A8.88,8.88,0,0,0,17.14,65l.06,0V69.8c0,.42,0,.42.31.45l.3,0v.3h-.07a8.93,8.93,0,0,0-1.28.3Zm-.45-3.74a2,2,0,0,0-2,2,1.57,1.57,0,0,0,1.46,1.67,1.18,1.18,0,0,0,.57-.21l.56-.34v.53a12.26,12.26,0,0,1,1.22-.28v-.12l-.21,0c-.34,0-.4-.11-.4-.55V65.09a9.13,9.13,0,0,1-1.21.26v.11c.53.05.6.1.6.63v1.18l-.06,0A1.6,1.6,0,0,0,15.94,67.17Zm-.21,3.2c-.55,0-1.13-.52-1.13-1.47,0-1.21.69-1.53,1.06-1.53a1,1,0,0,1,.82.45h0v2.26l0,0A1.28,1.28,0,0,1,15.73,70.37Zm-.07-2.9c-.33,0-1,.3-1,1.43,0,.89.53,1.37,1,1.37a1.19,1.19,0,0,0,.66-.23V67.86A.9.9,0,0,0,15.66,67.47Z"/><path class="cls-1" d="M21,70.84a.62.62,0,0,1-.4-.16.71.71,0,0,1-.19-.35,2.57,2.57,0,0,1-.93.51,1,1,0,0,1-1-1,.8.8,0,0,1,.65-.79,6.87,6.87,0,0,0,1.26-.53v-.16c0-.57-.26-.89-.65-.89a.45.45,0,0,0-.34.15,1.44,1.44,0,0,0-.24.54.25.25,0,0,1-.26.21.41.41,0,0,1-.37-.36c0-.13.1-.22.26-.34A3.62,3.62,0,0,1,20,67.12a1.07,1.07,0,0,1,.68.22,1.16,1.16,0,0,1,.38,1v1.47c0,.36.14.48.27.48a.7.7,0,0,0,.29-.08l.08.21Zm-.61-2c-.17.09-.5.24-.68.32s-.47.29-.47.59a.58.58,0,0,0,.56.61,1,1,0,0,0,.59-.25Z"/><path class="cls-1" d="M21,70.89h0a.66.66,0,0,1-.43-.17.77.77,0,0,1-.19-.31l-.08.06a1.93,1.93,0,0,1-.82.42,1,1,0,0,1-1-1A.83.83,0,0,1,19.1,69a6.58,6.58,0,0,0,1.23-.51v-.13c0-.53-.23-.84-.6-.84a.41.41,0,0,0-.31.14,1.45,1.45,0,0,0-.22.52.29.29,0,0,1-.31.24.47.47,0,0,1-.42-.41c0-.15.11-.25.28-.38A3.73,3.73,0,0,1,20,67.07h0a1.1,1.1,0,0,1,.71.23,1.19,1.19,0,0,1,.4,1v1.47c0,.27.08.43.22.43a.67.67,0,0,0,.27-.08l.05,0,.12.31Zm-1.27-3.46c.43,0,.7.36.7.94v.18l0,0a6.76,6.76,0,0,1-1.27.54c-.43.14-.61.37-.61.74a.94.94,0,0,0,.94.94,1.94,1.94,0,0,0,.77-.41l.13-.09.06,0,0,.07a.67.67,0,0,0,.18.33.61.61,0,0,0,.35.14l.67-.39,0-.13a.71.71,0,0,1-.27.07c-.09,0-.32-.06-.32-.53V68.34a1.11,1.11,0,0,0-.36-1,1,1,0,0,0-.65-.2,3.52,3.52,0,0,0-1.2.55c-.15.11-.24.19-.24.3a.36.36,0,0,0,.32.31.19.19,0,0,0,.21-.17,1.48,1.48,0,0,1,.25-.56A.49.49,0,0,1,19.73,67.43Zm.06,2.95a.62.62,0,0,1-.61-.66c0-.33.19-.48.5-.63l.67-.32.08,0V70.1h0A1,1,0,0,1,19.79,70.38Zm.54-1.49-.61.29c-.28.14-.44.26-.44.54a.52.52,0,0,0,.51.56.89.89,0,0,0,.54-.23Z"/><path class="cls-1" d="M26.28,70.54a8.93,8.93,0,0,0-1.31.3v-.51l-.49.29a1.24,1.24,0,0,1-.59.22,1.63,1.63,0,0,1-1.51-1.72,2.05,2.05,0,0,1,2.09-2,1.46,1.46,0,0,1,.5.08V66.09c0-.51,0-.53-.6-.58v-.2A8.26,8.26,0,0,0,25.68,65V69.8c0,.43.05.47.36.5l.24,0ZM25,67.84a.94.94,0,0,0-.78-.42c-.35,0-1,.3-1,1.48,0,1,.59,1.42,1.08,1.42a1.25,1.25,0,0,0,.72-.25Z"/><path class="cls-1" d="M24.92,70.91v-.5l-.41.26a1.32,1.32,0,0,1-.62.22,1.67,1.67,0,0,1-1.56-1.77,2.1,2.1,0,0,1,2.14-2.05,1.71,1.71,0,0,1,.45.06v-1c0-.47,0-.49-.56-.53h0v-.29h0A8.88,8.88,0,0,0,25.67,65l.06,0V69.8c0,.42,0,.42.31.45l.29,0v.3h-.07a9.35,9.35,0,0,0-1.27.3Zm-.45-3.74a2,2,0,0,0-2,2,1.57,1.57,0,0,0,1.46,1.67,1.19,1.19,0,0,0,.56-.21l.57-.34v.53a12.21,12.21,0,0,1,1.21-.28v-.12l-.2,0c-.34,0-.4-.11-.4-.55V65.09a9.87,9.87,0,0,1-1.21.26v.11c.53.05.6.1.6.63v1.18l-.06,0A1.6,1.6,0,0,0,24.47,67.17Zm-.22,3.2c-.54,0-1.13-.52-1.13-1.47,0-1.21.7-1.53,1.07-1.53a1,1,0,0,1,.82.45h0v2.26l0,0A1.34,1.34,0,0,1,24.25,70.37Zm-.06-2.9c-.34,0-1,.3-1,1.43,0,.89.53,1.37,1,1.37a1.23,1.23,0,0,0,.67-.23V67.86A.89.89,0,0,0,24.19,67.47Z"/><path class="cls-1" d="M30.52,68.92a1.79,1.79,0,0,1-1.76,1.92A1.75,1.75,0,0,1,27,69.06a1.85,1.85,0,0,1,1.8-1.94A1.75,1.75,0,0,1,30.52,68.92Zm-2.73-.13c0,1,.41,1.78,1.06,1.78.46,0,.85-.34.85-1.46s-.36-1.72-1-1.72C28.2,67.39,27.79,67.88,27.79,68.79Z"/><path class="cls-1" d="M28.76,70.89a1.79,1.79,0,0,1-1.84-1.83,1.9,1.9,0,0,1,1.85-2,1.8,1.8,0,0,1,1.8,1.85A1.83,1.83,0,0,1,28.76,70.89Zm0-3.72A1.81,1.81,0,0,0,27,69.06a1.7,1.7,0,0,0,1.74,1.73,1.73,1.73,0,0,0,1.71-1.87A1.71,1.71,0,0,0,28.77,67.17Zm.08,3.45c-.65,0-1.11-.75-1.11-1.83s.47-1.45.93-1.45c.66,0,1.08.7,1.08,1.77C29.75,70.36,29.26,70.62,28.85,70.62Zm-.18-3.18c-.41,0-.83.42-.83,1.35s.42,1.73,1,1.73.8-.48.8-1.41S29.27,67.44,28.67,67.44Z"/><path class="cls-1" d="M36.49,70a1.81,1.81,0,0,1-1.34.8,1.59,1.59,0,0,1-1.59-1.72,2.05,2.05,0,0,1,.54-1.41,1.69,1.69,0,0,1,1.2-.59,1.25,1.25,0,0,1,1.22,1.24c0,.16,0,.23-.19.27s-1.14.09-2.07.12c0,1.06.62,1.51,1.18,1.51a1.37,1.37,0,0,0,.92-.39ZM34.3,68.42c.43,0,.85,0,1.29,0,.14,0,.19,0,.19-.16a.73.73,0,0,0-.67-.81C34.75,67.42,34.41,67.76,34.3,68.42Z"/><path class="cls-1" d="M35.15,70.89a1.66,1.66,0,0,1-1.64-1.77,2.12,2.12,0,0,1,.56-1.45,1.72,1.72,0,0,1,1.23-.6,1.23,1.23,0,0,1,.89.38,1.29,1.29,0,0,1,.38.91c0,.17,0,.28-.23.31s-1.12.1-2,.13c0,1,.59,1.41,1.13,1.41a1.33,1.33,0,0,0,.89-.38l0,0,.18.25,0,0A1.85,1.85,0,0,1,35.15,70.89Zm.15-3.72a1.62,1.62,0,0,0-1.16.57,2,2,0,0,0-.53,1.38,1.54,1.54,0,0,0,1.54,1.67A1.71,1.71,0,0,0,36.43,70l-.08-.1a1.35,1.35,0,0,1-.91.37c-.6,0-1.22-.48-1.23-1.55v-.05h0c.93,0,1.94-.11,2.07-.12s.15-.07.15-.22a1.2,1.2,0,0,0-.35-.84A1.15,1.15,0,0,0,35.3,67.17Zm-1,1.3h-.06v-.06c.11-.64.44-1,.86-1a.63.63,0,0,1,.47.2.93.93,0,0,1,.25.66c0,.15-.07.21-.24.21C35.15,68.46,34.73,68.47,34.3,68.47Zm.81-1c-.35,0-.64.36-.75.9l1.23,0c.13,0,.14,0,.14-.11a.84.84,0,0,0-.22-.59A.52.52,0,0,0,35.11,67.47Z"/><path class="cls-1" d="M39.58,70.75v-.22c.45,0,.5-.11.5-.67V68.51c0-.56-.21-.89-.7-.89a1.38,1.38,0,0,0-.83.38v1.91c0,.54.05.57.5.62v.22H37.27v-.22c.53-.06.57-.1.57-.63V68.23c0-.51-.05-.53-.47-.61v-.2a5.45,5.45,0,0,0,1.18-.33v.64l.53-.37a1.22,1.22,0,0,1,.66-.24c.65,0,1,.45,1,1.23v1.56c0,.54,0,.56.51.62v.22Z"/><path class="cls-1" d="M41.34,70.79H39.53v-.31h0c.42,0,.46-.07.46-.62V68.51c0-.57-.21-.84-.65-.84a1.27,1.27,0,0,0-.78.36v1.88c0,.52,0,.52.46.57h0v.31H37.22v-.31h.05c.5-.06.52-.08.52-.58V68.23c0-.48,0-.49-.43-.56h0v-.28h0a6,6,0,0,0,1.17-.33l.07,0v.61l.45-.31a1.27,1.27,0,0,1,.69-.25c.69,0,1.09.48,1.09,1.28v1.56c0,.51,0,.51.47.57h0Zm-1.71-.09h1.61v-.13c-.44-.06-.51-.12-.51-.66V68.35c0-.74-.37-1.18-1-1.18a1.11,1.11,0,0,0-.63.23c-.22.14-.4.27-.53.37l-.08.06v-.66a7.31,7.31,0,0,1-1.08.3v.11c.41.08.47.14.47.65V69.9c0,.54,0,.61-.57.67v.13H39v-.13c-.45,0-.5-.13-.5-.66V68h0a1.36,1.36,0,0,1,.86-.4c.5,0,.75.32.75.94v1.35c0,.56-.06.66-.5.71Z"/><path class="cls-1" d="M44.8,70.75v-.23c.71-.06.76-.13.76-.71V66.74c0-.42,0-.46-.38-.48l-.4,0v-.19a9.64,9.64,0,0,0,1.51-.42v4.18c0,.58.05.65.76.71v.23Z"/><path class="cls-1" d="M47.1,70.79H44.75v-.32h0c.7-.06.72-.12.72-.66V66.74c0-.4,0-.41-.34-.43l-.44,0V66h0a8.94,8.94,0,0,0,1.5-.42l.07,0v4.25c0,.54,0,.6.72.66h0Zm-2.25-.09H47v-.13c-.68-.06-.76-.16-.76-.76V65.7a9.6,9.6,0,0,1-1.41.39v.1l.35,0c.38,0,.43.09.43.53v3.07c0,.6-.08.7-.76.76Z"/><path class="cls-1" d="M51.74,67.64a3.09,3.09,0,0,1-1.93,3,4,4,0,0,1-1.17.26l0-.25a2.78,2.78,0,0,0,2.29-2.2l-.52.28a1.05,1.05,0,0,1-.48.13,1.42,1.42,0,0,1-1.47-1.49,1.73,1.73,0,0,1,1.69-1.71C51.15,65.63,51.74,66.55,51.74,67.64Zm-2.55-.59c0,.71.4,1.3,1.06,1.3a1.24,1.24,0,0,0,.67-.2,3.51,3.51,0,0,0,0-.55c0-.72-.21-1.69-1-1.69S49.19,66.57,49.19,67.05Z"/><path class="cls-1" d="M48.6,70.92l-.06-.35h.05a2.7,2.7,0,0,0,2.23-2l-.43.22a1.05,1.05,0,0,1-.5.14,1.48,1.48,0,0,1-1.52-1.54,1.78,1.78,0,0,1,1.74-1.76c1,0,1.68.85,1.68,2.06a3.12,3.12,0,0,1-2,3,4,4,0,0,1-1.19.27Zm.06-.26,0,.15a3.83,3.83,0,0,0,1.11-.25,3,3,0,0,0,1.9-2.92c0-.94-.5-2-1.58-2a1.68,1.68,0,0,0-1.64,1.66,1.37,1.37,0,0,0,1.42,1.44.86.86,0,0,0,.45-.13l.62-.32,0,.1A2.8,2.8,0,0,1,48.66,70.66Zm1.59-2.26c-.66,0-1.11-.55-1.11-1.35,0-.57.27-1.19.86-1.19s1,.9,1,1.74a4.61,4.61,0,0,1,0,.56v0h0A1.28,1.28,0,0,1,50.25,68.4ZM50,66c-.6,0-.76.72-.76,1.09,0,.74.41,1.25,1,1.25a1.22,1.22,0,0,0,.63-.18c0-.15,0-.32,0-.52C50.9,66.81,50.67,66,50,66Z"/><path class="cls-1" d="M56,67.64a3.1,3.1,0,0,1-1.92,3,4,4,0,0,1-1.17.26l0-.25a2.78,2.78,0,0,0,2.29-2.2l-.53.28a1,1,0,0,1-.47.13,1.42,1.42,0,0,1-1.47-1.49,1.72,1.72,0,0,1,1.68-1.71C55.36,65.63,56,66.55,56,67.64Zm-2.55-.59c0,.71.4,1.3,1.06,1.3a1.27,1.27,0,0,0,.68-.2,5.36,5.36,0,0,0,0-.55c0-.72-.21-1.69-1-1.69C53.62,65.91,53.4,66.57,53.4,67.05Z"/><path class="cls-1" d="M52.82,70.92l-.06-.35h.05a2.69,2.69,0,0,0,2.22-2l-.42.22a1.05,1.05,0,0,1-.5.14,1.48,1.48,0,0,1-1.52-1.54,1.77,1.77,0,0,1,1.73-1.76c1,0,1.68.85,1.68,2.06a3.11,3.11,0,0,1-2,3,3.91,3.91,0,0,1-1.18.27Zm.06-.26,0,.15A3.83,3.83,0,0,0,54,70.56a3,3,0,0,0,1.89-2.92c0-.94-.49-2-1.58-2a1.68,1.68,0,0,0-1.63,1.66,1.36,1.36,0,0,0,1.42,1.44.89.89,0,0,0,.45-.13l.62-.32,0,.1A2.81,2.81,0,0,1,52.88,70.66Zm1.58-2.26c-.65,0-1.1-.55-1.1-1.35,0-.57.26-1.19.85-1.19.75,0,1,.9,1,1.74a4.73,4.73,0,0,1,0,.56v0h0A1.32,1.32,0,0,1,54.46,68.4ZM54.21,66c-.6,0-.75.72-.75,1.09,0,.74.41,1.25,1,1.25a1.19,1.19,0,0,0,.63-.18,4.05,4.05,0,0,0,0-.52C55.12,66.81,54.88,66,54.21,66Z"/><path class="cls-1" d="M57.59,67.81a3.46,3.46,0,0,1,.92-.25,1.42,1.42,0,0,1,1.57,1.36,1.72,1.72,0,0,1-.74,1.35,2.52,2.52,0,0,1-1.41.57,1.35,1.35,0,0,1-.83-.28c-.13-.11-.16-.18-.15-.28a.54.54,0,0,1,.19-.29.15.15,0,0,1,.22,0,1.56,1.56,0,0,0,1,.42,1,1,0,0,0,1-1.16A1.16,1.16,0,0,0,58.05,68a2.4,2.4,0,0,0-.84.16l.32-2.48h2.35l0,.07-.21.57H57.8Z"/><path class="cls-1" d="M57.93,70.89h0a1.42,1.42,0,0,1-.87-.29.38.38,0,0,1-.16-.33.63.63,0,0,1,.2-.32.2.2,0,0,1,.29,0,1.55,1.55,0,0,0,1,.4c.63,0,.92-.56.92-1.11a1.11,1.11,0,0,0-1.24-1.17,2.48,2.48,0,0,0-.82.16l-.08,0v-.08l.33-2.52H59.9l.08.11-.24.63h-1.9l-.19,1.32a2.92,2.92,0,0,1,.86-.22,1.47,1.47,0,0,1,1.62,1.41,1.75,1.75,0,0,1-.75,1.39,2.6,2.6,0,0,1-1.45.58ZM57.24,70l-.07,0a.51.51,0,0,0-.17.25c0,.08,0,.14.13.24a1.34,1.34,0,0,0,.8.27,2.44,2.44,0,0,0,1.38-.56A1.63,1.63,0,0,0,60,68.92a1.37,1.37,0,0,0-1.52-1.31,3,3,0,0,0-.9.25l-.08,0,.22-1.58h1.92l.2-.51,0,0H57.58l-.31,2.36a2.45,2.45,0,0,1,.78-.13,1.2,1.2,0,0,1,1.34,1.26,1.08,1.08,0,0,1-1,1.21,1.61,1.61,0,0,1-1-.43A.11.11,0,0,0,57.24,70Z"/><path class="cls-1" d="M18.12,60.21a3.26,3.26,0,0,0,1.47.42c.64,0,.92-.26.92-.64s-.23-.59-.94-.84c-1.12-.38-1.59-1-1.58-1.67a1.92,1.92,0,0,1,2.17-1.8,3.32,3.32,0,0,1,1.52.34l-.28,1a2.63,2.63,0,0,0-1.22-.32c-.51,0-.8.24-.8.6s.27.54,1,.8c1,.37,1.52.9,1.54,1.75,0,1-.82,1.79-2.34,1.79a3.64,3.64,0,0,1-1.74-.4Z"/><path class="cls-1" d="M24.48,59.08a1.57,1.57,0,0,0,1.77,1.49,4.43,4.43,0,0,0,1.59-.26l.21,1a5.4,5.4,0,0,1-2,.35,2.71,2.71,0,0,1-3-2.89,2.85,2.85,0,0,1,2.81-3.09,2.49,2.49,0,0,1,2.47,2.79,2.94,2.94,0,0,1-.05.61Zm2.52-1a1.22,1.22,0,0,0-1.18-1.4,1.42,1.42,0,0,0-1.34,1.4Z"/><path class="cls-1" d="M35.35,58.62a2.84,2.84,0,0,1-3,3.05,2.77,2.77,0,0,1-2.87-3,2.83,2.83,0,0,1,3-3A2.75,2.75,0,0,1,35.35,58.62ZM31,58.68c0,1.11.54,2,1.43,2s1.4-.82,1.4-2c0-.9-.4-1.92-1.39-1.92S31,57.73,31,58.68Z"/><path class="cls-1" d="M41.13,61.54l-2.57-7.93h1.58l1.08,3.6c.31,1,.57,1.93.78,2.9h0c.21-.94.49-1.91.81-2.88L44,53.61h1.55l-2.75,7.93Z"/><path class="cls-1" d="M48,54.21a.81.81,0,0,1-1.62,0,.81.81,0,0,1,1.62,0Zm-1.54,7.33V55.81h1.46v5.73Z"/><path class="cls-1" d="M54.87,62.88A1.62,1.62,0,0,0,56,62.46c.27-.29.38-.74.38-2V55.81h1.45v5.08A3.27,3.27,0,0,1,57,63.34,3.07,3.07,0,0,1,55,64Zm3-8.67A.77.77,0,0,1,57,55a.75.75,0,0,1-.79-.77.77.77,0,0,1,.81-.79A.76.76,0,0,1,57.86,54.21Z"/><path class="cls-1" d="M60.7,59.08a1.57,1.57,0,0,0,1.77,1.49,4.43,4.43,0,0,0,1.59-.26l.21,1a5.4,5.4,0,0,1-2,.35,2.71,2.71,0,0,1-3-2.89,2.85,2.85,0,0,1,2.8-3.09,2.5,2.5,0,0,1,2.48,2.79,2.94,2.94,0,0,1,0,.61Zm2.52-1A1.23,1.23,0,0,0,62,56.67a1.41,1.41,0,0,0-1.33,1.4Z"/><path class="cls-1" d="M66.11,57.66c0-.78,0-1.33,0-1.85h1.26l.05,1.09h0A1.7,1.7,0,0,1,69,55.68a1.72,1.72,0,0,1,.34,0v1.37a2.09,2.09,0,0,0-.42,0,1.27,1.27,0,0,0-1.29,1.1,2,2,0,0,0,0,.45v3H66.11Z"/><path class="cls-1" d="M76,58.62a2.84,2.84,0,0,1-3,3.05,2.76,2.76,0,0,1-2.87-3,2.82,2.82,0,0,1,3-3A2.76,2.76,0,0,1,76,58.62Zm-4.33.06c0,1.11.54,2,1.43,2s1.4-.82,1.4-2c0-.9-.4-1.92-1.39-1.92S71.68,57.73,71.68,58.68Z"/><polygon class="cls-1" points="53.47 38.43 53.38 38.45 53.28 38.46 53.19 38.48 53.09 38.49 53 38.51 52.91 38.53 52.82 38.54 52.72 38.57 52.73 38.59 52.73 38.62 52.73 38.65 52.74 38.68 52.82 38.71 52.91 38.73 52.99 38.75 53.07 38.79 53.12 38.8 53.15 38.82 53.19 38.84 53.23 38.86 53.26 38.89 53.29 38.92 53.32 38.96 53.36 39 53.35 39.06 53.34 39.13 53.33 39.2 53.32 39.29 53.3 39.38 53.28 39.48 53.25 39.57 53.22 39.67 53.18 39.75 53.15 39.84 53.12 39.88 53.1 39.92 53.07 39.95 53.05 39.99 53.03 40.02 53.01 40.05 52.98 40.07 52.95 40.1 52.92 40.11 52.89 40.12 52.86 40.13 52.83 40.13 52.84 39.99 52.84 39.86 52.84 39.75 52.85 39.66 52.86 39.57 52.87 39.49 52.87 39.42 52.87 39.35 52.84 39.29 52.82 39.25 52.78 39.21 52.76 39.18 52.73 39.15 52.69 39.13 52.66 39.11 52.62 39.11 52.59 39.1 52.56 39.1 52.52 39.11 52.49 39.12 52.46 39.13 52.42 39.15 52.39 39.18 52.35 39.2 52.32 39.23 52.28 39.25 52.26 39.29 52.22 39.33 52.17 39.4 52.11 39.48 52.06 39.55 52.02 39.63 51.97 39.71 51.94 39.78 51.97 40.1 51.99 40.35 51.99 40.44 51.99 40.53 51.99 40.58 51.98 40.61 51.97 40.65 51.96 40.68 51.95 40.72 51.93 40.75 51.91 40.78 51.88 40.8 51.86 40.83 51.83 40.86 51.8 40.88 51.77 40.91 51.68 40.97 51.58 41.02 51.46 41.08 51.33 41.14 51.33 41.17 51.33 41.2 51.33 41.24 51.33 41.27 51.46 41.33 51.59 41.37 51.61 41.39 51.64 41.41 51.66 41.43 51.69 41.45 51.71 41.48 51.73 41.51 51.75 41.55 51.77 41.59 51.77 41.75 51.77 41.9 51.77 41.97 51.77 42.03 51.78 42.09 51.79 42.14 51.81 42.2 51.83 42.25 51.86 42.3 51.89 42.36 51.93 42.41 51.97 42.47 52.03 42.53 52.1 42.59 52.17 42.59 52.24 42.58 52.29 42.57 52.35 42.56 52.39 42.54 52.44 42.52 52.5 42.48 52.56 42.42 52.68 42.18 52.77 41.97 52.82 41.88 52.85 41.8 52.9 41.72 52.94 41.65 52.97 41.62 52.99 41.59 53.02 41.56 53.05 41.53 53.07 41.51 53.1 41.48 53.15 41.45 53.18 41.43 53.26 41.37 53.36 41.33 53.46 41.29 53.59 41.24 53.59 41.21 53.59 41.19 53.58 41.16 53.58 41.14 53.55 41.09 53.52 41.04 53.48 41 53.45 40.95 53.42 40.91 53.38 40.86 53.39 40.81 53.4 40.75 53.4 40.7 53.41 40.63 53.44 40.5 53.46 40.35 53.51 40.21 53.55 40.05 53.61 39.89 53.67 39.73 53.74 39.58 53.81 39.43 53.85 39.36 53.89 39.29 53.93 39.23 53.96 39.16 54.01 39.1 54.05 39.04 54.09 38.99 54.14 38.94 54.17 38.9 54.22 38.86 54.26 38.82 54.3 38.79 54.41 38.79 54.52 38.79 54.62 38.78 54.73 38.77 54.78 38.77 54.83 38.76 54.88 38.74 54.93 38.73 54.97 38.71 55.02 38.69 55.07 38.67 55.12 38.63 55.09 38.6 55.07 38.59 55.03 38.57 54.99 38.56 54.92 38.53 54.82 38.51 54.73 38.49 54.64 38.46 54.6 38.45 54.56 38.44 54.52 38.42 54.48 38.4 54.45 38.34 54.42 38.3 54.39 38.26 54.35 38.22 54.33 38.19 54.29 38.17 54.27 38.14 54.23 38.13 54.2 38.11 54.17 38.1 54.14 38.1 54.11 38.09 54.08 38.09 54.05 38.1 54.02 38.1 53.98 38.11 53.92 38.13 53.86 38.17 53.79 38.2 53.73 38.25 53.61 38.34 53.47 38.43"/><polygon class="cls-1" points="1.32 26.26 1.37 26.23 1.44 26.19 1.5 26.15 1.57 26.1 1.64 26.05 1.72 25.99 1.79 25.93 1.86 25.86 1.92 25.79 1.99 25.72 2.04 25.65 2.1 25.58 2.12 25.54 2.13 25.51 2.15 25.47 2.16 25.44 2.17 25.41 2.19 25.37 2.19 25.34 2.19 25.31 2.15 25.31 2.12 25.31 2.08 25.32 2.04 25.33 2.01 25.34 1.97 25.35 1.94 25.37 1.9 25.39 1.84 25.43 1.77 25.48 1.71 25.54 1.64 25.6 1.58 25.67 1.53 25.74 1.48 25.81 1.43 25.88 1.34 26.02 1.26 26.15 1.29 26.21 1.32 26.26"/><polygon class="cls-1" points="13.48 42.65 13.48 42.62 13.47 42.58 13.46 42.55 13.44 42.51 13.42 42.47 13.38 42.39 13.33 42.31 13.27 42.21 13.2 42.1 13.13 41.98 13.05 41.83 13.04 41.73 13.04 41.63 13.03 41.53 13.03 41.44 13.03 41.36 13.03 41.28 13.02 41.21 13.01 41.14 13 41.11 12.98 41.08 12.97 41.05 12.96 41.03 12.94 41.01 12.92 40.99 12.89 40.97 12.86 40.95 12.84 40.93 12.79 40.92 12.76 40.91 12.71 40.9 12.66 40.89 12.6 40.88 12.55 40.88 12.48 40.88 12.36 40.95 12.25 41.03 12.13 41.11 12.02 41.2 11.9 41.28 11.79 41.37 11.69 41.46 11.59 41.55 11.48 41.65 11.38 41.75 11.29 41.85 11.2 41.97 11.11 42.08 11.03 42.2 10.96 42.32 10.88 42.44 10.88 42.52 10.87 42.59 10.86 42.68 10.85 42.75 10.81 42.9 10.79 43.06 10.76 43.22 10.73 43.37 10.72 43.45 10.72 43.52 10.71 43.6 10.71 43.67 10.73 43.72 10.75 43.77 10.78 43.81 10.8 43.85 10.83 43.88 10.86 43.91 10.89 43.94 10.91 43.97 10.97 44.02 11.04 44.06 11.1 44.1 11.16 44.15 11.23 44.2 11.29 44.25 11.3 44.27 11.33 44.31 11.35 44.34 11.38 44.37 11.4 44.41 11.41 44.45 11.43 44.5 11.44 44.54 11.45 44.6 11.46 44.65 11.47 44.71 11.47 44.78 11.35 45.08 11.23 45.4 11.18 45.55 11.13 45.71 11.11 45.79 11.09 45.87 11.07 45.94 11.06 46.02 11.05 46.1 11.05 46.18 11.05 46.25 11.05 46.32 11.07 46.4 11.08 46.47 11.1 46.53 11.13 46.6 11.16 46.66 11.2 46.73 11.25 46.79 11.3 46.84 11.36 46.9 11.43 46.96 11.51 47.01 11.59 47.06 11.65 47.05 11.71 47.04 11.76 47.02 11.82 47.01 11.87 46.99 11.93 46.98 11.97 46.95 12.02 46.93 12.07 46.91 12.12 46.88 12.16 46.85 12.21 46.82 12.25 46.79 12.29 46.75 12.32 46.72 12.36 46.68 12.39 46.64 12.42 46.59 12.44 46.55 12.46 46.51 12.48 46.46 12.5 46.41 12.51 46.37 12.52 46.32 12.52 46.26 12.52 46.21 12.52 46.15 12.51 46.1 12.5 46.04 12.48 45.98 12.46 45.92 12.43 45.86 12.35 45.8 12.28 45.75 12.24 45.73 12.21 45.7 12.2 45.68 12.18 45.65 12.16 45.63 12.15 45.6 12.14 45.58 12.13 45.54 12.13 45.51 12.13 45.47 12.13 45.42 12.13 45.36 12.25 45.12 12.38 44.87 12.51 44.62 12.64 44.38 12.78 44.13 12.92 43.9 12.99 43.77 13.07 43.66 13.14 43.55 13.22 43.44 13.31 43.29 13.37 43.15 13.39 43.09 13.42 43.04 13.44 42.99 13.46 42.94 13.47 42.9 13.48 42.85 13.48 42.8 13.49 42.77 13.49 42.73 13.48 42.69 13.48 42.65"/><polygon class="cls-1" points="51.34 30.06 51.45 30.06 51.54 30.05 51.61 30.04 51.68 30.03 51.75 30.02 51.85 30 51.96 29.98 52.17 29.98 52.39 29.99 52.6 30 52.82 30.01 53.03 30.01 53.24 30 53.35 30 53.46 29.99 53.57 29.98 53.69 29.96 53.69 29.91 53.69 29.88 53.69 29.84 53.68 29.81 53.66 29.79 53.64 29.76 53.61 29.75 53.58 29.73 53.32 29.72 53.1 29.72 52.89 29.71 52.7 29.71 52.52 29.71 52.35 29.7 52.17 29.7 51.99 29.7 51.79 29.69 51.57 29.69 51.32 29.69 51.05 29.69 50.73 29.69 50.38 29.69 49.97 29.69 49.52 29.69 49.3 29.71 49.13 29.71 49.02 29.72 48.94 29.73 48.89 29.73 48.85 29.74 48.84 29.75 48.82 29.76 48.85 29.79 48.87 29.81 48.9 29.82 48.93 29.83 48.96 29.84 49 29.85 49.03 29.85 49.07 29.86 49.15 29.87 49.23 29.87 49.31 29.87 49.37 29.88 49.48 29.9 49.6 29.93 49.72 29.95 49.83 29.96 49.94 29.97 50.06 29.97 50.17 29.98 50.28 29.98 50.52 29.98 50.75 30 50.86 30.01 50.97 30.02 51.09 30.04 51.2 30.07 51.34 30.06"/><polygon class="cls-1" points="51.35 27.98 51.36 28.01 51.38 28.05 51.39 28.08 51.4 28.12 51.42 28.15 51.45 28.19 51.48 28.23 51.52 28.26 51.55 28.3 51.59 28.34 51.64 28.38 51.69 28.42 51.78 28.41 51.87 28.4 51.97 28.4 52.07 28.4 52.17 28.34 52.29 28.27 52.44 28.18 52.59 28.07 52.74 27.96 52.9 27.84 52.98 27.77 53.05 27.7 53.13 27.64 53.2 27.57 53.27 27.5 53.34 27.42 53.4 27.35 53.46 27.27 53.52 27.2 53.56 27.13 53.61 27.05 53.65 26.97 53.68 26.9 53.7 26.83 53.72 26.76 53.73 26.69 53.73 26.61 53.71 26.55 53.69 26.48 53.66 26.42 53.6 26.42 53.54 26.43 53.48 26.45 53.43 26.47 53.37 26.5 53.32 26.53 53.28 26.57 53.23 26.61 53.18 26.66 53.13 26.7 53.09 26.76 53.05 26.82 52.97 26.93 52.88 27.05 52.8 27.16 52.71 27.28 52.67 27.33 52.62 27.38 52.58 27.43 52.53 27.47 52.48 27.5 52.43 27.54 52.38 27.57 52.32 27.59 52.27 27.61 52.2 27.62 52.13 27.62 52.07 27.61 52.07 27.55 52.08 27.49 52.08 27.43 52.09 27.37 52.22 27.11 52.35 26.85 52.48 26.58 52.62 26.33 52.75 26.07 52.88 25.81 53.02 25.55 53.15 25.29 53.19 25.18 53.23 25.08 53.24 25.03 53.25 24.99 53.26 24.95 53.27 24.91 53.28 24.87 53.28 24.83 53.28 24.79 53.28 24.74 53.26 24.7 53.25 24.65 53.24 24.6 53.22 24.55 53.17 24.54 53.13 24.52 53.09 24.52 53.06 24.51 53.02 24.51 52.98 24.51 52.95 24.51 52.92 24.52 52.89 24.53 52.85 24.55 52.83 24.57 52.8 24.59 52.77 24.61 52.75 24.64 52.73 24.67 52.7 24.7 52.7 24.73 52.73 24.76 52.74 24.78 52.76 24.79 52.81 24.83 52.87 24.89 52.87 24.94 52.87 24.99 52.87 25.05 52.87 25.1 52.78 25.23 52.7 25.35 52.62 25.48 52.55 25.6 52.4 25.86 52.26 26.12 52.12 26.38 51.97 26.64 51.89 26.76 51.81 26.89 51.72 27.02 51.64 27.14 51.53 27.35 51.44 27.53 51.4 27.61 51.37 27.69 51.36 27.73 51.35 27.76 51.35 27.8 51.34 27.84 51.34 27.87 51.34 27.91 51.35 27.94 51.35 27.98"/><polygon class="cls-1" points="49.04 28.36 49.08 28.35 49.11 28.34 49.15 28.33 49.18 28.32 49.31 28.2 49.46 28.05 49.55 27.97 49.64 27.88 49.73 27.79 49.82 27.69 49.9 27.6 49.98 27.5 50.05 27.41 50.12 27.31 50.15 27.27 50.17 27.22 50.2 27.18 50.22 27.13 50.23 27.09 50.24 27.05 50.24 27 50.25 26.96 50.21 26.96 50.18 26.97 50.15 26.97 50.12 26.98 50.08 26.99 50.05 27.01 50.03 27.02 50 27.04 49.94 27.08 49.9 27.13 49.85 27.19 49.8 27.24 49.75 27.29 49.71 27.35 49.65 27.4 49.6 27.44 49.57 27.46 49.54 27.48 49.52 27.49 49.48 27.5 49.45 27.52 49.41 27.53 49.38 27.53 49.34 27.53 49.33 27.5 49.32 27.48 49.31 27.45 49.31 27.42 49.31 27.39 49.31 27.36 49.31 27.33 49.32 27.29 49.33 27.22 49.36 27.16 49.39 27.09 49.42 27.01 49.51 26.88 49.59 26.74 49.67 26.61 49.73 26.51 49.76 26.41 49.79 26.27 49.81 26.11 49.83 25.95 49.84 25.87 49.84 25.79 49.84 25.71 49.84 25.64 49.84 25.58 49.83 25.53 49.82 25.51 49.82 25.48 49.81 25.46 49.8 25.45 49.76 25.45 49.71 25.44 49.66 25.44 49.61 25.44 49.47 25.57 49.3 25.72 49.21 25.8 49.11 25.88 49.02 25.98 48.93 26.07 48.84 26.16 48.77 26.26 48.69 26.35 48.63 26.45 48.6 26.5 48.57 26.55 48.54 26.59 48.53 26.64 48.51 26.69 48.5 26.74 48.48 26.78 48.48 26.83 48.53 26.82 48.58 26.81 48.62 26.79 48.66 26.77 48.7 26.75 48.74 26.72 48.78 26.69 48.81 26.66 48.87 26.59 48.93 26.52 48.99 26.45 49.05 26.38 49.1 26.3 49.16 26.23 49.19 26.2 49.23 26.16 49.26 26.13 49.3 26.11 49.33 26.08 49.37 26.06 49.42 26.04 49.47 26.02 49.52 26 49.57 25.99 49.63 25.99 49.69 25.99 49.69 26.03 49.69 26.07 49.69 26.11 49.69 26.15 49.68 26.17 49.67 26.19 49.66 26.21 49.65 26.22 49.63 26.24 49.61 26.26 49.59 26.27 49.57 26.28 49.51 26.34 49.45 26.41 49.4 26.47 49.33 26.55 49.24 26.66 49.13 26.82 48.97 27.02 48.77 27.3 48.68 27.45 48.6 27.59 48.56 27.65 48.53 27.72 48.51 27.79 48.5 27.86 48.48 27.89 48.48 27.92 48.48 27.95 48.48 27.98 48.48 28.01 48.5 28.05 48.5 28.08 48.51 28.11 48.53 28.15 48.54 28.18 48.56 28.21 48.59 28.25 48.62 28.27 48.65 28.31 48.69 28.35 48.72 28.38 48.93 28.37 49.04 28.36"/><polygon class="cls-1" points="43.95 21.31 43.99 21.32 44.03 21.33 44.11 21.33 44.19 21.33 44.26 21.33 44.34 21.33 44.34 21.29 44.34 21.26 44.22 21.26 44.1 21.26 43.98 21.26 43.86 21.26 43.86 21.27 43.86 21.29 43.9 21.3 43.95 21.31"/><polygon class="cls-1" points="23.3 9.52 23.29 9.47 23.27 9.42 23.25 9.36 23.23 9.31 23.2 9.25 23.17 9.18 23.13 9.11 23.09 9.04 23.02 8.99 22.95 8.96 22.89 8.94 22.83 8.91 22.73 8.88 22.64 8.85 22.61 8.83 22.59 8.81 22.57 8.79 22.56 8.78 22.55 8.76 22.54 8.75 22.52 8.7 22.51 8.64 22.5 8.57 22.5 8.49 22.53 8.37 22.55 8.25 22.57 8.14 22.59 8.02 22.6 7.91 22.6 7.79 22.61 7.68 22.6 7.58 22.6 7.46 22.59 7.35 22.57 7.25 22.54 7.13 22.52 7.03 22.48 6.92 22.44 6.81 22.39 6.7 22.33 6.66 22.27 6.61 22.21 6.58 22.14 6.55 22.09 6.53 22.03 6.52 21.97 6.51 21.91 6.51 21.86 6.51 21.8 6.53 21.74 6.54 21.68 6.56 21.63 6.59 21.58 6.62 21.52 6.65 21.47 6.69 21.42 6.73 21.36 6.77 21.31 6.81 21.26 6.86 21.16 6.95 21.07 7.05 20.87 7.26 20.69 7.44 20.6 7.58 20.51 7.74 20.43 7.88 20.36 8.03 20.27 8.17 20.21 8.31 20.14 8.46 20.08 8.6 20.02 8.75 19.97 8.89 19.92 9.03 19.87 9.18 19.83 9.32 19.79 9.46 19.75 9.61 19.72 9.75 19.69 9.9 19.66 10.05 19.63 10.2 19.61 10.35 19.59 10.5 19.57 10.65 19.55 10.81 19.55 10.96 19.53 11.12 19.52 11.29 19.52 11.45 19.51 11.61 19.5 11.95 19.5 12.3 19.52 12.38 19.55 12.46 19.58 12.54 19.62 12.61 19.65 12.69 19.7 12.76 19.75 12.82 19.8 12.89 19.85 12.95 19.9 13.01 19.96 13.07 20.02 13.12 20.09 13.18 20.15 13.23 20.22 13.28 20.29 13.32 20.36 13.37 20.43 13.42 20.51 13.46 20.59 13.5 20.74 13.58 20.89 13.64 21.05 13.71 21.21 13.77 21.37 13.83 21.52 13.88 21.67 13.87 21.81 13.86 21.96 13.85 22.1 13.83 22.16 13.81 22.23 13.8 22.29 13.79 22.35 13.76 22.41 13.74 22.47 13.72 22.52 13.69 22.57 13.67 22.61 13.64 22.65 13.6 22.69 13.56 22.72 13.52 22.75 13.48 22.77 13.43 22.79 13.38 22.8 13.32 22.81 13.27 22.81 13.2 22.8 13.13 22.79 13.06 22.77 12.98 22.75 12.9 22.71 12.81 22.67 12.72 22.67 12.48 22.66 12.22 22.66 11.95 22.66 11.68 22.66 11.55 22.67 11.42 22.68 11.29 22.69 11.17 22.7 11.05 22.72 10.93 22.75 10.82 22.78 10.71 22.85 10.57 22.93 10.44 23 10.32 23.06 10.22 23.13 10.13 23.18 10.03 23.23 9.95 23.27 9.86 23.28 9.83 23.3 9.79 23.3 9.74 23.31 9.7 23.31 9.66 23.31 9.62 23.31 9.57 23.3 9.52"/><polygon class="cls-1" points="16.46 25.63 16.5 25.66 16.52 25.68 16.65 25.68 16.81 25.67 16.9 25.66 17 25.66 17.09 25.64 17.18 25.63 17.27 25.61 17.35 25.58 17.39 25.57 17.42 25.55 17.45 25.53 17.48 25.51 17.51 25.48 17.54 25.46 17.55 25.43 17.57 25.4 17.58 25.37 17.59 25.33 17.59 25.29 17.59 25.25 17.56 25.23 17.52 25.23 17.49 25.22 17.45 25.21 17.38 25.2 17.31 25.19 17.22 25.2 17.14 25.2 17.05 25.22 16.97 25.23 16.89 25.25 16.81 25.27 16.73 25.3 16.65 25.33 16.58 25.35 16.52 25.39 16.46 25.42 16.4 25.45 16.4 25.48 16.4 25.51 16.4 25.54 16.4 25.58 16.43 25.6 16.46 25.63"/><path class="cls-1" d="M51.54,38.43l-.07,0-.07,0-.08,0-.07,0-.07,0-.08,0-.07,0-.17-.09-.13-.06-.06,0h-.34l-.13,0-.17.07H48.39l-.19,0h-.28l-.09,0-.09,0-.07,0h-.09l-.08,0-.07,0-.08,0-.07,0-.06,0v-.07l.06,0,.07,0,.07-.06.08-.08.07-.08.08-.08.07-.09.07-.1.06-.1.06-.1L48,37l0,0v-.05l0,0,0,0v-.26l0,0,0,0-.06,0,0,0-.05,0-.09,0-.07,0,0,0,0,0,0,0,0,0v0l0-.06V36l.06-.19.07-.19.08-.21.07-.19.08-.2.08-.21.08-.2.08-.21.07-.2.07-.21,0-.1,0-.1,0-.1,0-.11,0-.1,0-.1v-.1l0-.1V32.8l0-.07,0-.07-.05-.07,0-.07-.06-.07,0-.06-.06-.06-.07,0-.06,0-.06,0h0l0,0h-.37l-.09.1-.11.13-.12.17-.14.17-.13.2-.15.21-.07.11-.07.11-.07.12-.07.12-.07.11-.06.12-.07.12,0,.11-.06.12,0,.11,0,.11,0,.11,0,.11,0,.11,0,.1,0,.09v.26l0,.08,0,0,0,0,0,0,0,0,0,0,0,0,0,0h0l.08,0,.09,0,.1,0h.12l0,0,0,0v.25l0,.13,0,.13,0,.13,0,.13,0,.13,0,.13V37l0,.1,0,.09,0,.1,0,.09,0,.09,0,.08,0,.05,0,0,0,0,0,0,0,0,0,0,0,0,0,0,0,0,0,0,0,0,0,0v0L47,38,47,38h-.18l-.08,0H46l-.18,0h-.17l-.15,0-.15,0h-.14l-.15,0h-.32l-.31,0h-.3l-.15,0-.15,0-.15,0-.14,0-.06,0-.07,0-.07,0-.07,0v-.23l0,0,0,0,0,0,0,0,0,0,0-.05v0l0,0,0-.09,0-.09,0-.1,0-.09.09-.17.07-.13.06-.11,0-.1.06-.1L44,36l.07-.15.09-.2v-.45l0-.08V35l0-.1,0-.1,0-.1,0-.1,0-.1,0-.09,0-.1,0-.11v-.09l0-.09,0-.09,0-.1,0-.1,0-.1,0-.09,0-.11-.07-.19L44,33,44,32.85l-.08-.16v-.57l0,0v0l0-.05-.09-.07-.09-.07-.08,0-.08,0-.08,0-.08,0-.07,0H43l-.07,0-.07,0-.06,0-.06,0-.06,0-.06.05-.05.06,0,.06-.06.06,0,.07,0,.07-.05.08,0,.07,0,.08-.08.17-.08.16L42,33l-.07.16-.07.08-.06.09-.07.09-.07.09-.07.09-.07.09-.07.09-.06.08,0,.1,0,.09,0,.09,0,.1,0,.08,0,.09,0,.08v.08l0,.09,0,.08v.47l0,.07v.08l0,.07,0,.08,0,.07,0,.08,0,.07,0,.08,0,.07,0,.08,0,.08.05.08,0,.07.06.08,0,.08.06.08,0,.09v.09l0,.09v.55l0,.05v.09l0,0v0l0,0,0,0,0,0,0,0,0,0,0,0,0,0,0,0,0,0,0,0H40.8l-.34,0H39.3l-.12,0H39l0,0,0,0,0-.05,0,0v-.24l0-.06,0-.08,0-.07,0-.07L39,37l.07-.16.09-.16.1-.16.09-.17.08-.16.09-.16,0-.08,0-.07,0-.07,0-.07,0-.07v-.19l0-.07,0-.08,0-.07,0-.08,0-.07,0-.07v-.16l.09-.22.07-.16,0-.06v-.24l0,0,0-.06-.07-.14-.11-.19,0-.1,0-.1v-.1l0-.1-.08-.11-.06-.1,0,0,0,0,0,0v-.33l0-.07.18-.26.14-.2,0,0,0,0,0,0V32l0,0v-.2l0,0,0,0,0,0,0,0,0,0,0,0,0,0-.05,0-.07,0-.13-.05L39,31.41h-.24l0,0h0l0,0,0,0,0,0,0,0,0,0-.06,0-.05.07,0,.07-.06.07,0,.07,0,.08-.06.08,0,.08-.06.09-.06.08-.06,0-.06,0,0,0-.06.06-.05.05-.06.07-.06.06-.06.07-.1.13-.11.15-.1.14-.09.15-.1.15-.1.16-.08.16-.09.15-.07.15-.08.15-.06.14-.07.14V35l0,.07v.07l0,.13,0,.14.05.14.06.13.06.13,0,.13.07.13.06.13.07.13.06.14.07.13,0,.15v.29l0,.08,0,.07,0,.07,0,.07,0,.06,0,.05-.05,0,0,0-.06,0-.06,0-.06,0-.07,0-.07,0-.07,0h-.54l-.15,0h-.16l-.16,0-.15,0-.06,0,0,0-.05,0,0,0,0,0,0,0,0,0,0,0,0,0,0,0,0,0v-.29l0-.1,0-.1,0-.1,0-.09.09-.19.1-.18,0-.09,0-.09,0-.09,0-.11,0,0v-.06l0,0v-.27l-.12-.2L35.26,35l-.07-.12-.07-.1-.06-.09-.06-.1-.09-.12-.1-.14V34l0-.11v-.1l0-.1v-.22l0-.06v-.06l0-.07v0l0-.05v-.4l0,0v0l0-.07,0-.08.06-.08.06-.08.06-.1.07-.09.07-.11.07-.12v-.13l0-.05,0-.05,0,0,0,0,0,0h0l0,0H35l-.05,0h-.1l-.1,0-.11.06-.11.05-.1.06-.19.11-.14.08-.19.25-.19.25-.17.26-.18.25-.17.26L33,33.6l-.17.26-.17.27v.26l0,.08v.08l0,.07v.24l0,.06V35l0,.06,0,.06-.06.14,0,.16v.36l0,.17,0,.18,0,.18,0,.18v.38l0,.06,0,.05,0,0,0,0,0,0,0,0,0,0,0,0,0,0,0,0,.05,0,0,0,0,0,0,.05v.12l0,.06,0,0,0,0-.06,0h-.9l-.18,0-.17,0h-.17l-.08,0-.07,0-.08,0-.08,0-.07,0-.08,0-.06,0-.07,0-.06,0-.05,0-.05,0,0-.05,0,0,0-.06V36.5l0-.11v-.21l0-.1,0-.11,0-.1,0-.11,0-.1,0-.12.05-.11.13-.22L31.2,35l.05-.09.05-.09,0-.09,0-.08,0,0v-.51l0-.06,0-.05,0-.06,0-.07v-.61l-.06-.12L31.14,33l-.07-.11-.07-.1-.07-.1-.07-.09-.07-.09-.07-.09-.15-.17-.16-.18-.16-.17-.16-.18,0-.1,0-.08,0-.08,0-.06,0-.06,0-.05,0,0,0,0,0,0,0,0h-.25l0,0,0,0,0,0-.08.07-.09.08-.1.08-.1.1-.11.09-.11.1-.09.12-.09.13-.1.15-.1.16-.11.16-.11.17-.12.18-.13.17v.26l.06.12.05.11,0,.1,0,.1,0,.1,0,.11,0,.12,0,.14.11.24.1.2,0,.09,0,.07,0,.08,0,.07v.32l0,.1,0,.11,0,.12,0,.14v.4l0,.1v.33l0,.31,0,.26v.11l0,.09v.08l0,0,0,0v0l0,0,0,0,0,0h-.35l-.08,0-.07,0-.07,0-.08,0h-.85l-.28,0H24.55l-.14,0h-.29l-.14,0-.14,0-.14,0-.13,0-.14,0-.13,0-.13,0-.13,0-.12,0h-.27l0,0,0,0h0l0,0,0,0,0,0,0,0,0,0v-.75l0-.31,0-.4,0-.51.06-.15.06-.13,0-.11,0-.1v-.32l0-.08,0-.08,0-.08-.05-.09-.05-.1,0-.12-.06-.12-.07-.15V33l0-.08v-.08l0-.07v-.08l0-.06-.06-.13-.06-.14L22,32.25,22,32.08l0-.11v-.1l0-.08,0-.08,0-.06,0,0,0,0v0h0l0,0h0l-.06,0h-.41l-.3.13-.33.14-.16.08-.17.08-.09.05-.08,0L20,32l-.08,0-.08,0-.06.05-.08.06-.06.06-.07.06-.06,0-.05.07,0,.07-.05.07,0,.07,0,.07,0,.08,0,.08,0,.08v.17l0,.09,0,.08,0,.08,0,.07v0l0,0v0l0,0v.2l-.09.17-.07.13,0,.06,0,.06,0,.05,0,.07,0,0V35l.09.17.1.22.05.12.06.14,0,.13,0,.13,0,.14,0,.14,0,.06v.61l-.05,0,0,0,0,0,0,0h-.1l-.05,0H17.94l-.18-.08-.14-.06-.07,0-.06,0h-.41l-.08,0-.08,0-.09,0h-.57l-.05,0h0l0,0h0l0,0,0,0,0,0,0,0v0l0,0v-.91l0-.28.05-.24,0-.1v-.6l0-.1,0-.11,0-.11L16,34l0-.13V32.2l0-.16,0-.16,0-.17V28.54l0-.16,0-.17,0-.15,0-.16,0-.15,0-.16,0-.15,0-.15.06-.14.07-.15,0,0,.05,0,.05,0,.06,0h.56l.28,0h.29l.28,0,.28,0h.58l.28,0h2l.22,0,.24.05.26.05.25,0,.13,0H23l.06,0h.05l.05,0,0-.06,0-.05V26.5l0,0,0,0,0,0,0,0,0,0,0,0,0,0,0,0,0,0-.1,0-.1,0h-.11l-.11,0-.1,0-.09,0h-.1l-.06,0V26l.06,0,.08,0,.08,0,.1,0,.1,0,.11,0h.11l.12,0,.11,0h.54l0,0h.08l0,0,.07.21,0,.11,0,0v0l0,0,0,0h.11l0,0h0l0,0h0l0,0,.08-.05.08,0,.07-.05.09-.06.07,0,.07,0,0,0,0,0h0l0,0h.21l0,0V26l-.17.26-.16.25-.17.26-.17.26-.17.26-.18.25-.18.25-.18.25,0,.12-.05.11v.48l0,0,0,0h0l0,0h.56l.08,0,0,0,0,0v.31l0,.1,0,.09,0,.09,0,.09v.25l0,0,0,0,0,0h0l0,0,.05,0h.35l.1,0,.09,0,.07,0,.07,0,.12-.06.12-.05.06,0h.47l.11,0h3.41l.2,0h.61l.21,0h2.4l.15,0h1.67l.16,0h.16l.16,0h2.48l.19.09.15.1.07,0,.07,0,.07,0,.07,0,.07,0,.07,0,.07,0h.37l.12,0,.14-.06.13-.06.11-.05.13,0,.12-.05.12,0,.14,0,.15,0h.43l.05,0h.07l0,0,0,0,0,.05,0,.05,0,.06.06.07,0,.09.07.09.08.11,0,0H41l0,0h.43l.06,0h0l.06,0,0,0,.06,0,.1-.05.09-.06.11-.06.09-.05.2-.13.18-.14.09,0,.09,0,.09,0,.09,0,.09,0h1l0,0,.05,0,0,0h0l0,0h.29l.07,0,.08,0,.16.07L45,30l.1,0,.09,0h.22l.11,0h.08l.07,0,.07,0,.07,0,.08,0,.11,0,.14,0,.16,0H47l.18,0h.33v-.07l-.12,0h-.47l0,0-.06,0,0,0-.05,0,0,0v-.18l0,0,0-.06,0-.06,0-.05,0-.05,0-.05,0-.06,0-.05,0-.05.09-.11.09-.1.1-.1.09-.1.09-.11.09-.11,0-.05,0-.06,0-.06,0-.06,0,0,0-.06,0-.07,0-.06h-.14l0,0-.05,0,0,0-.06,0,0,0-.1.07L47.1,28l-.1.09-.11.09-.1.1-.1.09-.1.1-.08.1-.08.1-.08.09-.06.1,0,.07-.06.05,0,0-.05.06,0,0-.11,0-.1,0h-.07l-.06,0,0,0,0,0V29l0-.08,0-.09,0-.09.06-.11.07-.12.08-.11.08-.12.09-.13.19-.26.2-.27.2-.26.19-.24.18-.22.15-.19.12-.15.07-.1.07-.08.06-.07.06-.08,0-.09,0,0,0,0,0,0v0l0-.05v-.05l0-.05v-.05h-.09l-.16.19-.17.2-.17.2-.16.2-.16.2-.17.2-.16.19-.17.21-.15.2-.18.2L45.9,28l-.16.19-.16.21-.16.2-.17.2-.17.2,0,.06,0,.07,0,.06,0,.05,0,0,0,.05,0,.05,0,0,0,0,0,0,0,0,0,0,0,0h0l0,0h-.44l-.11,0-.12,0-.13,0-.14,0,0,0,0,0,0,0v-.21l0,0,0,0,0-.05,0,0,.07-.08.07-.08.07-.09.08-.08,0,0,0,0,0,0,0,0,0,0v0l0,0v-.12l0,0,0,0h-.17l-.05,0,0,0-.05,0-.06,0-.1.08-.11.08-.12.1-.11.09-.11.1-.11.1-.1.1-.09.1-.16.15-.11.1-.08,0-.09,0-.08,0-.09,0h-.33l0,0h-.06v0l0,0v-.21l0-.05,0-.05,0-.06.08-.11.08-.11.09-.1.07-.1.08-.1.09-.12.09-.12.1-.13.11-.15.13-.17.15-.19.16-.21.2-.25.21-.27.24-.31.27-.35L44.2,26l.22-.23.22-.23.21-.24.22-.24.2-.23.21-.25.2-.23.13-.11.19-.15.1-.09.11-.1.1-.11.11-.11,0-.05,0-.05.05-.05,0-.06,0-.05,0-.06,0-.05,0-.05,0-.05,0-.05v-.22l0,0h-.19l0,0h-.07l0,0-.07,0-.07,0-.08.05-.08.05-.28.22-.28.24-.28.23-.27.25-.26.25-.27.25-.26.25-.26.26-.27.25-.25.26-.26.26-.26.26-.25.26-.26.26-.26.26-.26.26-.11.07-.1.08-.11.07-.11.08-.24.25L41,28l-.25.27-.25.26-.13.13-.13.12-.13.12L40,29l-.14.11-.13.11-.13.11-.14.09-.06,0-.07,0h-.13l-.07,0h-.46l-.06,0-.06,0,0,0-.06,0v-.26l0,0V29l.05-.09,0-.08,0-.1.05-.09.28-.33.28-.33.28-.33.29-.33.28-.32.3-.32.29-.33L41,26l.29-.31.29-.33.3-.31.29-.33.29-.32.29-.32.29-.32.29-.32.05-.1,0-.08,0-.08,0-.08v-.3h0l0,0h-.27l0,0h-.05l-.06,0-.16.1-.17.12-.17.11-.16.11-.33.24-.32.24-.33.26-.32.25-.32.26-.31.27-.32.27-.31.26-.32.27-.31.27-.31.27-.3.26-.62.52-.16.12-.21.17-.26.2-.27.22-.14.1-.14.1-.12.09-.12.08-.12.06-.1.06,0,0h-.12V28l0-.05,0-.05,0-.07,0-.06,0-.06.05-.07.1-.15.13-.15.12-.16.14-.16.27-.31.25-.27.19-.21.13-.13.17-.23.17-.21.18-.21.18-.22.18-.21.18-.2.19-.21.18-.21.19-.21.18-.2.19-.21.19-.2.19-.2.19-.21.18-.19.2-.21.07-.1.1-.12,0-.06,0-.06,0-.07,0-.06v0l0,0V22.2h0l0,0v0h0l0,0h-.22l-.15.13-.15.11-.14.11-.16.12-.13.12-.15.12-.14.13-.14.13-.2.14-.19.14-.19.14-.2.15-.37.3-.37.29-.37.31-.37.32-.37.31-.36.32-.37.32-.36.33-.36.32-.36.33-.36.33-.35.32-.36.32-.36.31h-.17v-.15l.16-.2.15-.2.15-.19.15-.19.16-.19.15-.19.16-.18.16-.19L35,26l.33-.36.33-.35.32-.35.34-.34.33-.35L37,23.9l.35-.34.34-.35.36-.34.34-.35.37-.34,0-.05,0-.06,0-.05,0-.05,0-.06v-.05l0-.05v-.15h0v0h0l0,0h0l0,0h-.17l-.2.15-.19.14-.19.15-.19.15-.18.16-.18.16-.19.15-.19.15-.31.27-.3.27-.32.28-.32.28-.31.27-.31.28-.31.27-.31.28-.32.28-.31.28-.31.28-.31.28-.31.28-.31.28-.3.28-.31.28-.1.08-.15.12-.19.16-.22.16-.11.07-.1.07-.1.07-.11.06,0,0,0,0H30.8V27.9l0-.07,0-.07.08-.12.08-.12.27-.32.28-.32.27-.32.28-.32.28-.31.28-.31.29-.3.28-.32.29-.3.29-.31.29-.3.29-.3.28-.31.3-.3.29-.29.29-.3.16-.14.14-.13.15-.14L36.2,22l.13-.15.14-.16.13-.15.12-.16.06,0,.06,0,.07,0,.07,0H37l.07,0h.76l.16,0H39l.08,0h1.41l.06,0,.08,0,.09,0,.11,0,.11,0h1l0,0h0l0,0,0,0,0,0h0l0,0h0l0,0h-.08l0,0H39.73l-.42,0h-.42l-.43,0L38,21l-.42,0-.42,0-.42,0-.43,0-.42,0-.42,0-.42,0-.42,0-.42,0-.42,0-.07,0-.06,0-.07,0-.06,0-.11-.07-.11-.06-.05,0,0,0-.06,0,0,0-.06,0h-.19l-.12.05-.11.05-.11,0-.08,0-.08,0-.08,0H32l-.07,0-.08,0-.09-.05-.09-.05-.1-.06-.11-.08h-.2l-.09,0-.09,0-.08,0-.09,0-.09,0-.09,0h-.88l-.3,0h-.29l-.29,0-.29,0-.3,0-.28,0-.3,0-.28,0-.29,0-.29,0-.29,0-.29,0-.28,0h-.49l-.05,0,0,0h0l0,0,0,0v0h0v.27l0,.05,0,.05.11,0,.1,0,.1,0,.11,0,.1,0,.11,0,.1,0,.11,0,.22,0,.22,0,.21,0,.24,0,.06,0,0,0h0v0l0,0h0v.06h0v.17l0,.05,0,.05-.05.11,0,.13-.16.23-.15.21-.15.21-.15.21-.16.22-.17.24-.18.26-.19.29-.32.31-.25.25-.18.19-.13.14-.11.11-.1.11-.09.11-.11.12-.06,0-.05,0-.05,0-.06,0-.06,0-.06,0-.06,0-.06,0-.12,0-.13,0-.12,0H22.69l-.11,0-.12,0-.11,0-.11,0-.11,0-.11,0-.12,0-.11,0h-2l-.17,0-.15,0-.17,0-.16,0h-.69l-.07,0h-.07l-.07,0-.07,0-.07,0-.07,0L18,25.32v-.14l.17-.24.17-.24.17-.24.17-.22.17-.23.18-.22.09-.12.1-.11.09-.11.1-.11.26-.2.27-.2.12-.1.13-.09.07,0,.06,0,.07,0,.07,0,.06,0,.07,0,.06,0H21l.06,0h.08l.07,0,.08,0,.07,0,.07.05.08,0,.08.06.09.11.09.13,0,.07.06.06.05.06.06.06,0,0,0,0,0,0,0,0,0,0h0l0,0h.21l.05,0h0l0,0v-.43l0-.07v-.07l0-.07,0-.07,0-.06v-.06l0-.06,0-.06,0-.05,0-.05,0,0-.05-.05,0-.05-.05,0-.05,0-.06,0-.05,0-.06,0-.06,0-.12-.08-.15-.06-.14-.06-.15-.06h-.76l-.08,0h-.08l-.09,0-.08,0-.07,0-.08,0-.08,0-.27.27-.27.26-.27.28-.26.27-.27.27-.25.28-.27.28-.25.27-.07,0-.06,0-.06,0-.07,0-.07,0-.07,0h-.56l-.05,0h0l0,0,0,0,0,0,0,0,0,0v0l0,0v0l0,0,0,0,0,0,.06,0,.06-.05.09-.05.09,0,.07-.05.06,0,.06-.07.09-.12.05-.16,0-.16,0-.16,0-.16.06-.31.07-.31.05-.32,0-.32.05-.31,0-.32,0-.32,0-.31,0-.32v-.32l0-.32v-.32l0-.32v-.33l0-.2,0-.17,0-.18,0-.2,0-.26.05-.35.08-.45.09-.59,0-.07,0,0,0-.05.08,0h.26l.1,0,.17.07.18.06.1,0,.09,0,.09,0,.1,0,.09,0,.11,0H20l0,0h0l0,0,.14-.1.24-.18H21l.17,0,.16,0,.18,0h.35l.13,0,.14,0,.14,0h.93l.28,0H24l0,0,0,0,0,0,0,0,0,0,0,0,0,0,0,0v-.22l0,0,0,0v0l0,0,0,0-.05,0-.06,0-.06,0h-.06l-.26,0-.24,0-.25,0-.26,0-.25,0-.24,0-.25,0-.25,0-.19,0-.19,0-.2,0-.19,0-.1,0-.09,0-.09,0-.09,0-.1,0-.08,0-.09,0-.08,0-.1-.11-.1-.09,0,0-.05,0,0,0,0,0,0,0,0,0,0,0h-.34l-.08,0-.09,0-.21.08-.25.09h-.19l-.08,0-.07,0-.07,0-.07,0-.05,0L18.34,14l0,0,0-.06,0-.06,0-.06,0-.07v-.07l0-.08v-.07l0-.08v-.75l0-.17,0-.15,0-.14,0-.33v-.64l0-.32,0-.33v-.32l0-.32V9.65l0-.32V9l0-.32V7.09L18.46,7l.07-.13.06-.11.07-.12.06-.11.06-.13,0-.06,0-.06,0-.06,0-.07L19,5.93l.1-.19.09-.19.09-.18.1-.19.1-.18.09-.19.1-.18.09-.19.11-.18.09-.18.1-.19.09-.18.1-.19.09-.18.09-.19.09-.1.08-.1.13-.14.21-.21L21,2.47l.1-.12.09-.12.09-.11L21.36,2l.09-.1.09-.1.1-.09.1-.09.1-.08.1-.09.11-.08.12-.08.12-.07.13-.07.14-.07.17,0,.13,0h.06l0,0L23,1l0,0,0,0,0,0,.05,0,0,0,.11-.09.13-.1.06-.07L23.6.5l0-.06,0-.06V.22l0,0,0,0,0,0,0,0,0,0-.06,0-.06,0h-.74l-.15,0-.13,0-.11,0-.08,0L22,.18,22,.26l-.1.07-.1.08-.13.14L21.49.7l-.15.14L21.2,1l-.28.28-.29.28-.29.27-.28.28-.13.14-.15.14-.13.15-.13.15-.12.2-.11.21-.12.22L19,3.51l-.12.21-.13.21-.06.1-.07.1-.07.1-.07.09h-.18l-.06-.08-.07-.08-.07-.07-.06,0,0,0L18,4l0,0-.05,0H17.7l0,0,0,0,0,0,0,0,0,0,0,0,0,0,0,.06v0l0,.06,0,.06,0,.07-.07.29-.07.3v2.5l0,.21,0,.2,0,.2,0,.2v.29l0,.09,0,.12,0,.15v2.47l0,.3,0,.29v.15l0,.15,0,.15,0,.15,0,.14L17,13l0,.16,0,.15,0,.16,0,.15,0,.16,0,.16v.27l0,.22v.33l0,.16v.17l0,.2v5l0,.08,0,.08,0,.07,0,.06,0,.05,0,.05,0,0,0,0,0,0-.05,0-.05,0-.06,0h-.05l-.07,0-.07,0L16,21h-.4l-.19,0-.21,0-.25,0-.31,0-.38,0-.49,0H8.84l-.08,0-.06,0H8.63l-.06,0H8.12l-.06,0-.06,0H7.93l-.07,0H6.66l-.15.05-.15.06-.16.07L6,21.32l-.18.08-.18.11-.08,0-.09.06-.09.05-.09.06-.08.07-.08.05-.07.07L5,22,4.93,22l-.07.07-.06.07-.06.07,0,.07-.05.08,0,.07,0,.08v.08l0,.08v.16l0,.06,0,.05,0,.06,0,.05v.18l0,.06,0,.08,0,.07,0,.08,0,.07-.07.16L4.32,24l-.1.17-.1.17L4,24.45l-.1.17-.11.16-.1.15-.19.27-.14.22-.18.24L3,25.92l-.18.24-.19.26-.2.24-.19.25-.2.25-.19.25-.2.24-.19.25-.2.24-.2.24-.2.25-.2.23-.2.25-.2.24,0,.08,0,.06,0,.06,0,.05v.21l0,0v0l0,0H.26l0,0H.45l0,0H.55l0,0,.05,0,0,0,.05,0,.05,0,0,0,.06,0,0,0L1,29.55l.09-.09.08-.1.09-.08.15-.17L1.57,29h.16v.51l0,.06,0,.06,0,.05v.05l0,.11,0,.11,0,.05,0,.05,0,.05,0,0v.15l0,0v.05l0,.05,0,0,0,.05,0,.05.06.05.06.05.08,0h.24l.08,0,.08,0,.07,0,.07,0,.07,0,.06-.05.07-.05.06-.05.07-.06.06-.06.06-.06.05-.06.06-.07.24-.26.23-.26.05-.06.06-.06.07-.06.06-.05.07-.05.06-.05.07,0,.07,0H4l0,0h0l0,0,0,0,0,0,0,0v0l0,0,0,.05v.1l0,.11,0,.12.07.13,0,.1,0,0,0,0,0,0,0,0,0,0,0,0,0,0,0,0,.11.05.15,0,.25,0h2l.25,0,.26,0,.25,0,.25,0,.26,0,.25,0,.25,0h.66l.32,0h.33l.32,0,.33,0,.32,0,.33,0,.32,0,.32,0,.32,0,.33,0,.33-.05.32,0,.33,0,.32-.06h.17l.16,0h.56l0,0h0l0,0,0,0,0,0,0,0,0,0,0,0,0,0,0,.05v1.4l0,.24v.24l0,.24v.23l0,.23v.24l0,.24v.23l0,.24,0,.24-.06.3-.06.31-.07.32-.06.32-.05.31-.06.32-.06.32-.06.32,0,.08,0,.06,0,0,0,0,0,0,0,0,0,0h0l0,0,0,0-.07,0-.08,0H13.16l-.1,0-.09,0-.1,0-.08,0-.09,0,0-.09,0-.05v-.1l.12-.22.11-.22.06-.12.06-.11,0-.11,0-.12,0,0,0-.06v-.06l0-.06v-.59l0-.06v-.4l0-.15,0-.14v-.44l0-.08,0-.1,0-.12,0-.12v0l0-.05v-.32l0-.06v-.05l0-.06,0-.06L13,32.2l-.16-.09-.06,0-.05,0,0,0,0,0,0,0v-.68l0-.07,0-.06,0-.05,0,0,0,0,0,0h-.17l0,0-.05,0,0,0-.05,0,0,0,0,0-.09.08-.1.1-.08.1-.08.1-.15.17-.11.14-.05.09-.06.08-.08.09-.07.08L11,32.4l-.15.17-.07.08-.06.08,0,.05,0,0,0,0,0,0,0,.05,0,0,0,.05v.25l.06.17,0,.18.05.17,0,.18,0,.09v.18l0,.1v.37l0,.06,0,.07v.48l0,.06,0,.12,0,.14v.71l0,0v.09l0,0,0,.05,0,.07-.14.13-.19.2h-.19l-.24,0H9.76l-.14,0H9L9,37H8.92l0,0,0,0-.05,0,0,0,0,0,0,0,0,0v-.1l0-.11,0-.09,0-.09v-.08l0-.08,0-.07v-.27l0-.07v-.07l0-.08,0-.08,0-.1,0-.1,0-.1,0-.1,0-.08,0-.08,0-.08,0-.07v-.08l0-.07v-.27l0,0v0l0,0,0,0,0,0,0-.05,0,0,0,0,0-.11,0-.1,0-.08v-.4l0-.05,0-.07,0-.06,0-.07,0-.07.06-.08L8.92,33l0-.1,0-.08v-.27H9l0,0v0h0l0,0h0l0,0-.05,0-.06,0-.07,0-.07,0-.08,0,0,0,0-.05,0,0,0-.06,0-.06,0-.06,0-.08-.05-.07h0l-.06,0H7.73l-.06,0H7.61l-.06,0,0,0-.06,0-.06,0,0,0,0,0-.06,0,0,0,0,0,0,0-.1.09-.08.09-.08.09-.08.1-.06.1-.06.09v.79l0,.28v.14l0,.14v.27l0,.13,0,.13,0,.12,0,.12v.12l0,.06v0l0,.05v.09l0,0,0,.08,0,.08,0,.07.06.07.09.15.11.15,0,.08L7,36l0,.1,0,.1v.22l0,.06,0,.06,0,0,0,0,0,0,0,0,0,0,0,0h0l-.05,0H6.57l-.06,0H6l-.24,0H4.19l-.05,0,0,0,0,0,0,0,0,0v.28l0,0,0,0,.05,0,0,0,.06,0,.07,0,.06,0,.07,0H4.5l.09,0h1l.08,0h.08l.07,0,.07,0,.06,0,.06,0,.06,0,0,0,0,0,0,.05v.47l0,.11v.11l0,.11,0,.11,0,.1v0l0,.05,0,0,0,0,0,0,0,0,0,0,0,0,0,0,0,0,0,0,0,0H3.89l-.19,0H3.5l-.18,0-.19,0-.18,0-.18,0H2.23l0,0,0,0h0l0,0v0l0,0,0,0,0,.07,0,.08,0,.09,0,.11-.06,0,0,.05,0,0,0,0v0l0,0v.14l0,0h0l0,0h.53l.11,0,.11,0,.1,0H3.79l.18,0h.71l.29,0h.34l.24,0,.19,0,.13,0,.1,0,.08,0h.06l.06,0,.07,0h.49l.24,0,.26,0H7.6l.13,0h.06l.06,0h.06l.06,0,.06,0,.06,0,.06,0,.06,0v.15l0,0,0,0h0l0,0H8l-.06,0-.15,0H7.69l-.08.06L7.54,41,7.47,41l-.07.07-.06.06-.06.07,0,.07-.06.08,0,.07,0,.08L7,41.59l0,.09-.09.16-.1.17v.65l0,.09,0,.08,0,.1,0,.09,0,.08,0,.09,0,.09,0,.09,0,.09V44l0,.26v.26l0,.26,0,.27,0,.27,0,.26-.05.14,0,.15L7.07,46,7,46.15l0,.14,0,.15,0,.14,0,.15v.21l0,.11v.54l0,0,0,0,0,0,0,0h0l0,0H6.58l-.09,0H6.18l-.21,0-.21,0H5.41l-.12,0-.14,0-.12,0-.13,0-.12,0H3.41l-.05,0,0,0-.06,0,0,0-.05,0,0,0-.05,0,0,0,0,0,0,0,0,.05,0,0,0,0,0,.05,0,0,0,0,0,0v.26l0,0,0,0,0,0,0,0,.05,0,0,0L3,49l.07,0,.08,0h.24l.12,0h.12l.24,0,.24,0,.24-.05.24,0,.12,0h.38l.22,0,.21,0,.23,0H6l.22,0,.23,0,.22,0,.23,0,.22,0H7.3l.23,0,.22,0,.22,0h.46l.23,0,.22,0,.21,0,.1,0,.1,0H10l.11,0,.11,0,.12,0h5.87l.09,0h2.83l.11,0,.11,0,.12,0,.1,0h1.93l.38,0h3.87l.13,0,.15,0h.14l.14,0h1.2l.29,0,.29,0h3l.31,0h.3L32,49h.61l.3,0,.14,0,.16,0h.44l0,0,0,0v-.2l0,0,0-.05-.08,0-.08,0-.09,0-.07,0-.18,0-.17,0-.17,0-.18,0-.17,0-.18,0-.18,0h-.17l-.18,0h-.18l-.17,0H31.2l-.16,0-.18,0h-4.2l-.28,0H26l-.35,0h-.85l-.07,0h-.1v0l0,0h0v0l0,0,0,0,0,0,0,0,.06,0,0,0H25l.14,0,.15,0H30l.2,0h.45l.05,0,.05,0h0l.05,0-.16-.09-.1-.06-.05,0,0,0-.05,0-.07-.05v0l0,0v-.42l0-.07v-.07l0-.06.05-.15,0-.14.06-.13.06-.14.08-.13.06-.13.06-.11.07-.11.06-.09.06-.08.08-.14.09-.17.09-.17.09-.17,0-.09,0-.09,0-.09,0-.08,0-.1v-.25L31.54,44l-.05-.13,0-.13-.05-.11,0-.12,0-.12,0-.12,0-.12,0-.12v-.61l0-.14,0-.13V42l0-.05,0-.09,0-.09-.07-.2-.08-.18v-.09l0,0V41l0,0,0,0,0,0,0,0,0,0,0,0h2.59l.05,0,0,0,0,0V41l-.09.13-.1.13-.09.13-.08.14-.09.14-.08.14-.08.13-.08.15-.15.29-.15.29-.16.28-.16.28,0,.09,0,.08,0,.08,0,.07v.33l0,.07,0,.06,0,.06,0,.08,0,.08.06.09v.11l0,.06v.11l0,0,0,.05,0,0-.1.21-.1.2-.05.1,0,.11v.05l0,0v.33l0,.06,0,.06,0,.07,0,0,0,.06.06,0,.06.07,0,.06.05.06,0,.06,0,.07,0,.07,0,.07,0,.08,0,.08,0,.08,0,.08v.27l0,0,0,0,0,0,0,0,0,0,0,0,0,0h0l-.07,0-.06,0-.07,0h-.06l-.14,0-.15,0h-.08l-.07,0-.07,0-.07,0v.1h.83l.07,0,0,0,.06,0L33,48l.06,0,.06.06.07.06.08,0,.07.06h.24l.08,0,.08,0,.09,0,.08,0,.09,0,.08,0,.08,0,.08,0,.07-.05.07,0,.06-.06.07-.06.05,0v-.13l0,0v0l0,0,0,0-.08-.09-.07-.07,0-.08,0-.07,0-.07,0-.06v-.29l.16-.26.15-.28.07-.13.08-.14.07-.14.07-.14.06-.14.06-.15,0-.07,0-.07,0-.07,0-.07,0-.08,0-.07v-.15l0-.08v-.23l0-.13L35,44.22l0-.12L34.9,44l.06-.16,0-.13,0-.06v-.1l0-.06V43.2l0-.06,0-.06L35,43l0,0,0,0,0,0,0,0,0,0,0,0,0,0,0,0v-.26l0-.07,0-.07,0-.07,0-.07L35,42l.1-.18,0-.08v-.41l0,0v0l0,0,0,0,0,0,0,0h0l0,0-.13,0-.12,0h0l0,0,0,0,0,0,0,0v-.1h.73l.15,0,.15,0,.15,0,.1.06.08.05.08,0,.06,0,.07,0h.28l.06,0,.07,0,.16-.08.19-.09.19,0,.22,0h.84l.11,0h.05l.06,0h0l.06,0h.05l0,0,0,0,0,0,0,0v.09l0,.07,0,.06,0,.07,0,.06,0,.07,0,.07-.07.12-.09.12-.08.12-.07.1-.1.23-.11.22-.1.23-.11.22-.1.23-.1.23-.11.23-.1.22V44l0,.1,0,.12,0,.11,0,.11v.24l-.1.28-.08.21,0,.09,0,.08,0,.08v.21l0,.09,0,.09,0,.09,0,.11,0,.12.06.14v1l0,.05-.05,0,0,0,0,0-.05,0,0,0h-.05l0,0-.1,0-.11,0-.11,0-.12,0v.08l.09,0,.1,0,.09,0,.09,0h.09l.1,0h.21l.08.08.08.08.07.07.07.08.05.07,0,.06.06,0,0,0,0,0,0,0,0,0h.27l0,0,.05,0h.06l.07,0,0,0,.07,0,.07-.07,0-.06,0-.07,0,0,.05-.1.06-.07,0,0,0,0,0,0,0,0,.05,0,.06,0h2.16l.09,0h.09l.09,0,.09,0,.08,0,.07,0,.08,0,.07,0,.06,0L42,48l.08.11.07.09.06.08,0,0,0,0,0,0,0,0,0,0h.26l0,0,0,0,0,0,.09-.06.09-.07.1-.08.11-.09h.12l0,0h.36l.09,0h.1l.09,0,.09,0,.09,0,.1,0,.18.06.18,0h.91l.1,0h.09l0,0h.05l0,0,0,0,0,0,0,0,0,0,0,0,0,.14,0,.13,0,.06v.06l0,.06L46,49l0,.06,0,0,0,.06,0,0,0,0,.05.05,0,.06.05,0h.13l.06,0,0,0,0,0,0,0,0,0,0,0,0,0v0l0,0v-.6l0,0,0,0,0,0,0,0,0,0,0,0,.05,0h1.82l.12,0,.18,0h.57l.05,0h.08l0,0,0,0,0,0,0,0v-.19l0-.05-.08,0-.08,0-.07,0-.09,0-.08,0-.09,0h-.08l-.09,0H49.1l-.09,0h-.08l-.19,0H48l-.17,0h-.35l-.08,0-.08,0-.08,0-.08,0,0,0,0,0,0,0,0,0v-.36l0-.1,0-.1,0-.09,0-.1,0-.09,0-.1.08-.16.06-.14.09-.19.1-.2.09-.21.1-.22.09-.22.09-.22.09-.23.08-.23.08-.23.07-.23,0-.12,0-.12,0-.11,0-.12,0-.11,0-.11V43.2l0-.11V43l0-.11v-.21l0-.07,0-.05,0-.06,0-.07h0l0,0,0,0,0,0,0,0,0,0,0,0,0,0,0,0v0l0,0v0l0,0v-.39l0-.08,0-.08,0-.08,0,0v0l0,0,0,0h.22l.11,0,.1,0,.11,0,.11,0h.25l.11,0,.1,0,.1,0,.1,0h.4l.2,0h.2l.11,0h.1l.11,0,.11,0V41l0,0,0,0,0,0,0,0-.07-.08-.1-.12V40.5l0-.14v-.15l0-.16,0-.16,0-.17,0-.16,0-.08,0-.08,0-.07,0-.08,0-.07,0-.07,0-.07,0-.07,0-.06,0,0,0-.06,0,0,0,0,.05,0,0,0,0,0,.12,0h.13l.12,0,.13,0v-.09ZM40.4,29.35v-.09l0-.05v0l0-.05,0-.05,0-.05,0-.06,0-.05.05-.05,0-.05.1-.11.1-.1.12-.1.1-.1.12-.09.11-.08.11-.07.1-.06,0,0,.05,0,0,0h0v.08l0,0v0l-.05.1,0,.1-.06.11-.07.1-.07.11-.07.11-.09.11-.08.09-.08.1-.08.09-.09.08-.07.07-.08.07-.07,0h-.18l0,0,0,0,0,0,0,0ZM36.13,29l.11-.13.12-.12.13-.13.12-.12.13-.11.13-.12.12-.12.27-.23.27-.22.26-.21.27-.22.2-.18.19-.17.2-.18.19-.17.2-.17.2-.18.19-.17.2-.17.2-.16.2-.17.2-.16.21-.17.2-.16.21-.16.2-.16.21-.16h.19v.19l-.23.28-.24.28-.24.28-.24.27-.24.28-.25.27-.24.28L39.5,27l-.25.28-.23.28-.23.29-.24.28-.23.29-.22.29-.22.3-.21.31-.05,0,0,0,0,0-.06,0h-.06l-.09,0-.11,0-.15,0h-.72l-.08,0H36.2l0,0h0l0,0,0,0,0,0,0,0v0l0,0v-.07Zm-2.68.15v-.06l0-.06,0-.05,0-.06,0,0,0,0,0,0,0-.05,0,0,.05,0,.11-.09.12-.09.16-.16.15-.15.16-.16.16-.15.15-.16.16-.15.16-.14.16-.16.15-.15.17-.14.16-.15.16-.14.16-.15.17-.14.16-.15.17-.14.13-.16.14-.17.08-.09.09-.09.09-.09.08-.08.1-.09.09-.07.1-.07.09-.07.05,0,0,0,.05,0,0,0,0,0h.14v.06l0,0,0,.05-.06.1-.08.1-.09.11-.1.12-.12.12-.11.13-.23.25-.22.23-.19.19-.13.15-.12.14-.13.15-.12.15-.12.15-.12.15-.12.14-.11.16-.13.14-.09.14-.1.14-.09.14-.1.14-.11.11-.1.14,0,.05-.06.06,0,.06-.07,0,0,.05-.06.06-.06,0-.07.05-.06,0-.07,0-.06,0-.07,0-.08,0-.07,0-.07,0-.08,0-.09,0-.07,0h-.17l0,0,0,0,0,0,0,0v-.16Zm-2.33-.26.08-.08.09-.09.08-.08.09-.08.09-.09.1-.07.1-.08.2-.15.2-.13.21-.14.19-.12V28l0,0,0,.05,0,0-.05.1-.07.11-.07.11-.07.11-.08.11L32,28.8l-.08.1-.08.09-.08.09-.07.07-.07.06-.07.05H31.2l0,0,0,0,0,0h0V29Zm-1.95.1,0,0H29V28.9h.17V29Zm.67-3.48-.13.13-.14.16L29.4,26l-.17.18-.1.09-.09.08-.09.08-.09.07-.09.07-.08.06-.05,0,0,0h0l0,0,0-.09,0-.1.05-.11.06-.12.08-.11.08-.12.08-.13.09-.11,0-.07.05-.05,0-.05,0-.06.05,0,.05,0,.05,0,.05,0,0,0,.05,0,.05,0,.05,0,0,0h.15v0h0v.25ZM31.6,22.8l.18-.23.18-.24.19-.24.09-.12.1-.12.1-.11.1-.1.1-.11.1-.09.11-.09.1-.08H33l.06,0,.07,0h.72l.14,0h.69l.14,0H35l.07,0h.48l0,0,.08,0,.08.06v.26l-.19.19-.19.18-.2.18-.19.18-.19.18-.2.17-.2.17-.2.17-.19.19-.18.19-.09.1-.09.08-.09.08-.09.09-.09.08-.09.08-.1.08L33,24l-.11.07-.1.07-.11.07-.13.06,0-.05v0l0-.05v-.05l.06-.1,0-.09.06-.1.07-.09L33,23.6l.07-.09.09-.09.08-.09.07-.09.09-.09.15-.17.15-.15.13-.15.13-.15.06-.08.06-.07.06-.08,0-.07,0,0v0l0,0v-.28l0,0,0-.05v0l0,0,0-.05,0-.05h-.24l0,0,0,0,0,0-.07,0-.39.39-.36.35-.31.3-.27.27-.24.23-.2.19-.17.17-.15.14-.12.12-.1.09-.07.09-.07.06-.06.05,0,0,0,0,0,0-.09.07-.09.06,0,0-.05,0,0,0,0,0h0l0,0h-.29v-.19l0-.06V24.3l0-.05,0-.06,0-.05,0-.05,0-.06,0-.06.08-.1.07-.12.09-.1.09-.11.1-.09.09-.1.18-.19.16-.14ZM30,22.59l.25-.25.26-.26.24-.26.26-.25.26-.26h.19v.2l-.14.17-.15.17L31,22l-.15.17-.14.17-.15.18-.16.17-.14.17-.15.17L30,23.2l-.14.18-.15.17-.14.17-.15.18-.15.17-.14.17-.1.09-.1.09-.1.08-.1.08-.05,0-.05,0-.05,0-.06,0-.06,0-.06,0h-.13v0l0,0v-.16l0,0,0,0,0,0,0-.06,0,0,0-.05.09-.11.09-.11.09-.11.1-.1.11-.1.09-.09.18-.16.13-.11.25-.27.25-.26Zm-2.6,1.16v-.13l0-.06.07-.13.09-.17.11-.19.12-.21.14-.22.15-.23.08-.12.07-.1.09-.12.08-.12.09-.1.07-.1.09-.1.09-.09.09-.08L29,21.4l.09-.07.09-.06.08-.05.09,0,.09,0h.17l.08,0,.09,0,.08.05v.2l-.18.19-.18.2-.17.19-.18.19-.17.2-.18.19-.18.19-.17.2-.13.1-.11.12-.11.11-.13.12-.06.06-.07,0-.07.05-.07,0-.06.06-.07,0-.06,0-.08,0Zm-1.21,3.57v-.05l0-.06,0-.05V27.1l0-.05,0-.06,0-.06.07-.11.08-.12.08-.12.09-.11.19-.23.18-.21.17-.2.14-.17,0,0,0,0h.2v.17l0,0,0,.05,0,.06,0,0-.07.12-.09.12-.09.13-.11.13L27,26.6l-.1.13-.1.11L26.7,27l-.1.1-.09.09-.08.09-.07.06,0,0h0l0,0h0ZM17.36,38.77v-.43l0-.06,0-.06v0l0,0,0,0,0,0,0,0,0,0,0,0,0,0h.05l.06,0h.11l.12,0h.55l.15,0,.14,0L19,38H19l.06,0,.07,0,.07,0,.06,0,.06,0,.06,0,.06,0,.06,0,.05,0,.05,0,.05,0v.33l0,.1v.1l0,.1,0,.11,0,.09,0,.1,0,.1,0,.08,0,.08,0,.07,0,0,0,0,0,0,0,0H17.93l-.17,0-.13,0,0,0h0l0,0,0,0,0,0,0,0v-.09l0-.14,0-.17v-.3ZM9.86,23.38l.15-.21.16-.2.15-.21.16-.2.15-.2.17-.2L11,22l.12,0,.15,0,.08,0,.08,0h.35l0,0h0l0,0,0,0v0l0,0v.17l-.15.17-.16.17-.16.17-.17.16-.17.17-.17.15-.17.16-.18.15-.22.26L10.1,24l-.22.26-.23.26-.22.26L9.21,25,9,25.29l-.22.27-.21.2-.12.11,0,.05,0,0-.05,0,0,0v-.24l0,0,0-.06,0,0,.05-.1,0-.09,0-.09,0-.08.15-.21.15-.21L9,24.64l.15-.21.14-.21L9.4,24l.15-.21.15-.2ZM7.17,25.14l0-.11,0-.1,0-.11,0-.1.06-.1.06-.1.06-.1.13-.18.14-.19.13-.18.13-.18.15-.18.14-.18.15-.18L8.64,23l.15-.18.15-.18.14-.18.16-.18,0,0,.05,0h.32v.26l-.12.17-.14.18L9.27,23l-.14.19L9,23.38l-.15.2-.16.19L8.5,24l-.16.19-.17.18L8,24.52l-.17.17-.09.08-.09.08-.09.07L7.49,25l-.09.07-.09.07-.08.06-.09.06Zm8.19,3.55,0,.12,0,.13v0l0,.06v.05l0,0,0,0-.06,0-.05,0,0,0-.06,0-.06,0,0,0-.06,0-.11,0-.11,0-.12,0h-.12l-.23,0h-.24l-.23,0-.24,0H11.24l-.2,0H7.69l-.24,0H7l-.08,0-.06,0,0,0-.06,0,0,0,0,0,0,0,0,0-.08-.06-.08-.07-.09-.08-.1-.1-.07,0L6,29H5.63L5.5,29H5.32l-.05,0h-.1v-.2l0,0v0l0,0,0-.08,0-.08.06-.07.06-.08.07-.07.06-.07.07-.07L5.75,28l.13-.12L6,27.79h.26l0,0,0,0,0,0,0,0,0,0,.05.08.06.1.06,0,.05,0,.06,0h.09l.06,0h.23l0,0h.09l0,0,0,0,.08-.05.08-.06L7.5,28l.08-.07.16-.16.17-.15L8,27.49l.08-.1,0-.05,0-.05,0,0,0-.05,0,0,0,0,0,0h.05l0,0h.18l.07.07.05.06,0,.06,0,0,.06,0,0,0,0,0,0,0h.22l.15,0,.2,0h0l0,0V28l0,.07v.1l0,0,0,0,0,0,0,0,0,0,0,0,0,0,0,0,0,0,.05,0h.05l.07,0h.05l.11,0,.09,0,.1-.05.09-.06.09-.06.09-.06.09-.07.09-.08L11,28l.08-.07.08-.09.09-.08.15-.19.16-.18.15-.2.17-.19.15-.19.17-.18.08-.09.08-.09.09-.08.08-.09.09-.08.09-.08.1-.07L12.9,26h.18l.08.13.08.12,0,.06.05,0,0,.05.05.05h0l0,0h0l0,0h.29l0,0h0l0,0,0-.06,0-.06,0-.05,0-.05v-.32l0-.11v-.23l0-.12,0-.11,0-.11,0-.11,0-.11v-.32l0,0,0,0,0,0,0,0,0,0,0,0h-.3l-.06,0-.07,0-.08,0-.1.07-.09.07-.1.08-.09.07-.26.24-.22.22-.18.19-.17.17-.25.26-.18.18-.07.06-.07.06,0,0,0,0h-.25v-.15l0-.08,0-.09,0-.1,0-.09.05-.1.06-.1.12-.2.11-.19L12,25l.09-.14.06-.07.09-.11.1-.12.11-.14.12-.16.12-.16.06-.09.06-.08.05-.09,0-.08.06-.08,0-.09,0-.08,0-.08,0-.07,0-.07v-.24l0,0,0,0,0,0-.07,0-.07,0h-.09L12.6,23l-.13.11-.12.11-.12.12-.12.11-.11.12-.12.13-.12.12h-.12l.07-.12.07-.12.06-.11.07-.12.14-.22.14-.22.06-.11.06-.11,0-.11.05-.12,0-.06,0-.06,0-.07v-.06l0-.07V22l0-.08,0,0,.05,0,.05,0,.15,0,.16,0,.16,0,.15,0h2l.07,0,0,0h.06v0h0v.21l-.08.2-.08.2-.06.19-.07.18,0,.1,0,.09,0,.11,0,.09v.1l0,.11,0,.1,0,.11,0,.05,0,.05,0,.05,0,0,0,0,0,0,0,0,0,0-.06.07L14.7,24l0,0,0,0,0,0,0,0,0,.12,0,.1v.5l0,0v.05l0,0,0,0,0,0,0,0,0,0,0,0,0,0,0,0,0,0,0,0,0,0,0,0,0,0,.05,0,0,0,.05,0,0,.05,0,0v.15l-.06.12L15,26l0,.11,0,.09,0,0v.33l0,.07,0,.08,0,.08.09.19.1.23,0,.11,0,.11,0,.11,0,.12v.12l0,.14v.76ZM13.71,39.3v-.12l0-.16.05-.17.06-.18.07-.17,0-.09,0-.08,0-.08.05-.08,0-.07,0-.06,0,0,0,0,0,0,0,0h.42l.09,0H15L15,38h.06l.06,0,.06,0,0,0,.05,0,0,0,0,0,0,0,0,0,0,0,0,.06v.34l0,.08v.09l0,.1,0,.1,0,.11,0,.1,0,.13,0,.13,0,0,0,0h0l0,0h0l0,0H14l-.12-.06-.08,0,0,0,0,0h0v0l0,0V39.3Zm-3.54,0,.05-.16,0-.15.06-.15,0-.15.05-.15.05-.14,0-.15,0,0,0,0,0,0,0,0,0,0,0,0H11l0,0,.05,0,.06,0,0,0,.06.05.05,0,.08.05.06,0,.09,0h.12l0,0,.05,0,.11-.07.1-.08,0,0,.05,0,0,0h.27l0,0h0v.22l-.08.06-.07.06-.07.06-.05.06,0,.06,0,.07,0,.07,0,.06L12,39l-.06.15,0,.08,0,.08,0,.1,0,.09,0,0,0,0,0,0,0,0h0l0,0h-.09l-.09,0h-1.1l0,0,0,0,0,0,0,0,0,0,0-.07Zm-2,0-.06,0-.05,0H8l-.16,0-.15,0H7.62l-.08,0-.07,0-.07,0h0l0,0h0l0,0,0,0v0l0,0v-.23l0,0,0,0,.1-.09.1-.09.1-.09.11-.09.1-.09.1-.09.1-.08.11-.07.05,0,0,0,.05,0,.06,0,.06,0h.06l.06,0h.46l.07,0,.08,0,0,.06,0,0,0,.05v.17l0,.05v0l0,.06,0,.06,0,0,0,.06,0,0,0,0,0,.05-.05,0-.05.05,0,0-.05,0,0,.05-.06,0-.05,0-.06,0-.05,0-.06,0,0,0-.06,0Zm12.64,1.53,0,.06,0,.06,0,.06,0,.06,0,.06,0,.06-.06.06-.06.06-.06.07-.06.06-.07.06-.14.13-.15.13-.16.13-.15.14-.15.13-.14.13-.07.06-.06.07-.06.06-.05.06-.06.06,0,.07,0,.06,0,.06v.9l.05.12.06.11.07.12.07.11.07.11.08.11.08.11.08.12.07.06.07,0,.08,0,.05.05.05,0,.06.05,0,0,0,0,0,.05,0,0,0,0,0,0,0,.05,0,0v1.18l0,.1,0,.09,0,.09,0,.08,0,.07v.42l0,0v0l-.05.07-.05.07-.07.07-.07.08H18.83l-.37,0-.44,0-.52,0-.61,0-.71,0-.8,0-.1,0h-.11l-.1,0-.1,0-.1,0h-.21l-.1,0-.13,0-.13,0h-.13l-.14,0H7.84l-.1,0-.07,0H7.56l0,0h0v-.16l.14-.11.14-.12.06-.06,0,0,.05-.07,0-.06,0,0,0,0v-.43l0-.05,0,0,0-.05v-.22l0-.06v-.07l0-.07,0-.06,0-.06,0-.07,0-.06,0-.06,0-.07.08-.12.08-.12.18-.23.18-.23.08-.12.08-.12,0-.06,0-.06,0-.06,0-.06v-.25l0-.11L9,44l0-.1,0-.1v-.25L9,43.36,9,43.23v-.06l0-.05v-.23l0-.06,0,0v-.07l0-.07,0-.09v-.19l0-.06v0l0-.06v0l0,0,0-.09.05-.1,0,0,0,0,0-.06,0-.06v-.21l0-.15,0-.14,0-.15,0-.15v-.24l0,0,0,0,0,0,0,0H19.66l.12,0,.1,0h.85l.05,0,0,0,0,0,0,0Zm4.48-1.24v-.12l0-.11,0-.12,0-.11,0-.12,0-.05,0-.06,0-.05,0,0,0-.05,0-.06,0,0,0-.05,0,0,0,0,0,0,0,0,0,0,0,0,.05,0,.05,0,0,0,.06,0h0l.06,0h2.55l.06,0,.05,0h.07v0h0v.2l-.14.17-.12.16-.06.07,0,.07,0,.06,0,.07,0,.06,0,.08,0,.07,0,.09,0,.08v.1l0,.1v.14h-.18l-.05,0-.05,0-.06,0-.05,0H25.41l0,0,0,0,0,0Zm-4,.17-.06,0v-.38l0-.1v-.09l0-.09,0-.09,0-.08,0-.09,0-.08.05-.08,0,0,0,0,0,0,0,0,0,0,0,0,0,0,0,0,.1,0,.11,0,.14,0,.14,0,.14,0h.17l.17,0h.86l.07,0h.06l.06,0,0,0,.05,0,.05,0,.05,0v.44l0,.23,0,.2,0,.1v.07l0,.08,0,.06v.06l0,0,0,.05,0,0,0,0,0,0,0,0,0,0,0,0-.05,0h-1.2l-.14,0-.13,0-.13,0-.13,0-.14,0-.12,0h-.06l-.06,0Zm8,1.25,0,0,0,0,0,0-.06,0-.07,0,0,0-.06.05-.06,0-.05,0-.05.06,0,0,0,.06,0,.06,0,.06,0,.06,0,.07,0,.07,0,.06,0,.06,0,.07,0,.07,0,.07,0,.08,0,.07,0,.07v.07l0,.07v.16l0,.15v.31l0,.1v.09l0,.09v.09l0,.19v.19l0,.18v.28l0,.1,0,.1,0,.1v.2l0,.11,0,.1,0,.09,0,.1,0,.1,0,.1.05.1,0,.1,0,.1,0,.11,0,0,0,.05v0l0,.06v.24l0,.15,0,.12V47l0,.05,0,.06,0,.07,0,.08,0,.07v.13l0,0,0,0,0,0,0,0,0,0,0,0h0l0,0-.07,0-.08,0h-6l-.23,0-.18,0-.12,0h-.1l-.06,0H21.5l0,0h0v-.32l0-.07,0-.07,0-.07,0-.06.09-.13.1-.12.05-.07,0-.06,0-.07,0-.08,0-.1,0-.09V45.9l0,0,0,0,0,0-.05,0-.06,0-.14-.08-.16-.1,0,0v-.83l0-.07,0-.06v0l0-.06v-.35l0-.08,0-.07.07-.15.09-.16,0-.09,0-.11,0-.11,0-.12V43l0-.06v-.11l0-.1,0-.11,0-.1V42.3l.07-.11.07-.12.07-.12.07-.11,0-.16,0-.14v-.06l0-.07,0-.06,0-.06,0,0,0-.05,0,0,0,0,0,0,0-.05,0,0,0,0,0,0,0,0,0,0,0,0,0,0,0,0,0,0,.05,0,.05,0h.06l.06,0h.06l.13,0,.13,0h5.17l.11,0h.12l.16,0h.15l.09,0,.07,0,.07,0,.07,0h0l0,0h0l0,0v0l0,0v0l0,0Zm3.16-2.33v.12l0,0v0l0,.09,0,.09-.06.1,0,.09-.06.09,0,.09-.05.08,0,.08v.48h0l0,0,0,0h0l-.09,0H30.45l-.09,0,0,0-.06,0L30.2,40v-.19l0-.08,0-.07,0-.08,0-.07v-.17l0-.12,0-.11v-.43l0,0,0,0,0,0,0,0v0l0,0,0,0,0,0,0,0,0,0,.09,0,.09,0,.12,0,.12,0H32.2l0,0,0,0,0,0,0,0,0,0,0,0,0,0v.11Zm3.82.2V39l0,.06,0,.07,0,.06,0,.07,0,.07,0,.06,0,.06,0,.07,0,.06,0,.06,0,.06,0,0,0,.05,0,0,0,0,0,0,0,0,0,0,0,0,0,0-.22,0-.21,0h-.65l-.21,0-.22,0-.22,0-.17,0-.15,0h0l0,0h0l0,0,0,0,0,0,0,0,0,0,0-.07,0-.07,0-.05,0,0,0,0,0,0,0,0,.05,0,0,0,0,0,.05,0h.06l.06,0H34l0,0,0,0,0,0,0,0,.05-.06,0-.07.08-.14.07-.13,0-.07,0-.06,0-.07,0-.06,0,0,0,0,0,0,0,0,0,0,0,0,0,0,0,0h.81l.17,0,.23,0,0,0,0,0,0,0,0,0,0,0v.2Zm2.37,1.75h-.09l-.09,0H37.29l-.08,0,0,0,0,0,0,0v-.29l0-.06V40l0-.05,0-.12,0-.13.06-.12.07-.12.07-.12.07-.11.07-.09L37.7,39l.07-.07,0-.06.12-.05.12,0,.12-.05.13-.06.12-.05.12-.06.12-.06.12-.07h.94l.1,0,.09,0,.09,0,.09,0,.07,0,.08,0v.18l0,.07-.05.07,0,.07,0,.08,0,.07,0,.08,0,.08,0,.08,0,.08,0,.08,0,.09,0,.08,0,.08v.09l0,.08v.08l0,.11,0,.11v.25l-.07,0-.07,0-.08,0h-1Zm4.4.7v.07l0,0v0l0,0,0,.09-.06.11-.07.12-.09.12-.11.24-.12.24-.12.24-.11.23-.11.25-.13.23-.11.24-.11.24v.72l-.14.37-.1.29,0,.12,0,.12v.31l0,0v.05l0,0v0l0,.06,0,.05,0,.06,0,.06,0,.07,0,.06.1.15.11.17,0,.07v.08l0,.06v.32l0,0v0l0,0v0h0l0,0h-.06l0,0h0l-.08,0-.1,0-.09,0-.11,0-.11,0-.13,0H39.48l-.06,0-.06,0h-.42l0,0h0v0h0l0,0v-.08l0,0v-.12l0-.09,0-.08,0-.09,0-.08,0-.09,0-.09,0-.07,0-.09.13-.21.12-.19.07-.1.06-.09,0-.1.06-.1,0-.1,0-.09,0-.1,0-.11v-.43l-.1-.15-.09-.12,0-.06,0-.05,0,0,0,0V44l0-.08,0-.09v-.37l0-.11v-.11l0-.12v-.23l.12-.26.09-.22,0-.11,0-.09v-.46l0,0v0l0,0,0-.05,0-.06,0-.05-.08-.12-.07-.12v-.14l0,0v0l0,0,0,0,0,0h2.79l.14,0,.13,0,.1,0,.1,0,0,0,0,0h0l0,0,0,0v0l0,0v.11Zm.26-2.06-.07.15-.06.14-.07.14,0,.13,0,.11,0,.13,0,.11,0,.05,0,.06,0,0,0,0,0,.06,0,0,0,.05,0,.06h-.6l-.3,0h-.39l-.06,0,0,0,0,0,0-.05,0-.06v-.29l0-.08,0-.08,0-.09,0-.09,0-.08,0-.09,0-.09.05-.09,0-.09.06-.09,0-.08.11-.17.11-.16L42,38.7l.08-.12.09-.11.07-.07.06,0,.07,0,.06,0h1l.06,0,0,0,0,0,0,.05,0,0v.07l0,.08v.07l0,.07-.05.15-.07.14Zm3.41,6.47v.07l0,.06,0,.07,0,.07-.05.13,0,.13-.06.12,0,.11-.06.21,0,.2,0,.09,0,.08,0,.07,0,.08,0,0,0,0,0,0,0,0,0,0,0,0,0,0,0,0,0,0,0,0-.05,0,0,0h-.15l-.06,0H44.1l-.15,0-.15,0h-.07l-.07,0-.06,0h-.06l-.06,0,0,0,0,0-.05,0V47l0-.09,0-.09,0-.08,0-.09,0-.11v-.24l0-.11,0-.11,0-.1,0-.11,0-.05v-.18l.09-.24.09-.25,0-.11,0-.11,0-.12,0-.11,0-.11,0-.12,0-.11,0-.12v-.51l-.05-.11,0-.1,0-.1,0-.07,0-.07V43l0-.07,0-.06.06-.17.08-.23V42.1l0-.09v-.08l0-.09,0-.09,0-.09,0-.08,0-.09,0-.08,0-.08,0-.08,0-.07,0-.07h.2l.06,0h.1l0,0,0,0,0,0V40.9l-.06,0-.07,0-.08,0-.09,0-.08,0-.08,0-.08,0-.07,0V40.4l0,0,0,0,.06,0,.07,0,.07,0,.06-.05.05,0,0,0,.1-.23.08-.2,0-.09,0-.09,0-.08,0-.09,0-.08,0-.09,0-.09v-.55l0,0,0,0h0l0,0,0,0h.55l.14,0,.14,0,.15,0,.14,0,.12,0,.12,0,.1,0,.08,0,0,0v.18l0,.06,0,.06,0,.06,0,0,0,.06-.07.11-.07.12-.06.11-.07.11-.07.22L46,39.9l-.05.17,0,.15,0,.13,0,.1,0,.09,0,.07-.07.06-.07,0-.07,0-.06,0-.07,0-.08,0-.08,0-.08,0V41l0,0,0,0,0,0h0l.08,0,.09,0h.09l.09,0h.47l.08,0h0l0,0h0l0,0h0l0,0,0,0,0,0v.27l-.18.3-.16.26-.07.13-.06.12,0,.06,0,.06,0,.06,0,.06v.5l0,.07v.15l0,.07,0,.08,0,.09,0,.09,0,.09V44l0,.16v.69l0,0v0l0,0V45l0,0,0,0,0,0,0,0,0,0,0,0,.05,0,0,.05.06,0,.06,0,.07,0,.08.05v0l0,0v.17Zm3.07-7v.13l0,0v0l0,0,0,0,0,0-.05,0-.1,0-.11.05-.06,0-.05,0,0,0,0,0-.11.19-.09.18-.09.18-.09.18-.08.19-.08.18-.08.19-.09.2-.06.05-.07,0-.07,0,0,0h-.28l-.11,0-.09,0-.11,0-.11,0-.1,0-.11,0-.1,0-.1,0,0,0v-.25l0,0v0l0,0,0-.05.05,0,.11-.11.12-.09.06-.06.06,0,0-.05,0,0,.18-.43.13-.32L48,39l0-.07,0,0,0-.05,0,0,0,0,0,0,0,0,0,0,0,0,.05,0h0l.06,0h1l.11,0,.09,0,0,0,0,0,.05,0,0,0Z"/><path class="cls-1" d="M9.57,61.53H8.11l-.57-5.22L5.18,61.53H4.25L1.93,56.37l-.57,5.16H.05l1.06-7.92H2.2l2.63,5.84,2.62-5.84H8.53Z"/><path class="cls-1" d="M16.27,59.61c0,.68,0,.82.16,1a.74.74,0,0,0,.58.15l-.18.87a2.32,2.32,0,0,1-.89,0,1,1,0,0,1-.95-.78,2.43,2.43,0,0,1-2,.82,1.89,1.89,0,0,1-1.58-.85,2.83,2.83,0,0,1-.25-1.45V55.81h1.42v3.44c0,.87.31,1.25,1,1.25a1.54,1.54,0,0,0,1.18-.62V55.81h1.42Z"/><path class="cls-1" d="M49.78,56.31A4.76,4.76,0,0,1,52,55.7a2.25,2.25,0,0,1,1.75.66,2.44,2.44,0,0,1,.38,1.54v1.67c0,.69,0,.83.17,1s.27.17.59.15l-.19.9a2.43,2.43,0,0,1-.91,0,.94.94,0,0,1-.92-.64,2.58,2.58,0,0,1-1.79.68,1.78,1.78,0,0,1-1.19-.49,1.82,1.82,0,0,1,.54-2.75A7.19,7.19,0,0,1,52.69,58a1.78,1.78,0,0,0-.06-.54c-.08-.42-.51-.63-1.1-.6a4.27,4.27,0,0,0-1.75.59Zm2.91,2.42c-1.29.18-1.86.53-1.86,1.18a.74.74,0,0,0,.82.8,2,2,0,0,0,1-.4Z"/></g></g></svg>