<svg xmlns="http://www.w3.org/2000/svg" viewBox="0 0 190.37 24.86"><defs><style>.cls-1{fill:#0084a9;}</style></defs><title>ppowered by  APSIS Azul</title><g id="Layer_2" data-name="Layer 2"><g id="Layer_1-2" data-name="Layer 1"><path class="cls-1" d="M113.46,23.18h-2.59l-2.06-15.8-2.07,15.8h-2.59L107.63.23h1.28c1,0,1.15.62,1.24,1.25l3.31,21.7"/><path class="cls-1" d="M129.66.23a3,3,0,0,1,3,2.88V9.05c0,2.23-1.08,3.84-3.34,3.84h-1.41V23.18h-1.68c-.55,0-.65-.33-.65-.49V.23h4.1m.72,3.31a1.25,1.25,0,0,0-1.25-1.11h-1.24v8.26h1.24a1.25,1.25,0,0,0,1.25-1.12Z"/><path class="cls-1" d="M150.28,6V3.34a1.25,1.25,0,1,0-2.49,0v2.2a7.69,7.69,0,0,0,1,3.08l2.82,5.31a7.34,7.34,0,0,1,1,3.64v2.92a2.93,2.93,0,0,1-2.95,2.92h-1.47a3,3,0,0,1-2.86-2.92V18.13a1.36,1.36,0,0,1,.66-1.28c.2-.06,1.15-.49,1.74-.75v4A1.23,1.23,0,0,0,149,21.34a1.25,1.25,0,0,0,1.25-1.28V17.44a7.92,7.92,0,0,0-1-3.11l-2.82-5.28a7.34,7.34,0,0,1-1.05-3.64V3.05a3,3,0,0,1,3-3h1.48a3.05,3.05,0,0,1,2.85,3.05v.88A1.35,1.35,0,0,1,152,5.21c-.2.1-1.12.53-1.74.79"/><path class="cls-1" d="M168.11.23a.9.9,0,0,1,.95.92v22h-1.67c-.56,0-.66-.33-.69-.49V.23h1.41"/><path class="cls-1" d="M188,6V3.34a1.25,1.25,0,1,0-2.5,0v2.2a7.64,7.64,0,0,0,1,3.08l2.82,5.31a7.34,7.34,0,0,1,1.05,3.64v2.92a2.93,2.93,0,0,1-3,2.92h-1.48a3,3,0,0,1-2.85-2.92V18.13a1.36,1.36,0,0,1,.66-1.28c.19-.06,1.14-.49,1.73-.75v4a1.25,1.25,0,1,0,2.5,0V17.44a7.92,7.92,0,0,0-1-3.11l-2.82-5.28a7.34,7.34,0,0,1-1-3.64V3.05A3,3,0,0,1,186,0h1.48a3.05,3.05,0,0,1,2.85,3.05v.88a1.33,1.33,0,0,1-.66,1.28c-.19.1-1.11.53-1.73.79"/><path class="cls-1" d="M82.46,11.92a7.94,7.94,0,0,1-10.84,2.9,2,2,0,0,1-.19-.12,12.7,12.7,0,0,0,4.46,8.09,7.93,7.93,0,0,1,15.86.07c0,.07,0,.14,0,.22a12.68,12.68,0,0,0,4.76-7.9A7.93,7.93,0,0,1,88.64,1.4l.21-.1a12.51,12.51,0,0,0-9.23-.17,7.93,7.93,0,0,1,2.84,10.79"/><path class="cls-1" d="M0,17.61H.23V19.3a2.59,2.59,0,0,1,2.53-1.82,2.74,2.74,0,0,1,2.73,2.85v0a2.75,2.75,0,0,1-2.73,2.86A2.58,2.58,0,0,1,.23,21.38v3.45H0V17.61m5.25,2.75v0a2.51,2.51,0,0,0-2.5-2.64A2.54,2.54,0,0,0,.22,20.33v0A2.56,2.56,0,0,0,2.75,23,2.49,2.49,0,0,0,5.25,20.36Z"/><path class="cls-1" d="M6.77,20.36v0a2.79,2.79,0,0,1,2.85-2.86,2.78,2.78,0,0,1,2.84,2.84v0a2.8,2.8,0,0,1-2.84,2.87,2.79,2.79,0,0,1-2.85-2.85m5.45,0v0A2.59,2.59,0,0,0,9.6,17.7,2.56,2.56,0,0,0,7,20.33v0A2.59,2.59,0,0,0,9.63,23,2.56,2.56,0,0,0,12.22,20.35Z"/><polyline class="cls-1" points="13.34 17.61 13.58 17.61 15.34 22.77 17.12 17.58 17.31 17.58 19.08 22.77 20.85 17.61 21.08 17.61 19.16 23.12 18.98 23.12 17.21 17.91 15.44 23.12 15.25 23.12 13.34 17.61"/><path class="cls-1" d="M22,20.34v0a2.66,2.66,0,0,1,2.62-2.84,2.63,2.63,0,0,1,2.52,2.88v.05H22.22A2.49,2.49,0,0,0,24.71,23a2.53,2.53,0,0,0,2-1.11l.19.14a2.71,2.71,0,0,1-5-1.68m4.88-.14a2.32,2.32,0,1,0-4.63,0Z"/><path class="cls-1" d="M28.73,17.61H29v1.75a2.41,2.41,0,0,1,2.25-1.88v.22h-.06A2.51,2.51,0,0,0,29,20.24v2.84h-.23V17.61"/><path class="cls-1" d="M31.74,20.34v0a2.66,2.66,0,0,1,2.62-2.84,2.62,2.62,0,0,1,2.51,2.88v.05H32A2.49,2.49,0,0,0,34.48,23a2.53,2.53,0,0,0,2-1.11l.19.14a2.71,2.71,0,0,1-4.95-1.68m4.88-.14a2.32,2.32,0,1,0-4.63,0Z"/><path class="cls-1" d="M38.14,20.35v0a2.74,2.74,0,0,1,2.73-2.85,2.56,2.56,0,0,1,2.52,1.82V15.09h.23v8h-.23v-1.7a2.56,2.56,0,0,1-2.52,1.83,2.74,2.74,0,0,1-2.73-2.86m5.26,0v0a2.55,2.55,0,0,0-2.52-2.63,2.48,2.48,0,0,0-2.5,2.62v0A2.51,2.51,0,0,0,40.88,23,2.54,2.54,0,0,0,43.4,20.35Z"/><path class="cls-1" d="M49,21.38v1.7h-.23v-8H49V19.3a2.59,2.59,0,0,1,2.53-1.82,2.74,2.74,0,0,1,2.73,2.85v0a2.75,2.75,0,0,1-2.73,2.86A2.58,2.58,0,0,1,49,21.38m5-1v0a2.5,2.5,0,0,0-2.5-2.64,2.54,2.54,0,0,0-2.53,2.63v0A2.56,2.56,0,0,0,51.47,23,2.48,2.48,0,0,0,54,20.36Z"/><path class="cls-1" d="M55.08,24.56l.11-.18a2,2,0,0,0,.92.27c.63,0,1-.26,1.58-1.57l-2.63-5.47h.25l2.49,5.22,2.35-5.22h.24l-2.53,5.58c-.64,1.39-1,1.67-1.75,1.67a2,2,0,0,1-1-.3"/></g></g></svg>