<svg xmlns="http://www.w3.org/2000/svg" viewBox="0 0 261.47 70.87"><defs><style>.cls-1{fill:#fff;}</style></defs><title>logo-museo-caja-HNeg</title><g id="Layer_2" data-name="Layer 2"><g id="Layer_1-2" data-name="Layer 1"><path class="cls-1" d="M94.76,60.44a4.09,4.09,0,0,0-.56-1.5c-.31-.5-.74-.65-2.07-.65H90.79c-.55,0-.62.05-.62.61v4.33H92c1.67,0,1.78-.16,2-1.35h.55v3.58H94C93.8,64.2,93.69,64,92,64H90.17v3.27c0,1.64.16,1.73,1.83,1.86v.54H86.83v-.54c1.44-.11,1.61-.22,1.61-1.86V60c0-1.61-.15-1.7-1.57-1.81v-.56h8.26c0,.61.11,1.83.19,2.74Z"/><path class="cls-1" d="M106,69.22a22.24,22.24,0,0,0-2.84.67l-.13-.11V68.5a12.26,12.26,0,0,1-1.27.91,2.87,2.87,0,0,1-1.47.48c-1.3,0-2.31-.8-2.31-2.74V63.49c0-1-.08-1.09-1.14-1.27v-.47a23.24,23.24,0,0,0,2.82-.33c0,.61-.07,1.5-.07,2.72v2.52c0,1.58.78,2,1.57,2a2.65,2.65,0,0,0,1.87-.83V63.49c0-1-.09-1.11-1.39-1.27v-.47a21,21,0,0,0,3-.33v6.15c0,1,.15,1.08.86,1.13l.48,0Z"/><path class="cls-1" d="M112.83,69.67v-.5c1-.12,1.17-.25,1.17-1.54v-3.1c0-1.3-.49-2.05-1.62-2.05a3.13,3.13,0,0,0-1.9.88v4.38c0,1.24.11,1.31,1.14,1.43v.5h-4.09v-.5c1.22-.13,1.32-.23,1.32-1.45V63.88c0-1.16-.12-1.22-1.1-1.4V62a14.36,14.36,0,0,0,2.73-.76v1.46c.37-.27.76-.55,1.22-.85a2.7,2.7,0,0,1,1.52-.55c1.48,0,2.39,1,2.39,2.83v3.58c0,1.24.11,1.3,1.17,1.43v.5Z"/><path class="cls-1" d="M127.54,69.18a23,23,0,0,0-3,.71V68.7l-1.13.69a2.85,2.85,0,0,1-1.35.5,3.75,3.75,0,0,1-3.49-4,4.74,4.74,0,0,1,4.82-4.59,3.71,3.71,0,0,1,1.15.18V59c0-1.16-.11-1.22-1.39-1.33v-.46a19.57,19.57,0,0,0,3-.65v11c0,1,.11,1.07.82,1.15l.57,0Zm-3-6.19a2.19,2.19,0,0,0-1.8-1c-.79,0-2.33.69-2.33,3.39,0,2.23,1.35,3.26,2.48,3.26a3,3,0,0,0,1.65-.57Z"/><path class="cls-1" d="M135,69.89a1.43,1.43,0,0,1-.9-.37,1.69,1.69,0,0,1-.45-.8,5.94,5.94,0,0,1-2.15,1.17,2.29,2.29,0,0,1-2.28-2.28,1.81,1.81,0,0,1,1.48-1.82,14.25,14.25,0,0,0,2.89-1.22V64.2c0-1.3-.59-2-1.48-2a1,1,0,0,0-.79.35,3.07,3.07,0,0,0-.54,1.24.56.56,0,0,1-.59.47.94.94,0,0,1-.87-.82c0-.29.24-.5.61-.78a8.3,8.3,0,0,1,2.83-1.29,2.45,2.45,0,0,1,1.56.5,2.7,2.7,0,0,1,.87,2.31v3.38c0,.83.31,1.09.63,1.09a1.57,1.57,0,0,0,.67-.19l.18.5Zm-1.41-4.67c-.38.2-1.14.55-1.55.74-.69.33-1.08.67-1.08,1.35a1.32,1.32,0,0,0,1.28,1.41,2.24,2.24,0,0,0,1.35-.59Z"/><path class="cls-1" d="M147.15,69.18a22.63,22.63,0,0,0-3,.71V68.7l-1.13.69a2.87,2.87,0,0,1-1.36.5,3.74,3.74,0,0,1-3.48-4A4.74,4.74,0,0,1,143,61.33a3.75,3.75,0,0,1,1.15.18V59c0-1.16-.11-1.22-1.39-1.33v-.46a19.57,19.57,0,0,0,3-.65v11c0,1,.11,1.07.81,1.15l.58,0Zm-3-6.19a2.2,2.2,0,0,0-1.8-1c-.8,0-2.33.69-2.33,3.39,0,2.23,1.35,3.26,2.48,3.26a3,3,0,0,0,1.65-.57Z"/><path class="cls-1" d="M156.9,65.46a4.13,4.13,0,0,1-4.06,4.43,4,4,0,0,1-4.12-4.1,4.25,4.25,0,0,1,4.14-4.46A4,4,0,0,1,156.9,65.46Zm-6.28-.28c0,2.34.94,4.08,2.42,4.08,1.06,0,2-.78,2-3.36,0-2.24-.84-3.94-2.38-3.94C151.56,62,150.62,63.07,150.62,65.18Z"/><path class="cls-1" d="M170.61,68.05a4.21,4.21,0,0,1-3.08,1.84,3.68,3.68,0,0,1-3.65-4,4.75,4.75,0,0,1,1.25-3.26,3.81,3.81,0,0,1,2.74-1.35,2.88,2.88,0,0,1,2.81,2.85c0,.37-.07.54-.44.61s-2.61.22-4.76.3c0,2.43,1.42,3.46,2.72,3.46a3.06,3.06,0,0,0,2.11-.9Zm-5-3.74c1,0,1.94,0,3-.06.32,0,.43-.09.43-.37A1.69,1.69,0,0,0,167.44,62C166.63,62,165.83,62.81,165.59,64.31Z"/><path class="cls-1" d="M177.71,69.67v-.5c1-.12,1.17-.25,1.17-1.54v-3.1c0-1.3-.49-2.05-1.62-2.05a3.18,3.18,0,0,0-1.91.88v4.38c0,1.24.12,1.31,1.15,1.43v.5h-4.09v-.5c1.22-.13,1.31-.23,1.31-1.45V63.88c0-1.16-.11-1.22-1.09-1.4V62a14.06,14.06,0,0,0,2.72-.76v1.46c.37-.27.76-.55,1.23-.85a2.7,2.7,0,0,1,1.52-.55c1.48,0,2.39,1,2.39,2.83v3.58c0,1.24.11,1.3,1.17,1.43v.5Z"/><path class="cls-1" d="M189.71,69.67v-.52c1.64-.13,1.77-.3,1.77-1.63V60.46c0-1-.1-1.06-.89-1.1l-.91,0v-.45a19.72,19.72,0,0,0,3.46-1v9.62c0,1.33.13,1.5,1.76,1.63v.52Z"/><path class="cls-1" d="M205.67,62.53a7.08,7.08,0,0,1-4.43,6.82,9.07,9.07,0,0,1-2.69.59l-.09-.57a6.35,6.35,0,0,0,5.26-5l-1.2.63a2.25,2.25,0,0,1-1.09.3,3.27,3.27,0,0,1-3.38-3.41,4,4,0,0,1,3.88-4C204.32,57.9,205.67,60,205.67,62.53Zm-5.85-1.35c0,1.63.9,3,2.42,3a2.8,2.8,0,0,0,1.56-.46,9.21,9.21,0,0,0,.07-1.26c0-1.67-.48-3.89-2.2-3.89C200.3,58.55,199.82,60.07,199.82,61.18Z"/><path class="cls-1" d="M215.36,62.53a7.06,7.06,0,0,1-4.43,6.82,9,9,0,0,1-2.68.59l-.09-.57a6.36,6.36,0,0,0,5.26-5l-1.21.63a2.22,2.22,0,0,1-1.09.3,3.26,3.26,0,0,1-3.37-3.41,4,4,0,0,1,3.87-4C214,57.9,215.36,60,215.36,62.53Zm-5.85-1.35c0,1.63.91,3,2.43,3a2.79,2.79,0,0,0,1.55-.46,9.27,9.27,0,0,0,.08-1.26c0-1.67-.48-3.89-2.21-3.89C210,58.55,209.51,60.07,209.51,61.18Z"/><path class="cls-1" d="M219.13,62.92a7.73,7.73,0,0,1,2.13-.57,3.26,3.26,0,0,1,3.59,3.13,3.91,3.91,0,0,1-1.68,3.09,5.76,5.76,0,0,1-3.27,1.32,3.13,3.13,0,0,1-1.91-.65.72.72,0,0,1-.33-.65,1.31,1.31,0,0,1,.43-.67.36.36,0,0,1,.52,0,3.58,3.58,0,0,0,2.31,1c1.48,0,2.23-1.29,2.23-2.66a2.65,2.65,0,0,0-3-2.8,6,6,0,0,0-1.93.35l.75-5.69h5.39l.11.15-.5,1.31h-4.39Z"/><path class="cls-1" d="M128.38,45.45a7.43,7.43,0,0,0,3.39.95c1.46,0,2.11-.6,2.11-1.46s-.54-1.36-2.17-1.93c-2.57-.89-3.66-2.3-3.63-3.84,0-2.33,1.92-4.15,5-4.15a7.7,7.7,0,0,1,3.5.79l-.65,2.36a5.89,5.89,0,0,0-2.79-.76c-1.19,0-1.84.57-1.84,1.38s.62,1.24,2.3,1.84c2.38.87,3.49,2.09,3.52,4,0,2.38-1.87,4.12-5.36,4.12a8.39,8.39,0,0,1-4-.93Z"/><path class="cls-1" d="M143,42.85c.08,2.38,2,3.42,4.06,3.42a10,10,0,0,0,3.66-.6l.48,2.3a12.34,12.34,0,0,1-4.6.82c-4.28,0-6.8-2.63-6.8-6.67,0-3.66,2.22-7.1,6.45-7.1S152,38.55,152,41.44a8.58,8.58,0,0,1-.11,1.41Zm5.79-2.33c0-1.22-.51-3.22-2.73-3.22-2.06,0-2.93,1.87-3.06,3.22Z"/><path class="cls-1" d="M168,41.8c0,4.84-3.41,7-6.77,7A6.38,6.38,0,0,1,154.6,42c0-4.33,2.85-7,6.83-7S168,37.79,168,41.8Zm-9.94.13c0,2.55,1.25,4.47,3.28,4.47s3.22-1.87,3.22-4.52c0-2.06-.92-4.42-3.19-4.42S158,39.74,158,41.93Z"/><path class="cls-1" d="M181.28,48.51l-5.9-18.25H179l2.49,8.29c.71,2.3,1.3,4.44,1.79,6.66h.05c.49-2.17,1.14-4.39,1.87-6.61l2.66-8.34h3.54L185.1,48.51Z"/><path class="cls-1" d="M197,31.64a1.87,1.87,0,1,1-1.86-1.82A1.77,1.77,0,0,1,197,31.64Zm-3.54,16.87V35.32h3.35V48.51Z"/><path class="cls-1" d="M212.87,51.57a3.76,3.76,0,0,0,2.5-.94c.62-.68.86-1.71.86-4.58V35.32h3.33V47c0,2.73-.51,4.44-1.7,5.63a7,7,0,0,1-4.66,1.54Zm6.88-19.93a1.86,1.86,0,1,1-1.84-1.82A1.74,1.74,0,0,1,219.75,31.64Z"/><path class="cls-1" d="M226.28,42.85c.08,2.38,1.95,3.42,4.06,3.42a9.88,9.88,0,0,0,3.66-.6l.49,2.3a12.44,12.44,0,0,1-4.61.82c-4.28,0-6.79-2.63-6.79-6.67,0-3.66,2.22-7.1,6.44-7.1s5.69,3.53,5.69,6.42a7.59,7.59,0,0,1-.11,1.41Zm5.8-2.33c0-1.22-.52-3.22-2.74-3.22-2.06,0-2.92,1.87-3.06,3.22Z"/><path class="cls-1" d="M238.71,39.57c0-1.78,0-3.06-.1-4.25h2.9l.1,2.52h.11A3.94,3.94,0,0,1,245.33,35a3.74,3.74,0,0,1,.78.08v3.15a4.28,4.28,0,0,0-1-.11,2.93,2.93,0,0,0-3,2.52,5.25,5.25,0,0,0-.11,1v6.82h-3.34Z"/><path class="cls-1" d="M261.47,41.8c0,4.84-3.41,7-6.77,7a6.38,6.38,0,0,1-6.61-6.8c0-4.33,2.84-7,6.83-7S261.47,37.79,261.47,41.8Zm-9.94.13c0,2.55,1.25,4.47,3.28,4.47S258,44.53,258,41.88c0-2.06-.92-4.42-3.2-4.42S251.53,39.74,251.53,41.93Z"/><polygon class="cls-1" points="76.55 55.14 76.4 55.16 76.28 55.18 76.14 55.21 76 55.23 75.86 55.25 75.73 55.28 75.6 55.3 75.46 55.33 75.47 55.37 75.48 55.41 75.48 55.45 75.49 55.49 75.6 55.53 75.73 55.57 75.85 55.6 75.97 55.65 76.03 55.66 76.08 55.69 76.14 55.73 76.19 55.75 76.24 55.8 76.28 55.84 76.33 55.89 76.38 55.95 76.37 56.03 76.36 56.14 76.34 56.24 76.32 56.37 76.3 56.5 76.26 56.64 76.22 56.77 76.18 56.91 76.13 57.03 76.07 57.16 76.04 57.22 76.01 57.27 75.97 57.32 75.94 57.37 75.91 57.41 75.87 57.45 75.83 57.49 75.79 57.53 75.75 57.55 75.7 57.56 75.67 57.57 75.63 57.58 75.63 57.37 75.64 57.19 75.64 57.03 75.66 56.9 75.67 56.77 75.68 56.66 75.68 56.56 75.68 56.45 75.64 56.37 75.6 56.31 75.56 56.25 75.52 56.21 75.47 56.17 75.42 56.14 75.37 56.12 75.32 56.1 75.28 56.1 75.23 56.1 75.18 56.11 75.14 56.12 75.09 56.15 75.04 56.17 74.99 56.21 74.94 56.24 74.89 56.28 74.84 56.31 74.8 56.37 74.75 56.42 74.67 56.52 74.59 56.64 74.52 56.75 74.45 56.86 74.39 56.97 74.35 57.07 74.39 57.53 74.42 57.88 74.42 58.02 74.42 58.15 74.41 58.22 74.4 58.27 74.39 58.32 74.37 58.37 74.36 58.42 74.33 58.46 74.3 58.51 74.26 58.54 74.23 58.58 74.19 58.63 74.14 58.66 74.1 58.69 73.97 58.77 73.83 58.85 73.65 58.94 73.47 59.02 73.47 59.06 73.47 59.11 73.47 59.16 73.47 59.21 73.66 59.3 73.84 59.36 73.87 59.39 73.91 59.41 73.94 59.44 73.98 59.47 74.02 59.52 74.04 59.56 74.07 59.61 74.1 59.66 74.1 59.9 74.1 60.11 74.1 60.21 74.1 60.3 74.12 60.38 74.13 60.46 74.15 60.54 74.19 60.61 74.22 60.69 74.27 60.77 74.33 60.85 74.39 60.93 74.47 61.02 74.57 61.11 74.68 61.1 74.78 61.09 74.85 61.08 74.93 61.06 74.99 61.03 75.07 61 75.14 60.94 75.24 60.87 75.41 60.51 75.54 60.22 75.6 60.08 75.66 59.97 75.72 59.86 75.78 59.76 75.82 59.71 75.85 59.67 75.9 59.63 75.93 59.59 75.97 59.55 76.02 59.51 76.07 59.47 76.12 59.44 76.24 59.36 76.38 59.3 76.53 59.24 76.71 59.16 76.71 59.13 76.71 59.09 76.7 59.05 76.69 59.02 76.65 58.95 76.62 58.88 76.56 58.82 76.51 58.76 76.46 58.69 76.41 58.62 76.43 58.55 76.43 58.47 76.44 58.39 76.46 58.3 76.49 58.11 76.53 57.9 76.59 57.68 76.66 57.46 76.75 57.23 76.83 57.01 76.93 56.79 77.03 56.57 77.09 56.47 77.14 56.37 77.2 56.28 77.25 56.19 77.31 56.09 77.37 56.01 77.43 55.94 77.5 55.86 77.55 55.8 77.61 55.75 77.67 55.69 77.74 55.66 77.89 55.65 78.04 55.65 78.19 55.64 78.35 55.63 78.42 55.62 78.49 55.61 78.56 55.59 78.64 55.57 78.7 55.54 78.77 55.51 78.84 55.47 78.9 55.42 78.87 55.39 78.83 55.36 78.78 55.34 78.72 55.32 78.62 55.28 78.48 55.25 78.35 55.23 78.22 55.18 78.17 55.17 78.1 55.15 78.04 55.12 77.99 55.09 77.94 55.01 77.91 54.95 77.85 54.89 77.81 54.84 77.77 54.8 77.72 54.76 77.68 54.72 77.63 54.7 77.59 54.68 77.55 54.66 77.51 54.66 77.46 54.65 77.41 54.65 77.37 54.66 77.33 54.66 77.28 54.68 77.19 54.71 77.1 54.76 77.01 54.81 76.92 54.87 76.74 55.01 76.55 55.14"/><polygon class="cls-1" points="1.72 37.67 1.8 37.64 1.89 37.58 1.99 37.52 2.08 37.45 2.18 37.37 2.29 37.29 2.4 37.2 2.5 37.1 2.58 37 2.68 36.9 2.76 36.8 2.83 36.69 2.86 36.64 2.89 36.59 2.92 36.55 2.93 36.49 2.94 36.45 2.96 36.4 2.97 36.35 2.97 36.31 2.92 36.31 2.86 36.31 2.81 36.32 2.76 36.34 2.71 36.35 2.66 36.37 2.6 36.4 2.56 36.42 2.46 36.49 2.37 36.56 2.27 36.64 2.18 36.73 2.1 36.83 2.03 36.93 1.94 37.03 1.87 37.14 1.75 37.34 1.63 37.52 1.68 37.6 1.72 37.67"/><polygon class="cls-1" points="19.17 61.19 19.16 61.14 19.15 61.09 19.13 61.05 19.11 60.99 19.08 60.93 19.02 60.82 18.95 60.7 18.86 60.56 18.76 60.41 18.67 60.22 18.55 60.02 18.54 59.87 18.53 59.73 18.52 59.58 18.52 59.45 18.52 59.34 18.52 59.22 18.5 59.12 18.49 59.03 18.48 58.98 18.45 58.94 18.43 58.9 18.42 58.87 18.39 58.83 18.36 58.8 18.32 58.77 18.28 58.75 18.24 58.73 18.18 58.71 18.13 58.69 18.05 58.68 17.99 58.66 17.91 58.66 17.83 58.65 17.73 58.65 17.56 58.76 17.4 58.87 17.23 58.98 17.07 59.1 16.91 59.22 16.75 59.35 16.59 59.48 16.45 59.62 16.3 59.75 16.16 59.9 16.03 60.05 15.89 60.21 15.77 60.37 15.66 60.54 15.55 60.71 15.43 60.89 15.43 61 15.42 61.11 15.41 61.23 15.39 61.34 15.34 61.55 15.31 61.77 15.27 62 15.23 62.22 15.21 62.33 15.21 62.44 15.19 62.55 15.19 62.66 15.22 62.73 15.25 62.79 15.29 62.85 15.32 62.91 15.36 62.95 15.41 63 15.45 63.04 15.49 63.08 15.57 63.15 15.66 63.22 15.75 63.27 15.84 63.34 15.94 63.41 16.02 63.48 16.05 63.52 16.09 63.57 16.11 63.61 16.15 63.66 16.18 63.71 16.2 63.77 16.23 63.84 16.25 63.91 16.26 63.98 16.27 64.06 16.28 64.15 16.28 64.25 16.11 64.68 15.94 65.13 15.86 65.36 15.79 65.59 15.77 65.7 15.73 65.81 15.71 65.92 15.7 66.03 15.69 66.14 15.68 66.25 15.68 66.35 15.69 66.46 15.71 66.56 15.72 66.67 15.75 66.76 15.79 66.86 15.84 66.95 15.89 67.04 15.96 67.13 16.04 67.21 16.13 67.29 16.22 67.37 16.34 67.44 16.46 67.51 16.54 67.5 16.62 67.48 16.7 67.47 16.78 67.44 16.85 67.42 16.94 67.4 17 67.36 17.07 67.33 17.15 67.3 17.21 67.25 17.27 67.22 17.35 67.17 17.4 67.13 17.45 67.08 17.5 67.03 17.55 66.97 17.6 66.91 17.64 66.85 17.67 66.79 17.71 66.72 17.73 66.66 17.76 66.59 17.78 66.52 17.79 66.45 17.79 66.37 17.79 66.3 17.79 66.21 17.78 66.14 17.76 66.05 17.73 65.97 17.7 65.89 17.66 65.8 17.54 65.7 17.44 65.63 17.39 65.6 17.35 65.57 17.32 65.54 17.3 65.5 17.27 65.47 17.26 65.42 17.24 65.39 17.24 65.34 17.23 65.29 17.23 65.24 17.22 65.16 17.22 65.08 17.41 64.73 17.59 64.37 17.78 64.02 17.96 63.67 18.16 63.31 18.36 62.98 18.46 62.8 18.57 62.64 18.68 62.48 18.8 62.32 18.92 62.1 19.01 61.91 19.05 61.83 19.08 61.74 19.11 61.67 19.13 61.6 19.15 61.54 19.17 61.47 19.17 61.41 19.18 61.36 19.18 61.3 19.17 61.25 19.17 61.19"/><polygon class="cls-1" points="73.49 43.13 73.64 43.12 73.77 43.12 73.87 43.1 73.97 43.09 74.08 43.07 74.21 43.05 74.37 43.02 74.68 43.02 74.99 43.02 75.3 43.04 75.6 43.05 75.9 43.05 76.22 43.05 76.37 43.04 76.53 43.02 76.69 43.01 76.85 42.98 76.86 42.92 76.86 42.86 76.85 42.82 76.84 42.77 76.81 42.73 76.78 42.7 76.75 42.68 76.7 42.65 76.33 42.64 76.01 42.64 75.7 42.63 75.44 42.62 75.18 42.62 74.93 42.61 74.67 42.61 74.41 42.61 74.13 42.6 73.81 42.6 73.46 42.6 73.07 42.6 72.61 42.6 72.11 42.6 71.52 42.6 70.86 42.6 70.55 42.62 70.32 42.63 70.15 42.64 70.03 42.65 69.96 42.66 69.92 42.67 69.9 42.69 69.87 42.7 69.91 42.73 69.94 42.77 69.98 42.78 70.03 42.8 70.07 42.82 70.12 42.83 70.18 42.83 70.23 42.84 70.35 42.85 70.45 42.85 70.57 42.85 70.66 42.86 70.82 42.9 70.99 42.93 71.16 42.96 71.32 42.98 71.48 42.99 71.65 43 71.81 43.01 71.97 43.02 72.31 43.02 72.63 43.04 72.79 43.05 72.96 43.07 73.12 43.1 73.29 43.15 73.49 43.13"/><polygon class="cls-1" points="73.5 40.14 73.51 40.19 73.54 40.24 73.55 40.29 73.57 40.34 73.6 40.39 73.65 40.45 73.69 40.5 73.73 40.55 73.78 40.6 73.85 40.66 73.91 40.71 73.98 40.77 74.12 40.75 74.25 40.75 74.38 40.75 74.52 40.74 74.68 40.66 74.85 40.55 75.06 40.43 75.27 40.28 75.49 40.12 75.72 39.94 75.83 39.85 75.94 39.75 76.05 39.65 76.16 39.55 76.26 39.45 76.35 39.35 76.44 39.23 76.53 39.13 76.61 39.02 76.67 38.92 76.74 38.81 76.8 38.7 76.84 38.6 76.88 38.49 76.89 38.39 76.91 38.29 76.91 38.18 76.89 38.09 76.86 37.99 76.82 37.9 76.72 37.9 76.64 37.92 76.56 37.95 76.48 37.97 76.4 38.02 76.33 38.07 76.26 38.12 76.19 38.18 76.12 38.25 76.06 38.31 76 38.4 75.93 38.48 75.82 38.63 75.69 38.81 75.58 38.97 75.45 39.14 75.39 39.21 75.32 39.28 75.26 39.35 75.19 39.41 75.12 39.46 75.05 39.51 74.97 39.55 74.89 39.59 74.81 39.62 74.72 39.63 74.63 39.63 74.53 39.62 74.53 39.53 74.55 39.44 74.55 39.35 74.56 39.27 74.74 38.9 74.93 38.52 75.12 38.14 75.31 37.77 75.5 37.4 75.69 37.02 75.89 36.66 76.08 36.28 76.14 36.12 76.19 35.98 76.21 35.91 76.22 35.85 76.24 35.8 76.26 35.73 76.26 35.67 76.26 35.62 76.26 35.56 76.26 35.49 76.24 35.44 76.22 35.37 76.21 35.3 76.18 35.22 76.11 35.2 76.06 35.18 76 35.18 75.94 35.16 75.9 35.16 75.84 35.16 75.79 35.17 75.75 35.18 75.7 35.2 75.66 35.22 75.63 35.24 75.58 35.27 75.54 35.31 75.5 35.35 75.47 35.4 75.43 35.44 75.44 35.49 75.47 35.53 75.49 35.55 75.52 35.57 75.59 35.62 75.68 35.71 75.68 35.78 75.68 35.86 75.68 35.93 75.68 36.01 75.56 36.19 75.44 36.37 75.32 36.55 75.22 36.73 75.01 37.1 74.8 37.47 74.6 37.85 74.38 38.21 74.27 38.4 74.15 38.58 74.03 38.77 73.91 38.94 73.75 39.23 73.62 39.49 73.56 39.62 73.53 39.73 73.51 39.78 73.5 39.83 73.49 39.88 73.49 39.94 73.49 39.99 73.49 40.04 73.49 40.09 73.5 40.14"/><polygon class="cls-1" points="70.18 40.68 70.24 40.67 70.29 40.67 70.34 40.64 70.39 40.63 70.57 40.46 70.79 40.24 70.92 40.13 71.05 40 71.17 39.87 71.31 39.73 71.42 39.6 71.53 39.45 71.64 39.33 71.73 39.19 71.78 39.12 71.81 39.06 71.85 38.99 71.87 38.92 71.89 38.86 71.91 38.8 71.91 38.74 71.92 38.68 71.86 38.68 71.82 38.69 71.78 38.7 71.73 38.71 71.68 38.72 71.64 38.75 71.6 38.77 71.56 38.8 71.48 38.86 71.41 38.92 71.35 39 71.27 39.08 71.2 39.15 71.14 39.23 71.06 39.31 70.99 39.36 70.95 39.4 70.9 39.42 70.86 39.44 70.82 39.46 70.78 39.48 70.72 39.49 70.68 39.5 70.61 39.5 70.6 39.46 70.59 39.43 70.57 39.38 70.57 39.34 70.57 39.3 70.57 39.25 70.57 39.2 70.59 39.15 70.61 39.06 70.65 38.96 70.69 38.86 70.73 38.76 70.85 38.56 70.98 38.36 71.09 38.18 71.18 38.04 71.22 37.88 71.26 37.69 71.29 37.46 71.32 37.23 71.33 37.11 71.33 37 71.33 36.89 71.33 36.79 71.33 36.7 71.32 36.63 71.31 36.59 71.31 36.56 71.29 36.53 71.28 36.51 71.21 36.51 71.14 36.5 71.08 36.5 71 36.5 70.8 36.69 70.55 36.9 70.42 37.01 70.29 37.14 70.15 37.27 70.03 37.4 69.9 37.53 69.79 37.67 69.68 37.8 69.59 37.95 69.55 38.02 69.51 38.09 69.47 38.15 69.45 38.23 69.42 38.3 69.4 38.36 69.39 38.43 69.38 38.49 69.45 38.48 69.52 38.46 69.58 38.43 69.64 38.41 69.7 38.38 69.76 38.34 69.81 38.3 69.86 38.25 69.94 38.15 70.03 38.05 70.11 37.95 70.19 37.84 70.27 37.73 70.35 37.64 70.4 37.58 70.45 37.54 70.5 37.49 70.55 37.46 70.61 37.42 70.66 37.38 70.73 37.35 70.8 37.33 70.86 37.3 70.94 37.29 71.02 37.28 71.11 37.28 71.11 37.34 71.12 37.4 71.12 37.47 71.11 37.52 71.1 37.55 71.09 37.57 71.08 37.6 71.06 37.62 71.03 37.65 71.01 37.67 70.98 37.69 70.94 37.7 70.85 37.79 70.78 37.88 70.7 37.97 70.61 38.09 70.48 38.25 70.31 38.48 70.09 38.77 69.8 39.17 69.67 39.38 69.55 39.58 69.5 39.68 69.46 39.77 69.43 39.87 69.4 39.96 69.39 40.01 69.39 40.06 69.39 40.1 69.39 40.15 69.39 40.19 69.4 40.24 69.41 40.28 69.43 40.33 69.45 40.38 69.47 40.43 69.5 40.48 69.54 40.52 69.58 40.57 69.63 40.62 69.67 40.67 69.72 40.71 70.02 40.7 70.18 40.68"/><polygon class="cls-1" points="62.88 30.57 62.94 30.58 63 30.6 63.11 30.6 63.22 30.6 63.33 30.6 63.44 30.6 63.44 30.55 63.44 30.5 63.27 30.5 63.09 30.5 62.92 30.5 62.76 30.5 62.76 30.52 62.76 30.55 62.81 30.56 62.88 30.57"/><polygon class="cls-1" points="33.25 13.66 33.24 13.59 33.22 13.51 33.19 13.43 33.15 13.36 33.11 13.27 33.06 13.17 33.01 13.07 32.95 12.97 32.85 12.9 32.75 12.86 32.67 12.82 32.58 12.78 32.44 12.74 32.31 12.69 32.27 12.67 32.23 12.64 32.2 12.61 32.19 12.6 32.17 12.57 32.16 12.55 32.14 12.48 32.13 12.39 32.11 12.3 32.11 12.18 32.14 12.01 32.18 11.84 32.2 11.68 32.23 11.51 32.24 11.35 32.26 11.18 32.26 11.03 32.26 10.87 32.24 10.71 32.23 10.55 32.2 10.4 32.17 10.24 32.13 10.08 32.08 9.92 32.02 9.77 31.95 9.62 31.86 9.55 31.78 9.49 31.69 9.44 31.6 9.4 31.52 9.37 31.43 9.36 31.35 9.35 31.27 9.35 31.18 9.35 31.1 9.37 31.02 9.39 30.94 9.42 30.86 9.46 30.78 9.5 30.7 9.54 30.63 9.6 30.55 9.65 30.48 9.71 30.4 9.77 30.33 9.84 30.19 9.97 30.05 10.12 29.77 10.41 29.51 10.67 29.38 10.88 29.26 11.1 29.14 11.31 29.03 11.51 28.91 11.73 28.82 11.93 28.73 12.14 28.64 12.34 28.55 12.55 28.48 12.75 28.4 12.96 28.33 13.17 28.28 13.37 28.21 13.58 28.16 13.79 28.12 13.99 28.08 14.21 28.03 14.42 27.99 14.63 27.97 14.85 27.93 15.06 27.91 15.28 27.88 15.51 27.87 15.73 27.85 15.96 27.83 16.19 27.82 16.42 27.82 16.66 27.81 17.14 27.8 17.64 27.83 17.77 27.88 17.88 27.92 17.99 27.98 18.1 28.02 18.2 28.09 18.3 28.16 18.4 28.23 18.5 28.3 18.58 28.37 18.67 28.47 18.75 28.55 18.83 28.65 18.91 28.74 18.98 28.84 19.05 28.94 19.12 29.04 19.19 29.14 19.25 29.25 19.31 29.36 19.37 29.58 19.48 29.8 19.58 30.03 19.67 30.26 19.76 30.49 19.84 30.7 19.91 30.91 19.9 31.12 19.89 31.33 19.87 31.53 19.84 31.62 19.82 31.71 19.8 31.81 19.78 31.89 19.75 31.98 19.72 32.06 19.68 32.13 19.64 32.2 19.61 32.26 19.56 32.32 19.52 32.37 19.45 32.42 19.4 32.46 19.33 32.49 19.27 32.52 19.19 32.54 19.11 32.55 19.03 32.55 18.93 32.54 18.84 32.52 18.74 32.49 18.62 32.46 18.51 32.41 18.38 32.35 18.25 32.35 17.9 32.34 17.53 32.34 17.14 32.34 16.76 32.34 16.58 32.34 16.39 32.37 16.2 32.38 16.02 32.4 15.85 32.42 15.68 32.46 15.53 32.5 15.37 32.61 15.16 32.72 14.98 32.82 14.81 32.91 14.66 33.01 14.53 33.08 14.39 33.15 14.28 33.21 14.15 33.22 14.1 33.25 14.04 33.25 13.98 33.27 13.92 33.27 13.86 33.27 13.79 33.27 13.73 33.25 13.66"/><polygon class="cls-1" points="23.44 36.77 23.5 36.81 23.53 36.85 23.72 36.84 23.95 36.83 24.08 36.82 24.21 36.81 24.34 36.79 24.47 36.77 24.6 36.74 24.71 36.7 24.77 36.68 24.82 36.66 24.86 36.63 24.91 36.59 24.95 36.56 24.98 36.53 25.01 36.48 25.04 36.44 25.05 36.4 25.06 36.34 25.06 36.29 25.06 36.23 25.02 36.2 24.96 36.2 24.92 36.18 24.87 36.16 24.76 36.15 24.65 36.14 24.54 36.15 24.42 36.15 24.3 36.18 24.17 36.2 24.06 36.23 23.94 36.26 23.83 36.3 23.72 36.34 23.62 36.38 23.52 36.42 23.44 36.47 23.36 36.51 23.36 36.56 23.36 36.6 23.35 36.65 23.35 36.69 23.4 36.73 23.44 36.77"/><path class="cls-1" d="M73.78,55.14l-.11,0-.11,0-.1,0-.1,0-.11,0-.11,0-.1,0-.25-.12-.19-.09-.07,0-.08,0-.06,0H72.2l-.08,0-.08,0-.19.06-.25.09H69.54l-.29,0-.27,0h-.13l-.14,0h-.13l-.13,0-.12,0-.12,0-.12,0-.11,0-.11,0-.11,0-.1-.05-.09,0v-.1l.09,0,.11-.07.1-.08L68,54l.11-.12.1-.12.11-.13.1-.14.09-.14.08-.15,0-.07,0-.07,0-.07,0-.07,0-.07,0-.06v-.26l0-.06,0,0-.08-.06-.08,0-.07,0-.07,0-.13-.07-.11,0,0,0,0,0,0,0L68,52l0-.06,0-.07v-.18l.09-.27.1-.28.1-.29.12-.27.11-.3L68.6,50l.11-.29.11-.3.1-.3.11-.29,0-.15,0-.14,0-.14,0-.16,0-.14,0-.14,0-.15,0-.14,0-.14v-.42L69.29,47l-.05-.1-.07-.1-.07-.1L69,46.56l-.07-.09-.09-.09-.09-.07-.09-.06-.1,0,0,0-.06,0,0,0H68l-.06,0-.14.14-.15.19-.18.23-.2.25-.19.28-.2.31-.11.16-.1.16-.1.17-.1.17-.09.15-.1.18-.09.17-.07.16-.09.17-.07.16-.06.16-.05.16,0,.16,0,.15,0,.15,0,.13v.36l0,.12.06,0,0,0,.07,0,0,0,0,0,.06,0,0,0h.06l.11,0,.13,0,.15,0,.17,0,0,0,0,0v.37l0,.19,0,.18,0,.19,0,.18,0,.19,0,.18v.25l0,.12V53l0,.13,0,.14,0,.14,0,.13.06.13.06.12,0,.06,0,.06L67,54l0,.06,0,.05,0,0,.05,0,0,0,0,0,.06,0,0,0,.05,0v.08l-.12,0-.12,0-.13,0H65.38l-.21,0-.22,0h-.21l-.21,0h-.45l-.45,0h-.21l-.22,0-.22,0-.21,0-.21,0-.21-.05-.09,0-.1,0-.1,0-.1,0v-.34l.05-.05,0,0,0-.06,0-.06,0-.06,0-.07,0-.06,0-.07,0-.13,0-.14,0-.13,0-.14.13-.23.1-.19.09-.16.07-.15.08-.15.08-.17.11-.22.13-.28v-.76l0-.13v-.14l0-.14,0-.14.06-.15,0-.14,0-.15.05-.13,0-.14,0-.15,0-.13,0-.14,0-.13,0-.14,0-.14,0-.14,0-.14-.05-.15-.11-.27L63,47.39l-.13-.26-.11-.23v-.7l0-.07,0-.05,0-.06,0-.06,0-.06-.13-.11-.12-.09-.12-.07-.12-.06-.11,0-.12,0-.09,0h-.31l-.1,0-.1,0-.08.05-.08,0-.09.06-.09.07-.07.09-.07.08-.08.09-.08.11-.06.1-.07.1-.07.11-.06.12-.12.23-.11.24-.1.25-.11.23-.09.12-.1.13-.09.13-.1.12-.1.13-.1.12-.09.14-.1.12-.06.14-.06.13-.06.13,0,.13,0,.13,0,.12,0,.12,0,.12,0,.12,0,.12v.67l0,.11v.1l0,.11,0,.11,0,.11,0,.1.05.11,0,.12.06.1.06.11,0,.11.08.11.06.11.08.12.07.11.09.12,0,.12,0,.13,0,.13,0,.14V53l0,.15v.21l0,.07v.07l0,.06,0,.07,0,.06,0,.06,0,.06,0,0,0,0-.05.05,0,0,0,0-.06,0-.06,0-.07,0h-.77l-.49,0H56.42l-.21,0-.18,0h-.09l-.08,0-.06,0-.07,0,0-.05,0-.07,0-.07v-.34l0-.09,0-.11,0-.1,0-.11,0-.1.11-.23.13-.23.14-.24.13-.23.12-.24.13-.22,0-.11.06-.11,0-.1,0-.11,0-.1,0-.09v-.18l-.06-.1-.06-.11-.06-.1,0-.11,0-.11,0-.1V50l.13-.31.09-.23,0-.09v-.2l0-.08,0-.06,0-.07-.05-.08-.11-.21-.15-.27,0-.15,0-.14,0-.14,0-.15-.1-.16-.09-.13,0-.06,0,0,0,0,0-.05v-.28L56,47l0-.08,0-.1.25-.37.2-.29,0-.07,0-.07,0,0,0-.06,0,0V45.6l0,0,0,0,0,0,0,0-.05,0,0,0-.06,0-.08,0-.07,0-.09,0-.2-.08-.22-.08h-.35l0,0-.05,0-.06,0,0,0-.06,0,0,0-.05,0-.09.08-.08.09-.07.1-.08.1-.07.12-.06.11-.08.11-.08.12-.08.12-.09.11-.08.07-.09.07L54,46.6l-.08.08-.08.08-.08.1-.09.08-.07.1-.15.19-.16.21-.14.2-.14.23-.14.21-.14.23-.12.22-.12.22-.1.22-.12.21-.09.2-.1.21v.33l0,.11v.11l0,.1,0,.1,0,.1.06.2.06.2.07.19.08.19.09.18.08.19.09.18.09.2.09.18.1.2.09.19.08.21V53l0,.12,0,.13,0,.1,0,.1,0,.09-.07.09-.06.07-.07.06-.08.06-.08,0-.09.05-.08,0-.1,0-.1,0-.1,0-.1,0h-.67l-.22,0-.24,0-.22,0-.22,0-.08,0-.07-.05-.07,0-.06,0-.07-.06,0-.06-.05,0,0-.07,0-.06,0-.07,0-.07V53.3l0-.08V53l0-.15.06-.15.07-.13.07-.14.14-.26.13-.26.06-.14.07-.13.06-.13,0-.15,0-.06,0-.08,0-.07v-.38l-.17-.28-.13-.21-.1-.18-.1-.14-.09-.13L50,49.65l-.12-.17-.15-.2v-.34l0-.15,0-.15,0-.14,0-.15V48l0-.09,0-.09,0-.09,0-.08,0-.08,0-.07v-.39l0,0,0-.06,0,0,0-.06.05-.11.06-.11L50,46.6l.08-.12.09-.14.1-.13.1-.15.11-.17V45.7l0-.07,0-.08,0,0,0,0-.05,0,0,0-.06,0H50l-.07,0-.07,0-.07,0-.16.06-.15.08-.15.07-.15.09-.27.16-.2.11-.27.36-.27.36-.26.37-.25.37-.24.36-.25.38-.25.38-.24.38v.37l0,.11v.12l0,.1V50l0,.08,0,.08,0,.1,0,.07,0,.1-.08.19-.08.23v.53l0,.24,0,.25,0,.26,0,.26V53l0,.08,0,.07.05.08.06.05,0,.06.06.05.07,0,0,.05.06,0,.06,0,.07.05,0,.06.05.06,0,.07v0l0,0,0,0V54l-.08.08-.06.05-.05,0-.09,0h-.83l-.23,0h-.24l-.25,0-.24,0-.13,0-.12,0L45,54l-.1,0-.12,0-.11,0-.1,0-.11,0-.09,0-.1-.05-.08,0-.08-.06-.07-.07L44,53.51l-.06-.07,0-.08v-1l0-.15V51.9l0-.14,0-.16,0-.14,0-.15,0-.15.06-.16.06-.16.18-.32.18-.28.08-.13.06-.12.06-.13.05-.11,0-.06v-.06l0-.06V49l0-.08,0-.08,0-.09,0-.09v-.88l-.08-.17-.09-.16-.1-.15-.09-.15-.1-.14-.1-.13-.1-.14-.11-.12-.22-.25-.23-.25-.22-.25L43,45.57l-.06-.15-.06-.11-.06-.11,0-.09L42.71,45,42.66,45l0-.06-.06,0,0,0,0,0-.05,0H42.2l-.05,0,0,0-.05,0-.06,0-.06,0-.12.09-.12.12-.14.13-.14.14-.16.13-.16.14-.13.17-.13.19-.14.21-.14.23-.16.23-.16.25-.18.25-.18.25v.37L40,48l.06.15.07.15,0,.14,0,.15,0,.16,0,.17,0,.2.17.35.14.29.05.12,0,.11,0,.11,0,.1,0,.1v.36l0,.14,0,.15,0,.18,0,.21v.28l0,.15v.14l0,.14,0,.16v.31l-.05.45,0,.37,0,.16,0,.13,0,.06,0,.06,0,0,0,0,0,0,0,0,0,0,0,0h-.05l0,0H40l-.07,0h-.09l-.1,0-.1,0-.11,0-.11,0H38.2l-.41,0H35.26l-.21,0-.2,0-.2,0-.22,0-.19,0-.21,0-.2,0-.19-.05-.2,0-.19,0-.18-.07-.19-.06-.16,0-.14,0h-.14l-.12,0,0,0-.06,0-.05,0-.06,0,0,0-.06,0-.05,0,0-.06v-.29l0-.19v-.26l0-.34,0-.45,0-.57,0-.73.09-.21.08-.19.06-.16,0-.14V49.4l0-.06v-.29l0,0,0-.12,0-.11-.05-.11-.06-.14-.07-.14L32,48.23,32,48.05l-.09-.22V47.4l0-.11,0-.12,0-.1,0-.11,0-.09-.08-.19-.1-.2-.09-.2L31.31,46l0-.16v-.14l0-.13,0-.1,0-.09,0-.07v0l0,0,0,0,0,0h0l0,0,0,0h0l-.08,0H30.3l-.43.18-.47.2-.24.12-.25.11-.11.06-.12.07-.11.07-.12.07-.11.07-.1.08-.1.08-.09.08-.1.09-.08.08-.09.1-.07.09-.07.11-.06.1,0,.1,0,.11,0,.12,0,.12,0,.11v.13l.06.12.05.12.06.11,0,.11,0,.05,0,.06v.4l-.12.24-.11.19,0,.09,0,.08,0,.08,0,.09,0,.07,0,.09v.69l.12.24.14.32.08.18.08.19.07.2.07.18.06.2.05.2L28,52v.18l0,.1v.4l0,.06v.07l0,.06-.06,0-.06,0-.06,0-.06,0-.07,0h-.06l-.08,0h-.07l-.16,0-.16,0h-1l-.3,0h-.27l-.26-.12-.2-.08-.1,0-.08,0h-.09l-.07,0h-.25l-.09,0-.09,0-.11,0-.12,0-.13,0h-.82l-.06,0H23l-.05,0-.06,0,0,0,0,0,0,0,0,0,0-.05,0,0v-.06l0,0V51.2l.07-.41.07-.34,0-.16,0-.14v-.71l0-.15,0-.15,0-.16-.05-.18-.06-.19V46.19l0-.23,0-.23,0-.23,0-.24V41.65l0-.24v-.23l0-.23,0-.24,0-.23,0-.22L23,40l0-.21.06-.22.06-.22.07-.22.08-.2.1-.22.06,0,.08,0,.07,0,.08,0,.4,0h.41l.4,0,.41,0,.4,0,.41,0,.41,0,.41,0,.4,0,.41,0h.41l.41,0h1.64l.31,0,.35.07.36.06.36.06.19,0,.18,0h.7l.07,0,.08,0,.07,0,.08,0,0-.08,0-.08,0-.07v-.2l0-.06,0,0,0,0,0,0,0,0,0,0-.06,0-.06,0-.06,0-.07,0-.15,0-.14,0-.15,0-.16,0-.15,0-.13,0-.13,0-.1,0,0-.06v-.17l.08,0,.11-.05.12,0,.13,0,.15,0,.15,0,.17,0,.17,0,.17,0h.77l.06,0,.05,0h.06l.05,0,.11.3.06.16,0,0,0,0,0,0,0,0h.16l.06,0,0,0,.06,0,.06,0,0,0,.12-.07.11-.07.11-.08.11-.08.11-.07L35.1,37l0,0,.05,0,0,0,0,0h.26l0,0,0,0v.31l-.25.37-.24.37-.24.37-.24.37-.24.37-.26.37-.25.35-.26.36-.07.17-.06.16,0,.08,0,.07v.41l0,0,0,.05,0,0,0,0,0,0,0,0,0,0,.05,0,0,0h.6l.1,0,.11,0,0,0,0,0v.29l0,.15,0,.14,0,.13,0,.14,0,.11v.32l0,.05,0,0,0,0,0,0,0,0,.06,0,.08,0h.27l.12,0h.11l.14,0,.12-.05.11,0,.1,0,.17-.09.17-.06.09,0,.08,0h.31l.13,0,.15,0,.15,0h.17l.15,0h.6l.19,0h3.79l.29,0,.29,0,.29,0h.3l.3,0H44l.3,0h2.36l.21,0L47,43l.22,0,.24,0,.23,0h1.7l.24,0,.23,0,.22,0,.22,0h2.72l.3,0h.33l.26.14.23.14.09.06.11.05.09.06.11,0,.09,0,.11,0,.1,0h.53l.18-.05.19-.08L56,43.3l.17-.07.18-.06.17-.07.18-.05.19-.06.21,0h.63l.08,0,0,0h0l0,0,0,0,0,0,.06.06,0,.08.06.08.08.1.07.13.1.13.12.16.07,0,.09,0h.07l.08,0h.38l.08,0h.07l.08,0,.07,0,.08,0,.07,0,.08,0,.15-.07.14-.08.15-.08.14-.08.27-.19.27-.19.13,0,.12,0,.13,0,.13,0,.13,0h.14l.13,0h.13l.28,0,.27,0H63l.07,0,.07,0,.07,0,.06,0h.06l.07,0h.17l.06,0h.12l.1,0,.12,0,.22.1.25.1.14,0,.14,0,.08,0H65l.15,0,.12,0,.1,0,.1,0,.1,0,.12,0,.15-.05.2-.06.24,0,.23,0h.25l.24,0h.24l.25,0h.47v-.1l-.16,0h-.33l-.14,0h-.07l-.08,0H67.1l-.08,0-.07,0-.07,0-.07,0-.07,0v-.09l0-.08v-.08l0-.09,0-.07,0-.09,0-.08,0-.07,0-.07.05-.08.06-.07.05-.08.12-.15.13-.15.14-.14.13-.15.13-.15.12-.16.06-.08L68,40.3l.06-.08,0-.09,0-.07,0-.09,0-.1,0-.08h-.08l-.07,0h-.06l-.07,0-.08,0-.07,0-.08,0-.07,0-.15.1-.17.11-.14.12-.16.13-.14.15-.14.13-.14.14-.12.15-.12.14-.11.13-.09.13-.07.11-.08.07-.07.06-.09.08-.07.06-.16.06-.13,0-.11,0-.08,0,0,0,0-.06v-.07l0-.1,0-.11.06-.13.06-.14.09-.15.1-.17.1-.16.13-.17.13-.19.27-.38.29-.38.29-.37.27-.35.25-.32.22-.27.17-.21L67.9,38l.09-.12.09-.1.07-.12.08-.12,0-.06,0-.05,0-.07,0-.06,0-.06,0-.08,0-.07V37h-.13L68,37.3l-.24.28-.24.29-.23.29-.23.28-.24.29-.23.29-.24.29-.23.3-.25.28-.23.29-.23.28-.24.29-.22.3-.24.29-.24.28-.06.09,0,.1-.06.09,0,.06-.06.07,0,.07-.07.06-.05.05,0,0-.06,0-.06,0-.06,0-.06,0-.06,0-.06,0-.07,0H63l-.17,0-.16,0-.19,0-.2,0-.05-.06,0-.06,0-.06,0-.06v-.24l0-.06,0,0,0-.07.05-.06.09-.12.1-.11.12-.13.11-.11.05-.06,0-.05,0-.06,0-.06,0-.05,0-.06,0-.06v-.16l0-.05,0,0h-.11l-.06,0-.07,0-.07,0-.07,0-.07,0-.08,0-.15.11-.16.12-.17.14-.16.14-.16.14-.15.14-.15.14-.13.14L61,42l-.16.14-.11.05-.13,0-.12,0-.13,0-.12,0h-.36l0,0h0l0,0,0,0,0,0,0,0V42l0-.06v-.06l0-.08,0-.06,0-.09.12-.16.12-.15.13-.15.11-.14.11-.15.12-.16.14-.17.14-.19.16-.22.19-.24.21-.27.23-.31.28-.36.3-.39.34-.44.4-.5.31-.33.32-.33.31-.34.3-.33.31-.35.29-.34.3-.34.3-.34.19-.16.26-.21.14-.14.16-.14.15-.15.15-.15.07-.08.07-.07.07-.08.05-.08.06-.08.05-.08,0-.07,0-.08,0-.06,0-.08V33l0-.07,0-.05,0,0H66.6l0,0-.06,0h0l0,0-.1.06-.09.06-.11.07-.13.07-.4.33-.39.34-.4.33-.39.36L64,34.9l-.38.36-.38.36-.38.37-.37.37-.37.37-.38.37-.36.38-.37.37-.37.37-.37.37L59.9,39l-.16.1-.15.11-.15.11-.16.12-.34.35-.34.37-.36.38-.37.37-.18.19-.18.17-.19.18-.18.16-.19.16-.2.17-.19.15-.19.13-.09,0-.09,0-.1,0H56l-.1,0h-.48l-.09,0h-.09l-.09,0-.08,0L55,42.16l-.08-.06v-.3l0-.07,0-.06V41.6l0-.06.06-.12.07-.12.07-.14L55.3,41l.41-.48.4-.47.4-.46.42-.48.4-.46.43-.47.41-.46.43-.46.41-.45.42-.47.42-.45.42-.46.41-.46.43-.46.41-.46.41-.47.08-.13.07-.12.06-.12,0-.11,0,0V33l0-.05v-.12l0,0v0l0,0,0,0h0l0,0,0,0h-.36l-.07,0-.07,0-.09,0-.23.16L61,33l-.23.16-.23.16-.47.34-.47.35-.46.37-.47.36-.45.38-.45.38-.46.38-.45.38-.45.39L56,37l-.44.39-.44.37-.89.74-.22.18-.31.25-.37.29-.39.31-.19.15-.2.14-.18.12-.18.12-.16.09-.14.08-.07,0-.06,0h-.11v-.06l0-.06,0-.08,0-.07.05-.09,0-.09.06-.1.08-.1.14-.21.18-.21.18-.23.2-.23.38-.44.36-.39.28-.31.18-.19.25-.32.25-.3.25-.3.25-.31.26-.3.26-.3.27-.3.26-.3.27-.3.27-.29.27-.3.27-.29.27-.29.27-.29.27-.28.28-.29.1-.16.14-.16.06-.09.06-.09,0-.09,0-.09,0,0v0l0,0v-.1l0,0v0h0l0,0,0,0h0l0,0h-.19l-.21.18-.21.16-.22.17-.22.17-.19.17-.21.18-.21.18-.2.18-.28.2-.27.21-.27.2-.29.21-.53.42-.53.43-.54.44-.53.45-.52.46-.53.45-.52.47-.53.47-.51.46-.52.47-.51.47-.51.46-.51.46-.51.45h-.24v-.16l0-.06.22-.29.23-.28.22-.28.21-.28.22-.27.22-.26.23-.27.22-.27.46-.52.47-.51.47-.5.46-.51.48-.49.48-.49.49-.49.5-.49.49-.5.51-.48.5-.51.52-.49,0-.07,0-.08,0-.08,0-.07,0-.08v-.08l0-.07v-.17l0,0V31l0,0,0,0h0l0,0,0,0h-.22l-.28.21-.28.21-.27.21-.26.22-.26.21-.26.23-.27.23-.27.21-.45.39-.44.39-.46.39-.45.4-.45.39-.45.4-.44.4-.45.4-.44.4-.46.4-.44.4-.44.4-.45.41-.44.4-.44.4L46,39l-.14.11-.23.17-.27.22-.3.23-.16.11-.15.1-.14.09-.15.09-.06,0-.06,0-.07,0-.06,0H44v-.17l0,0,0-.09,0-.1.11-.17.12-.18.39-.46.39-.46.39-.45.4-.46.41-.45.4-.44.41-.44.41-.45.4-.43L48.4,35l.41-.43.42-.44.41-.44.43-.43.41-.42.43-.44.22-.19.2-.19.22-.2.21-.21.2-.21.19-.22.18-.22.18-.23.09,0,.09,0,.09,0,.1,0,.09,0,.09,0,.11,0h1l.22,0h1.12l.11,0h.11l.1,0,.1,0h1.44l.25,0h.23l.1,0,.11,0,.13,0,.16,0,.16,0,.18,0h.17l.19,0h.75l.06,0H60l0,0,.05,0,0,0,0,0,0,0,0,0,0,0,0,0,0,0-.05,0-.07,0h-.06l-.15,0-.15,0H58.23l-.1,0h-.7l-.61,0-.6,0-.6,0-.61,0-.61,0-.6,0-.6,0-.61,0L52,30l-.6,0-.6,0-.61,0-.6,0-.6-.05-.6,0-.11,0-.09,0-.09,0L48,29.58l-.16-.09-.15-.1-.08,0-.07,0-.08,0-.08,0-.08,0-.08,0H47l-.17.07-.15.08-.16.06-.12.05-.12,0-.1,0h-.41l-.11,0-.11-.05-.12-.06-.13-.08-.15-.09L45,29.07h-.28l-.13,0-.13,0-.12,0-.13,0-.13.05-.13,0H42.69l-.42,0-.42,0-.42,0-.42,0-.42,0-.41,0-.43-.05-.4,0L38.93,29l-.41-.05-.42-.05-.41-.06-.41-.05h-.5l-.1,0-.09,0-.09,0,0,0,0,0,0,0,0,0,0,0h0V29l0,0v.18l0,.06v.06l0,.08,0,.06.15.07.14.05.15.05.15,0,.15.05.15,0,.15,0,.16,0,.31.05.31,0,.32,0,.33,0,.09.05.06,0,0,0,0,0,0,0,0,0v0l0,0v0l0,0v.11l0,.06v.06l0,.08,0,.07-.07.16-.08.18-.22.32-.22.31-.22.3-.22.3-.22.32-.24.34-.26.37-.28.42-.46.45-.35.36-.26.27-.19.2-.16.16-.13.15-.14.16-.16.18-.08.06-.07,0-.08,0-.08,0-.09,0-.08,0-.09,0-.08,0-.18,0-.18,0-.18,0-.18,0H32.38l-.17,0-.16.05-.16,0-.15,0-.17,0-.15,0-.17,0-.16,0H28.74l-.25,0-.23,0H28l-.23,0-.23,0-.24,0h-.78l-.09,0h-.11l-.11,0-.09,0-.1,0-.1,0-.1,0-.1-.05-.11-.07v-.2l.25-.35.25-.35.23-.33.24-.33.25-.32.26-.32.14-.16.13-.16.14-.17.15-.16.37-.29.38-.28.17-.14.2-.13.09-.06.08,0,.1-.05.1,0,.09,0,.1,0,.1,0,.1,0,.09,0h.3l.1,0,.11,0,.1,0,.11,0,.1.05.1.06.11.08.11.09.13.16.14.18.07.1.08.09.08.08.08.08,0,0,.05,0,0,0,.05,0,.05,0,0,0,.05,0h.26l0,0,.06,0,.05,0,.06,0V33l0-.12v-.1l0-.11,0-.1,0-.1L32,32.41l0-.09-.05-.09-.05-.07,0-.08L31.71,32l-.05-.07-.06-.07-.07-.07-.07-.06-.08-.06-.08-.06-.07-.05-.08-.06-.1-.05-.17-.11-.2-.09-.2-.09-.22-.08h-.72l-.25,0h-.12l-.12,0-.11,0-.13,0-.11,0-.11,0-.11,0-.11,0-.39.38-.39.38-.39.39-.37.39-.38.39-.37.4-.38.4-.37.4-.09.05-.09,0-.09,0-.1,0-.09,0-.11,0h-.19l-.1,0H24.1l-.07,0H24l-.07,0-.06,0-.06,0,0,0,0,0,0,0,0-.05v0l0,0,0-.05,0,0,0-.06.07-.06.08-.06L24,34l.12-.07.14-.07.1-.07.08-.08.09-.1.13-.17.06-.22.07-.23.06-.23.05-.22.09-.46.09-.45.07-.45.07-.46.06-.45.06-.45,0-.46.05-.45,0-.46,0-.45,0-.46v-.46l0-.46,0-.47,0-.3,0-.24,0-.26,0-.29.06-.37.07-.5.1-.65.14-.84.06-.1.05-.06,0-.06.11-.07h.25l.13,0,.14,0,.25.09.25.09.14,0,.13.05.13,0,.14,0,.14,0,.15,0,.13,0h.15l.05,0,0,0,.05,0,.06-.05.2-.13.34-.27h.48l.23,0,.24,0,.23,0,.25,0,.24,0h.26l.2-.05.2,0,.19,0,.2,0h.77l.38,0,.39,0h.19l.2,0h.4l.06,0,.05,0,0,0,0,0,0,0,0,0,0,0,0,0v0l0,0v-.25l0,0,0,0,0,0-.06-.06-.07-.05-.07-.07-.08-.05-.09,0-.09,0-.37,0-.35,0-.35,0-.37,0-.36,0-.36,0-.35,0-.36,0-.27-.05-.28-.05-.27,0L30.1,21,30,21l-.14,0-.12,0-.14,0-.13,0-.12,0-.13-.06-.11-.05-.16-.16-.12-.13-.07-.06-.07,0,0-.05-.06,0-.05,0-.06,0-.06,0,0,0h-.44l-.12,0-.13.05-.3.11-.35.14h-.14l-.13,0-.12,0-.11,0-.1-.05-.09-.05-.07-.06-.08-.07-.06-.07L26,20,26,19.9l0-.09,0-.1,0-.1,0-.11,0-.11,0-.11v-.72l0-.13,0-.23,0-.23,0-.22,0-.21,0-.47,0-.46,0-.46,0-.46,0-.46,0-.47,0-.46,0-.46,0-.45v-.46l0-.47v-.91l0-.47v-.91l.1-.19.09-.18.09-.16.1-.17.08-.16.08-.18,0-.09,0-.08,0-.1,0-.09.14-.27.13-.27L27.31,8l.14-.26.13-.27.15-.27.13-.26L28,6.65l.13-.28.14-.26.14-.25.14-.28.13-.26.14-.26L29,4.79l.14-.27.12-.15.12-.14L29.52,4l.3-.32L30,3.54l.14-.17.12-.17L30.35,3l.13-.16.12-.14.14-.14.13-.13L31,2.34l.14-.12.15-.12L31.46,2l.17-.11.17-.11.19-.1.2-.1.24-.05.19,0,.09,0,.07,0,.07,0,.06,0,.06,0,.07,0,.07,0,.06,0,.16-.12.19-.14L33.6.83l.08-.11,0-.09,0-.09,0-.08V.39l0-.07,0-.06,0-.05-.06,0-.06,0-.07,0-.08,0-.08,0-.09,0-.11,0h-.65l-.22,0-.21,0-.19,0-.16,0-.11,0-.14.1-.14.11-.13.1L31,.58l-.2.21L30.65,1l-.2.2-.2.2-.41.4-.42.4L29,2.59l-.4.41-.19.2-.21.2L28,3.61l-.19.22-.16.29-.17.3-.18.31L27.15,5l-.18.3-.18.3-.1.14-.1.15-.1.13-.1.14h-.24l-.1-.12L26,6l-.09-.09-.09-.07-.08-.06-.08-.06-.08,0-.06,0h-.25l0,0-.05,0-.05,0L25,5.8l0,.06,0,.06,0,.06,0,.08,0,.08,0,.09,0,.09,0,.09-.11.42-.1.43v3.29l0,.29,0,.3,0,.3,0,.29-.06.28v.31l0,.1,0,.14,0,.16,0,.23v2.69l0,.44v.41l0,.42,0,.43,0,.21,0,.21,0,.21,0,.22,0,.21,0,.21,0,.23-.05.22-.05.22L24,19.5l-.05.22L23.9,20l0,.4v.31l0,.25v.23l0,.22v.25l0,.29v7.19l0,.12,0,.11,0,.1,0,.09,0,.08-.05.06,0,.07-.06.05-.06.05-.07,0-.08,0-.08,0-.08,0L23,30l-.1,0-.11,0-.29,0-.28,0-.28,0-.3,0-.36,0-.44,0-.55.05-.71,0h-7l-.11,0-.1,0-.1,0-.08,0-.09,0h-.47l-.08,0-.08,0-.1,0-.09,0-.11,0h-.2l-.23,0H10l-.22,0H9.38l-.21.07L9,30.37l-.24.1-.24.11-.26.13L8,30.86l-.12.06L7.7,31l-.13.08-.12.08-.12.09-.11.09-.11.09L7,31.52l-.1.1-.1.1-.09.1-.08.1L6.56,32l-.08.11-.06.1,0,.11,0,.12,0,.11v.24l0,.08,0,.08.05.07,0,.08v.26l0,.09,0,.1,0,.11,0,.11,0,.1-.11.23L6,34.37l-.14.23-.15.24-.15.24-.15.24-.15.23-.15.21-.26.39-.2.32-.27.35-.27.36-.26.36-.28.36-.27.36L3,38.61,2.76,39l-.28.36-.28.34L1.92,40l-.29.35-.28.35-.29.35-.29.34-.28.35-.28.34-.06.12,0,.09,0,.08,0,.08v.25l0,.05,0,.06,0,.07.06,0H.21l.06,0H.41l.06,0,.08,0,.07,0,.07,0,.07,0,.07,0,.07-.05.07,0,.06,0,.08-.06.06-.06.13-.13.13-.12.12-.14L1.67,42l.22-.24.18-.2H2.3l0,.11v.46l0,.09,0,.08,0,.08,0,.08,0,.08,0,.08-.07.16L2.05,43,2,43l0,.07,0,.07,0,.08v.21l0,.06,0,.08,0,.06,0,.07.05.07.07.08.08.06.09.08.11.06h.24l.11,0,.12,0L3,44l.1,0,.11-.06.1-.06.09-.06.1-.07.08-.08.1-.08.08-.08.09-.09L4,43.27l.08-.1.34-.37.33-.37.08-.09.09-.08L5,42.17l.09-.08L5.14,42,5.23,42l.1-.07.1-.06h.08l.07,0,.07,0,0,0,0,0,0,0,0,.05,0,.06,0,.05,0,.08,0,.06,0,.08,0,.16,0,.17.1.18.07.16.06,0,0,.06,0,0,0,.06.05,0,.06,0,0,0,.08,0,.16.08.2.07.37,0,.35,0H9.48l.37,0h.36l.37,0,.36,0,.36,0,.37,0,.36,0,.36,0,.36,0h.94l.47,0,.47,0,.46,0,.47,0,.47,0,.46,0,.47,0,.46-.05.46-.06.47-.06.47-.06.46-.07.47-.07.46-.07h.25l.23,0h.59l.06,0h.09l.06,0,.05,0,.05,0,0,0,0,0,0,0,0,0,0,0,0,.06,0,.06,0,.07v.67l0,.33v.35l0,.33v.33l0,.34,0,.34,0,.35,0,.33,0,.33,0,.35,0,.33v.34l0,.35,0,.33-.09.44-.1.44-.09.46-.08.45-.08.46-.09.46-.08.46-.08.45-.06.11-.05.1,0,0,0,0,0,0,0,0,0,0-.05,0,0,0,0,0-.1,0-.11,0h-.84l-.3,0h-.28l-.13,0-.14,0-.14,0-.13,0-.12,0-.13,0L18,52.3l0-.07v-.15l.17-.32.17-.31.08-.17.08-.16.08-.17.06-.16,0-.08,0-.09,0-.07,0-.09v-.08l0-.09v-.51l0-.09,0-.08,0-.09,0-.09v-.37l0-.11,0-.21,0-.2V48l0-.11,0-.13,0-.13.06-.18.05-.16,0-.08,0-.08,0-.07V47l0-.08V46.7l0-.08,0-.07,0-.09,0-.09-.32-.18-.24-.13L18.2,46l-.07,0,0,0,0,0,0,0,0,0v-.32l0-.27,0-.36L18,44.8l0-.09-.05-.07-.06,0,0-.05-.06,0-.06,0h-.13l-.06,0-.06,0-.07,0-.06,0-.08,0-.06.05-.07.06-.12.12-.14.14-.12.14-.12.14-.21.26-.15.19-.08.13L16,46l-.11.12-.1.12-.21.24-.22.24-.1.12-.09.12,0,.07,0,.06,0,.06,0,.07,0,.07,0,.07,0,.07,0,.06v.15l0,.08v.07L15,48l.07.24.07.25.05.26,0,.13,0,.13v.13l0,.14v.53l0,.1,0,.1v.09l0,.08v.37l0,.07v.07l0,.09.05.17.07.21v1l0,.08,0,0,0,0,0,0,0,0-.07.08-.06.09-.21.19-.27.28-.28,0-.34,0h-.19l-.19,0h-.77l-.08,0-.08,0-.08,0-.06,0-.06,0-.06,0,0-.05,0-.06,0,0,0-.06v-.15l.05-.16.06-.13,0-.13,0-.11,0-.11,0-.1,0-.1v-.19l0-.1,0-.1,0-.11,0-.1,0-.12,0-.14-.05-.14,0-.15,0-.14.05-.12,0-.12.05-.11,0-.11,0-.1,0-.1v-.4l0-.05v-.06l0-.06,0-.06,0,0-.05-.07,0-.06L12.28,49l0-.16,0-.14,0-.11,0-.12v-.37l0-.08,0-.09,0-.09.05-.09,0-.1.07-.1.08-.11.1-.12,0-.14,0-.12v-.38l0,0v0l0,0v0l0,0,0,0,0,0-.07,0-.08,0-.08,0-.09,0-.11,0-.11,0,0,0-.05-.06-.05-.08,0-.09-.05-.08-.06-.1-.06-.1-.07-.1-.08,0-.09,0H11l-.08,0-.09,0-.09,0-.08,0-.08,0-.08,0-.08,0-.08,0-.07,0-.08.05-.08.06L10,46l-.06.05-.15.13-.12.13-.12.14-.11.14-.09.15-.08.12V48l0,.39,0,.2,0,.21,0,.19,0,.19,0,.19,0,.19,0,.17,0,.18v.16l0,.09v.07l0,.07v.07l0,.06,0,.07.06.12,0,.11.07.1.07.11.14.2.15.22.07.12.07.12.07.13.06.15v.22l0,.1,0,.09,0,.08,0,.07-.05.06,0,.06-.05,0-.06.05-.06,0-.07,0-.08,0H9.32l-.07,0-.09,0H8.47l-.35,0H7.79l-.06,0H7.51l-.15,0H6.15l-.13,0-.06,0H5.83l-.06,0-.06,0-.06,0,0,0-.06,0v.41l0,.07.05.06.07.05.08,0,.08,0,.1,0,.09,0,.1,0h.11l.13,0h.1l.13,0h.77l.26,0h.11l.12,0L8,54l.11,0,.1,0,.1,0,.1,0,.07,0,.09.06.06,0,.06.07,0,.08v.66l0,.16,0,.16,0,.16,0,.16,0,.14v.08l0,.07,0,.07,0,0,0,.07,0,.05,0,0,0,.05,0,0,0,0-.05,0,0,0-.27,0H5.68l-.28,0-.27,0H4.85l-.26,0-.27,0-.26,0-.26,0H3l-.06,0H3l0,0,0,0,0,0,0,0,0,0,0,0,0,0,0,.09,0,.12,0,.13,0,.16-.08.08-.06.06-.05.07,0,.06,0,.05,0,.06v.19l0,0,0,0,0,0,.05,0H3l.15,0,.16,0,.16,0,.15,0H5.26l.26,0h.63l.39,0,.42,0,.49,0,.34,0,.26,0,.2,0,.15,0,.1,0,.1,0,.08,0,.1,0H9l.17,0H9.3l.18,0,.35,0,.36,0h.54l.19,0H11l.09,0,.08,0,.09,0,.09,0,.08,0,.08,0,.09,0v.05l0,.06v.06l0,0,0,0,0,0-.05,0-.05,0-.1,0-.1,0-.2,0-.2,0-.1.08-.11.08-.1.08-.1.1-.09.09-.08.1-.08.1-.08.11-.07.1-.08.12-.07.12-.06.12L9.69,60l-.14.24v.28l0,.26v.13l0,.14v.12l0,.13,0,.12,0,.15,0,.11,0,.13.05.13,0,.13.06.12.07.13v.38l0,.38,0,.37v.38l0,.38,0,.37,0,.39,0,.38-.07.21-.08.21L10,66l-.09.21-.07.21-.07.2-.08.21L9.61,67v.31l0,.15v.15l0,.16,0,.15v.31l-.05,0-.05,0,0,0-.06,0,0,0H9.4l-.06,0H9.27l-.13,0H8.7l-.3,0-.31,0-.13,0-.13,0H7.6l-.19.07-.19,0L7,68.5l-.18,0-.17,0H6.51l-.17,0H4.72l-.07,0-.08,0-.08,0-.07,0-.08,0-.07.06-.07.05L4.13,69,4.07,69,4,69.1l0,.06-.06.06,0,.07-.05.06,0,.07,0,.06,0,.07v.06l0,.06v.2l0,.06,0,0,0,.07,0,0,.06.05.07,0,.07,0,.1,0,.1,0,.12,0h.17l.17,0,.17,0,.17,0,.34-.06.34-.06.35-.07.34-.05.17,0,.19,0h.36l.32,0,.31,0,.32,0,.32,0,.32,0,.32,0,.32,0,.32,0,.32,0,.32,0,.32,0,.33,0,.32,0h.33l.32,0h.33l.32.08.3.07.15,0,.14,0,.14,0H14l.14,0,.16,0,.16,0,.18,0h6.3l.11,0,.13,0h.67l.26,0h.68l.14,0h.12l.14,0h3l.25,0h.78l.15-.06.16,0,.17-.06.15,0H29l.55,0h.55l.56,0,.54,0h.55l.56,0h.55l.56,0,.55,0h2.78l.19,0,.21,0,.2,0,.21,0h1.71l.42,0,.42,0h3l.44,0h.87l.43,0,.44,0,.44,0,.44,0,.44,0,.43,0,.2,0,.23,0H48l0,0h0l0,0,0,0,0,0V70.2l0,0,0-.05,0-.07,0-.07-.11,0-.12,0-.13,0-.11,0-.25-.07-.24-.06-.25,0-.25,0-.26,0-.25,0-.26,0H45.6l-.25,0-.26,0-.24,0-.26,0-.24,0-.24,0H42.5l-.4,0H38.47l-.4,0-.39,0h-.56l-.51,0h-1l-.14,0H35.4l-.11,0h0l0,0,0,0,0,0,0,0,0,0v0l0,0,.07,0,.05,0,.06,0,.07,0,.09,0,.09,0h.09l.2,0,.21,0h2.36l.26,0h2.68l.21,0h.82l.24,0h.26l.28,0,.31,0h.34l.07,0,.08,0,.07,0,.07,0-.22-.12-.15-.08-.07-.05-.06,0-.07-.06L43.44,68l0-.07,0-.07v-.51l0-.09,0-.1,0-.1,0-.09.07-.21.07-.2.08-.2.09-.2.1-.18.09-.19.09-.16.1-.15.09-.13.09-.12.11-.21.13-.23.12-.24.13-.25.06-.13.06-.13,0-.12.05-.13,0-.13,0-.11v-.25l-.07-.19L45,63l-.07-.18-.06-.16-.06-.18,0-.17,0-.17,0-.17,0-.18,0-.16v-.53l0-.18,0-.19,0-.19V60.3l0-.07,0-.13L44.65,60l-.11-.27-.1-.27,0-.07v-.06l0-.06v-.3l0-.06,0,0v0l0-.05,0,0,0,0,.05,0,.06,0h3.18l.48,0,.06,0,.06,0,.07,0,0,0v.09l0,0v0l-.14.18-.13.19-.13.18-.13.2-.12.2-.11.2-.11.2-.12.2-.22.42-.22.42-.22.4L46.7,62l-.05.13,0,.11,0,.11,0,.1,0,.08V63l0,.09,0,.08,0,.1.05.11.07.12.08.13v.16l0,.08,0,.08,0,.07,0,.08,0,.08,0,.06-.15.3-.14.29-.07.15-.06.15,0,.07,0,.08,0,.08v.23l0,.08v.09l0,.08,0,.09,0,.09,0,.08.08.08.08.08.08.09.08.08.07.09.07.1.07.09.06.11.06.1L47,67l.05.11,0,.12,0,.11,0,.12v.26l0,.05,0,.06,0,0-.05,0,0,0,0,0-.06,0,0,0-.09,0-.09,0-.1,0-.1,0-.19,0-.22,0H46l-.11,0-.1,0-.11,0v.13l.12,0H46l.19,0h.58l.15,0,.1,0,.07,0,.08.06.09.07.09.07.09.08.1.08.11.08.11.08h.34l.11,0,.12,0,.13,0,.11,0,.12,0,.12-.06.12-.07.11-.07.1-.07.11-.08.09-.08.1-.08.07-.07v-.14l0,0,0,0v0l0,0,0,0L49.24,68l-.11-.1-.06-.13,0-.1,0-.09,0-.08,0-.09V67l.22-.37.23-.4.1-.19.11-.2.1-.2.1-.21.09-.19.08-.21,0-.1,0-.1,0-.11,0-.1,0-.11,0-.1,0-.11v-.11l0-.11v-.33l-.08-.19-.08-.16L50,63.27l-.09-.17.09-.23.06-.18,0-.09,0-.08,0-.07V62l0-.08,0-.09,0-.11-.07-.05-.06,0-.05-.06,0,0,0-.05,0,0,0,0,0-.06v0l0-.05v-.28l0-.09,0-.1,0-.11.07-.1.14-.23.14-.25,0-.12,0-.12v-.46l0-.06,0,0,0,0,0-.05,0,0,0,0-.05,0,0,0L49.69,59l-.17-.06,0,0,0,0,0,0,0,0,0,0v-.14l.09,0h.75l.21,0,.22,0,.21,0,.22,0,.14.07.12.07.11.06.09,0,.1,0,.08,0h.23L52,59l.08,0,.11,0,.22-.11.28-.14.27,0,.31,0h.17l.17,0h.69l.18,0,.16,0h.07l.09,0h.06l.08,0,.07,0,.06,0,.06,0,.06,0,0,0V59l0,.09,0,.09,0,.1,0,.09,0,.09-.05.1-.11.18-.12.18-.12.16-.1.15-.15.32-.15.33-.15.32-.15.32-.15.33-.14.33-.16.33-.15.32v.07l0,.09v.15l0,.15,0,.16,0,.16,0,.17v.34l-.15.39-.1.31,0,.13,0,.12,0,.11v.3l0,.12,0,.13.05.14,0,.15.08.17.09.21,0,.18v.54l0,.18,0,.17v.19l0,.18-.07.06-.07,0-.07,0-.07,0-.07,0-.07,0-.07,0-.07,0-.15,0-.16,0-.16,0-.16,0v.06l0,.06.13,0,.14,0,.13,0,.13,0h.13l.14,0h.14l.16,0,.13.12.11.11.09.11.1.1.08.1.07.1.08.07.08.07,0,0,0,0,0,0h.05l0,0h.29l.08,0,.07,0,.09,0,.09,0,.08,0,.1,0,.09-.11.07-.09,0-.09.05-.08.08-.13.08-.11,0,0,0,0,.06-.05.06,0,.08,0,.09,0h.1l.12,0H58.9l.13,0,.12,0,.13,0,.12,0,.12,0,.11,0,.11,0,.09.05.1,0,.12.18.11.16.1.14.08.1.06,0,0,0,0,0,0,0,0,0h0l0,0h.18l0,0h.06l0,0,.05,0,.06,0,.12-.08.13-.11.15-.11.15-.13.06,0,.05,0h.06l.07,0h.51l.13,0,.14,0,.13,0,.13,0L63,69l.14,0,.26.08.25.07H65l.14,0,.12,0,.06,0,.06,0,.06,0,0,0,.06,0,0,0,.05,0,0,0,0,.2.05.2,0,.08,0,.09,0,.08,0,.08,0,.08,0,.08,0,.07.05.08,0,.07.08.08.07.07.07.09.1,0,.09,0,.08,0,.07,0,.07,0,0,0,0,0,0-.05,0,0v0l0-.06v0l0-.12v-.68l0-.06,0,0,0,0,0,0,.05,0,.06,0,.07,0H69.5l.42,0,.17,0,.26,0,.15,0h.67l.06,0h.06l.06,0,0,0,0,0,0,0,0,0,0,0V69l0-.07-.11,0-.11,0-.11,0-.13,0-.11,0-.12,0-.12,0-.13,0h-.25l-.14,0H70l-.26,0H68.71l-.25,0h-.13l-.12,0-.12,0-.13,0-.11,0-.12,0-.12,0-.12,0,0,0,0,0,0-.05,0-.06,0-.06V67.6l0-.07,0-.14,0-.14.06-.14,0-.14.06-.13,0-.13.12-.24.08-.2L68,66l.14-.29.13-.31.14-.31.14-.31.13-.32.13-.33.11-.33.12-.33.1-.34,0-.16,0-.17,0-.16,0-.17,0-.17,0-.15,0-.17,0-.15,0-.16V61.2l0-.09,0-.08-.05-.09,0-.09,0,0-.06,0,0,0,0,0,0,0,0,0,0,0,0,0,0,0v-.05l0-.06v-.06l0-.05v-.56l0-.11,0-.11,0-.12,0,0,0,0,0,0,0-.05h.17l.08,0h.06l.16,0,.15,0,.15,0,.16,0h.37l.14,0,.15,0,.15,0,.14,0,.14,0h.14l.15,0h.14l.29,0,.29,0,.15,0h.15l.15,0,.16,0v-.25l-.05,0,0,0,0,0,0,0-.09-.12-.16-.17,0-.17v-.19l0-.2v-.23l0-.22,0-.23,0-.24,0-.23,0-.11,0-.12,0-.11,0-.11,0-.1,0-.1,0-.1,0-.1,0-.08,0-.08,0-.08.05-.07.06-.06.06-.06.06,0,.06,0,.18,0,.18,0,.17,0,.18,0,0-.06v-.06Zm-16-13v-.06l0-.07,0-.07,0-.06,0-.08.05-.06,0-.08,0-.08.06-.07.06-.07.07-.08.14-.15.14-.15.16-.14.16-.14.17-.13.16-.12.15-.1.15-.09.07,0,.07,0,.06,0,.06,0v.06l0,.06,0,.06,0,.07-.07.13-.07.16-.09.15-.09.15-.11.16-.1.15L59,41.5l-.11.14-.12.14-.11.13-.13.11-.1.11-.12.09-.1.06-.06,0H58l0,0,0,0,0,0,0-.05Zm-6.13-.44.17-.19L52,41.3l.17-.18.18-.17.18-.17.19-.16.18-.17.38-.33.38-.32.39-.31.39-.3.27-.27.28-.24.28-.26.28-.25.28-.24.29-.25.28-.25.28-.24L57,37l.29-.24.29-.24.29-.23.29-.23.3-.24.29-.23.3-.23h.27v.27l-.34.4-.34.4-.35.4-.34.39-.35.4-.35.39-.35.4-.34.4-.36.4-.34.4-.33.41-.33.41-.33.42-.32.42-.31.43-.31.44-.08,0-.06,0,0,0-.08,0-.09,0-.12,0-.17,0-.22,0h-.79l-.12,0H52l-.1,0-.06,0h-.05l0,0,0,0,0,0,0,0,0,0,0,0,0,0,0,0v-.1Zm-3.84.21V41.8l0-.09,0-.08,0-.08,0-.06.05-.06.06-.06.06-.06.07-.05.07-.06.15-.12L48.6,41l.24-.23.21-.22.23-.23.22-.22.23-.22.23-.21.22-.21.23-.22.23-.22.23-.2.23-.21.23-.21.23-.21.25-.21.23-.21.24-.21.18-.22.21-.25.12-.12.11-.14.14-.12.12-.12.14-.12.13-.11.14-.1.13-.1.07,0,.08,0,.06,0L54,36l.07,0,.07,0,.06,0h.06v0l0,.06,0,0,0,.07-.09.14-.12.14-.13.16-.14.18-.16.17-.16.18-.34.36-.31.33-.27.28-.19.21-.18.21-.18.21-.17.21-.17.22-.18.21-.17.21-.16.22-.18.21-.13.2-.14.2-.14.19-.14.2-.15.17-.15.19-.07.09-.09.08-.07.08-.09.08-.09.07-.08.08-.09.06-.09.07-.09.06-.1.06-.08.05L49,42l-.1,0-.11,0-.11,0-.1,0-.13,0-.1,0-.13,0h-.12l-.06,0-.07,0-.06,0,0,0v-.23Zm-3.34-.37.11-.12.12-.13.13-.12L45,41l.14-.13.13-.1.15-.11.28-.21.3-.2.29-.19.28-.18v.2l0,.07,0,.06,0,.07,0,.07-.07.15-.1.16-.09.15L46,41l-.1.16-.12.16-.12.14-.11.14-.11.12-.11.1-.1.09-.09.07H44.6l-.06,0,0,0,0,0H44.4v-.27Zm-2.81.14-.06,0h-.07l0,0v-.23l0,0h.21v.22Zm1-5-.18.19-.21.22-.25.25-.24.25-.14.13-.12.12-.13.11-.14.11-.13.09-.11.08-.07,0-.06,0-.06,0-.06,0,0-.13.06-.14.07-.17.09-.17.1-.16.12-.17.11-.19.14-.16.06-.09.07-.08.06-.07.08-.08.07-.06.07-.07.07-.06.07-.06.08-.06.06,0,.08,0,.07,0,.06,0,.08,0h.13l0,0v.38Zm2.52-3.95.25-.34.26-.34.28-.34.14-.17.14-.17.13-.16.15-.15.15-.15.14-.13.16-.13.14-.11.09,0,.09,0,.09,0,.09,0,.09,0H49.6l.19,0h.1l.1,0h.1l.09,0h.49l0,0h.05l0,0,.1.06.13.08v.38l-.27.27-.28.26-.28.26-.28.26-.28.25-.28.24-.29.25-.28.24-.27.28-.26.27-.13.14-.13.12-.12.12-.14.13-.13.11-.13.11-.14.11-.15.1-.15.11-.15.1-.16.09-.17.09,0-.07,0-.06,0-.07,0-.07.07-.14.08-.14.08-.14L47,34l.11-.14.12-.14.11-.13.12-.13.11-.13.12-.13.22-.23.21-.22.19-.22.19-.22.09-.11.08-.1.08-.11.08-.11,0-.05,0-.06,0-.05v-.06l0-.06v-.29l0-.06,0-.07,0-.05,0-.07,0-.06,0-.08h-.34l0,0-.06,0-.08.06-.09.06-.57.56-.51.5-.44.44-.39.38-.35.33-.28.28-.25.24-.21.2-.17.17-.15.14-.11.12-.09.08-.08.08-.06.06-.07.06,0,.05-.14.1-.13.09,0,.05-.05,0-.07,0,0,0h0l-.06,0h-.07l-.06,0h-.29v-.14l0-.07V35l0-.08,0-.07,0-.08,0-.08,0-.08,0-.07.05-.08.06-.08.11-.15.11-.17.13-.15.13-.15.14-.14.13-.15.25-.26.23-.21Zm-2.24-.3.35-.36.36-.38.36-.36.36-.36.38-.37H45v.27l-.21.25-.22.25-.2.25-.22.24-.2.25-.21.25-.22.24-.2.25-.22.24-.2.25-.21.25-.2.24-.21.25-.22.25-.21.25-.21.24-.14.14-.14.12-.14.12-.14.12-.07,0-.08,0-.08,0-.08,0-.08,0-.08,0-.09,0h-.1l0,0,0,0V35.3l0-.07,0-.06,0-.07,0-.07,0-.07,0-.07,0-.07.12-.16.13-.15.14-.16.13-.15.16-.13.14-.14.26-.23.18-.16.36-.39.35-.37Zm-3.75,1.66,0-.1v-.08l0-.09.1-.19.13-.23.16-.27.17-.31.19-.32.22-.33.12-.17.1-.15.12-.17.12-.16.13-.16.11-.14.13-.14.13-.14.13-.11.12-.11.12-.09.13-.09.13-.07.13-.05.12,0h.25l.11,0,.12,0,.12.07v.29l-.26.28-.25.28-.25.27-.26.28-.25.28-.26.28-.25.28-.25.28-.17.15-.17.16-.17.17-.18.16-.09.08-.09.08-.1.07-.1.07-.09.07-.09.06-.1,0-.11,0Zm-1.73,5.12v-.07l0-.08,0-.08,0-.08,0-.08,0-.08,0-.08.1-.16.11-.18.12-.16.13-.17.27-.32.26-.31.24-.27.2-.25.06,0,0,0,0,0,0,0h.22v.11l0,.06,0,.07,0,.06,0,.08,0,.08-.05.08-.11.17-.13.18-.13.18-.15.19-.15.18-.15.19-.15.16-.16.18-.14.14-.13.14-.11.12-.1.1-.06,0-.05,0-.06,0,0,0ZM24.74,55.62V55.3l0-.09,0-.1V55l0-.09.05-.09v0l0,0,0,0,0,0,0,0,0,0,0,0,0,0,.07,0,.08,0,.08,0h.08l.18,0h.79l.21,0,.2,0,.21,0,.1,0,.09,0,.1,0,.1,0,.09,0,.09,0,.09,0,.08,0,.08,0,.07.05.08,0,.07.06v.21l0,.13v.13l0,.14v.15l0,.14,0,.15,0,.15,0,.14,0,.13-.05.12-.06.11-.05.1,0,0,0,0,0,0,0,0H26l-.24,0h-.25l-.24,0-.18,0-.07,0-.06,0,0,0,0-.05,0,0,0,0,0-.07v-.07l0-.19,0-.25v-.43ZM14,33.55l.22-.3.22-.3.23-.29.22-.29.22-.29.24-.29.23-.29.18,0,.21-.06.11,0,.11,0,.12,0h.35l0,0,0,0,0,0,0,0,0,0,0,0,0,0,0,.05v.19l-.22.25-.23.25-.23.24-.23.23-.25.24-.24.22-.25.22-.26.23-.31.36-.33.37-.32.38-.33.37-.32.38-.32.37-.32.38-.31.38-.31.29-.17.16-.06.06-.07,0-.06,0-.08,0v-.2l0-.07,0-.07,0-.06,0-.07,0-.07.07-.14.08-.13.06-.13,0-.12.22-.29.22-.31.2-.3.22-.3.21-.31.22-.3.21-.3.22-.29Zm-3.85,2.52.05-.16.07-.15.06-.15.08-.14.07-.15.09-.14.09-.14.19-.27.19-.26.2-.26.18-.27.21-.26.21-.25.21-.26.21-.26.21-.26.21-.25.21-.26.22-.26.07,0,.07,0,0,0h.38l0,0,0,0v.36l-.17.25-.2.26-.2.27-.21.27-.22.28-.22.28-.22.28-.24.28-.23.27-.24.26-.24.26-.24.25-.13.11-.12.11-.13.11-.11.1-.13.1-.13.1-.12.08-.13.09Zm11.74,5.09,0,.18,0,.17,0,.08,0,.08,0,.08,0,.07-.07,0-.07,0-.08,0-.07,0-.09,0-.08,0-.08,0-.08,0-.15,0-.17,0-.16,0-.18,0-.33,0-.34,0-.34,0-.34,0H16.86l-.2,0h-.22l-.23,0H16l-.29,0H12.6l-.35,0H11.9l-.35,0h-.7l-.34,0H9.83l-.11,0-.09,0-.08,0-.08,0-.07,0-.08,0-.07,0-.06,0L9.08,42,9,41.88l-.13-.12-.14-.14-.09,0-.1,0-.1,0H7.91l-.19,0H7.46l-.08,0H7.32l-.05,0,0,0v-.11l0-.06v-.06l0-.05,0-.07v0l0-.05.07-.11.07-.12.09-.11.08-.11.1-.1.1-.1.1-.1.1-.09L8.26,40l.18-.16h.21l.06,0h.08l0,0,0,0,0,0,0,0,0,0,0,0,.08.11.09.14.08,0,.07.05.09,0,.07,0,.06,0,.08,0h.33l.06,0,.06,0,.07,0,.06,0,.06,0,.11-.08.12-.08.11-.11.12-.1.23-.23.23-.22.13-.17.12-.14.05-.08,0-.07,0,0,.06-.05.06,0,.06,0,0,0,.07,0,.07,0H12l.08,0h.11l.09.09.07.09.07.08.06.06.07.05,0,0,.06,0,.06,0H13l.23,0,.28,0,.05,0,.06,0v.28l0,.27v.25l0,.12,0,.1v.05l0,0,0,0,0,.05,0,0,0,0,0,0,0,0,0,0,.05,0,.06,0,.07,0,.07,0,.07,0,.09,0,.08,0,.15-.06.14-.05.14-.08.13-.08.13-.08.13-.09.12-.11.13-.1.12-.12.11-.11.12-.11.12-.13.23-.26.22-.27.22-.28.23-.27.23-.27.23-.27.12-.12.12-.14.13-.12.11-.12.14-.11.13-.11.13-.11.13-.1h.26l.12.19.11.17.06.08.07.08.06.07.07.06,0,0,0,0,0,0,0,0,0,0h.23l0,0h.12l.05,0,.06,0,.06,0,.05-.08,0-.09,0-.07,0-.08v-.29l0-.15,0-.16,0-.08v-.26l.05-.16,0-.17.05-.16,0-.16,0-.15,0-.15v-.31l0-.06,0,0,0-.05,0,0,0,0-.05,0-.06,0h-.28l-.1,0-.09,0-.1,0-.12,0-.14.1-.13.11-.14.1-.13.1-.36.36-.32.31-.27.27-.24.24-.36.37-.26.27-.1.09-.09.08,0,0,0,0,0,0h0l0,0h-.26v-.15l0-.06,0-.12.05-.13.05-.14.07-.14.08-.14.08-.14.16-.29.17-.27.14-.24.13-.2.08-.11.14-.15.14-.17.16-.2.17-.23.17-.24.08-.12.08-.12.08-.12.07-.12.07-.12.06-.12.05-.11.05-.12,0-.1,0-.11,0-.09v-.17l0-.08,0-.06-.06,0-.06,0-.1,0-.1,0h-.13l-.19.16-.18.16-.17.16-.18.16-.17.17-.16.16-.17.18-.17.18h-.17l.09-.17.11-.17.09-.16.1-.16.2-.32.19-.32.09-.15.09-.16.07-.16.08-.17,0-.09,0-.09,0-.09,0-.09,0-.1,0-.09v-.2l.07-.11.06-.06L18,31.3l.08-.06.21,0,.23,0,.23,0,.22,0,.24,0,.23,0H21.8l.11,0,.07,0h0l0,0h0l0,0v.32l-.1.28-.11.29-.1.27-.1.27,0,.14,0,.13,0,.15,0,.13,0,.15,0,.15,0,.15,0,.16,0,.07,0,.07,0,.07,0,0,0,.06,0,0-.06,0,0,0-.09.1-.09.1-.05,0,0,.06,0,.06,0,.06,0,.17,0,.15v.71l0,.06v.07l0,.06,0,.06,0,.06,0,.06,0,0,0,.06.06,0,0,.06,0,0,.06.05.06,0,.05,0,.07,0,.07.05.06,0,.08,0,0,.08,0,.05V37l-.09.19-.06.16-.06.16,0,.12,0,.07V38l0,.1,0,.11,0,.11.05.11.13.27.16.34,0,.15,0,.15,0,.17,0,.17,0,.18,0,.19,0,.18v.91ZM19.5,56.39v-.18l.08-.23.07-.24.08-.26.09-.25.05-.12.06-.12.05-.12.06-.1.06-.11.06-.09,0,0,0,0,0,0,0,0h.33l.27,0,.13,0h.12l.12,0,.1,0,.1,0,.09,0,.07,0,.07,0,.08,0,.05.06.06.05,0,.06,0,.06L22,55,22,55l0,.09v.29l0,.11v.12l0,.13,0,.13,0,.15,0,.16,0,.15-.05.18,0,.18,0,0,0,0,0,0,0,0-.05,0-.05,0h-.05l0,0h-.13l-.12,0L21,57H20l-.17-.08-.12-.06-.05,0,0,0,0,0,0,0v0l0,0v-.22Zm-5.08,0,.08-.22.05-.22.08-.22.06-.22.07-.21.07-.2.07-.21.06-.05.06,0,.06,0,.06,0,0,0,.05,0,0,0h.3l0,0,0,0,.07,0,.07,0,.08.07.08.07.08.07.11.07.1.07.11.07h.17l.08,0,.08,0,.15-.11L17,54.8l.06-.06.08,0,0,0,0,0,0,0h0l0,0h.23l0,0,.07,0V55l-.13.09-.1.08-.09.09-.08.09-.06.09-.05.09-.05.1,0,.09L17,55.9l-.08.22,0,.12,0,.12-.06.13-.05.14-.05,0-.05,0,0,0-.06,0-.06,0-.06,0-.07,0-.06,0-.13,0-.14,0H14.58l-.05,0,0,0,0,0,0-.05,0-.07,0-.09Zm-2.82,0-.09,0-.06,0-.07,0h-.07l-.22,0-.22,0-.12,0-.11,0-.1,0-.09,0,0,0,0,0,0,0,0,0,0,0,0,0,0,0v0l0,0v-.25l0-.06,0-.06.15-.13.15-.13.14-.13.15-.13L11,55l.14-.12.15-.12.15-.1.07,0,.08,0,.07-.05.09,0,.08,0,.08,0,.09,0,.08,0h.38l.1,0,.1,0,.11,0,.1,0,0,.08,0,.08,0,.07v.23l0,.09,0,.07,0,.08,0,.09,0,.07-.05.08-.05.07,0,.08-.07.07-.06.07-.08.08-.07.06-.08.06-.07.07-.08.06-.07.06-.08,0-.09.05-.08,0-.07,0-.08.05Zm18.14,2.19,0,.09,0,.08,0,.08,0,.09-.06.09-.07.09-.07.08-.08.09-.09.1-.09.09-.1.09-.2.18-.22.19-.22.18-.23.2-.2.18-.21.19-.09.09-.1.09-.08.1-.08.08-.07.1-.07.09-.06.09,0,.09v1.28l.07.17.09.17.09.16.1.16.11.16.11.16.11.16L28,64l.1.08.1.06.1.08.08.07.08.06.07.07.07.07.05.07.06.07,0,.06,0,.07,0,.07,0,.08,0,.06,0,.07v.23l0,.08v.43l0,.41v.48l.06.14,0,.13L29,67l0,.11,0,.11v.46l0,.05v0l0,0,0,.05,0,0-.08.1-.07.1-.09.11-.11.1H28.4l-.11,0h-1l-.44,0-.52,0-.64,0-.75,0-.87,0-1,0-1.15,0-.15,0-.15,0-.15,0-.15,0-.15,0H21l-.14,0-.15,0-.18,0-.19,0-.19,0-.19,0-.2,0H13.49l-.4,0h-2l-.13,0-.11,0,0,0h-.1l0,0h0v-.25l.2-.17.2-.17.08-.08.08-.07.07-.09.07-.1,0,0,0,0,0-.06,0,0,0,0v-.41l0-.06,0-.08,0-.07,0-.07v-.31l0-.09,0-.1,0-.1,0-.09,0-.08,0-.1.05-.09,0-.09.05-.09.12-.17.12-.17.24-.34.26-.33.13-.17.1-.18.05-.08.06-.08,0-.09,0-.09v-.28l0-.08,0-.15-.05-.15,0-.14,0-.15v-.07l0-.09v-.19l.1-.23.1-.19,0-.08,0-.08v-.32l0-.09,0-.07,0-.1,0-.1-.05-.13V61l0-.1v-.09l0-.08,0-.08,0-.07,0-.07,0-.07.07-.13.08-.14,0-.07,0-.08,0-.09,0-.07v-.14l0-.17,0-.21,0-.21,0-.22,0-.21v-.33l.06,0,.05-.05.06,0,0,0,.93,0,.92,0H28l.18,0,.14,0,.14,0h.14l.16,0H29l.26,0,.32,0,.07,0,0,0,0,0,0,.07Zm6.43-1.78v-.16l0-.17,0-.17,0-.16,0-.17,0-.08,0-.07,0-.08,0-.08,0-.07,0-.08,0-.06,0-.07.06-.06,0-.06.06-.06.06-.05.06,0L37,55l.07-.05.06,0,.07,0,.08,0h.07l.08,0h3.67l.09,0,.07,0h0l0,0h0v0l0,0,0,0v.24l-.21.26-.17.22-.08.1-.06.09-.07.1,0,.09-.06.1,0,.11,0,.1,0,.12,0,.13,0,.13,0,.15v.18l0,0h0l0,0h-.22l-.07,0-.07,0L40,57.15l-.08,0H36.33l0,0,0,0,0,0,0,0ZM30.39,57l-.08,0v-.42l0-.14,0-.13,0-.13,0-.14.05-.13,0-.11.05-.13.06-.11.07-.11,0-.06,0,0,.05,0,0-.05.05,0,.05,0,0-.05.06,0,.14,0,.16,0,.19,0,.21,0,.21,0,.24,0,.23,0h.24l.23,0h.77l.1,0,.09,0,.08,0,.08,0,.07,0,.07,0,.07,0v.63l-.06.34,0,.28,0,.13,0,.11,0,.11,0,.09,0,.08,0,.08,0,.07,0,.06,0,0,0,0,0,0-.05,0-.07,0-.07,0-.08,0H31.79l-.19,0-.2,0-.19,0-.18,0-.19,0-.19,0-.08,0-.08,0ZM41.82,58.8l0,.05,0,0,0,.05-.09.06-.1.07-.08.06-.08.07-.09.07-.07.08-.08.08-.06.08L41,59.6l-.07.08-.06.09,0,.09L40.8,60l0,.1,0,.09-.05.09,0,.1,0,.1,0,.1,0,.11,0,.1,0,.1,0,.11,0,.1,0,.23,0,.21v.45l-.05.14,0,.12,0,.14v.13l0,.27V63l0,.26v.27l0,.14,0,.14,0,.14,0,.14v.15l0,.08v.07l0,.14,0,.15.05.13,0,.14.07.15.06.13.06.15.07.15.05.13.06.16,0,.08,0,.07v.08l0,.08v.34l-.06.21-.05.19,0,.08v.28l0,.08v.07l0,.08,0,.08,0,.09.05.11,0,.12V68l0,0,0,0,0,0,0,0,0,0-.05,0,0,0,0,0h-.06l-.09,0-.11,0-.12,0h-.62l-.08,0H31.74l-.32,0-.26,0-.18,0-.14,0-.08,0-.08,0h-.06l-.07,0v-.3l0-.06v-.05l0,0,0-.1.05-.1.06-.09.06-.09.14-.18L31.1,67l.07-.1.07-.09.06-.1.07-.11.05-.15,0-.13,0-.12V66l0,0v-.12l0,0,0,0-.05-.06-.06-.05-.07-.06-.08-.05-.2-.11-.23-.14,0-.06v-.07l0-.07V64.1l0-.09,0-.09,0-.08v-.59l0-.11,0-.1.1-.21.13-.24.05-.13.06-.14.07-.16.06-.18V61.8l0-.09v-.08l0-.16,0-.14-.05-.15,0-.15,0-.09v-.25l.11-.16.09-.17.1-.17.1-.16,0-.23.05-.2,0-.09,0-.1,0-.08,0-.08,0-.09,0-.06,0-.07,0-.07,0-.06,0-.06,0-.06,0-.05.06,0,.05,0,.05,0,.06,0,.06,0,.07,0,.07,0,.06,0,.08,0,.08,0,.08,0,.09,0,.19,0,.19,0h1.86l.46,0h5.1l.15,0h.17l.23,0,.23,0,.11,0,.11,0,.11,0,.1,0,0,0,0,0,0,0,0,0,0,0,0,0,0,0,0,0Zm4.54-3.34v.06l0,.06v.12l0,.06,0,.13-.07.13-.08.13-.07.13-.08.13-.07.13-.06.12-.06.11v.69l0,0,0,0-.05,0h-.06l-.12,0-.13,0-.16,0H43.51l-.12-.05-.07,0-.07,0-.1-.07v-.27l0-.11,0-.11,0-.11,0-.1v-.24l0-.17,0-.17,0-.07v-.49l0-.05,0,0,0,0,0,0,0,0,0,0,0,0,0,0,.05,0,0,0,.05,0,.14,0,.14,0,.16,0,.18,0h1.69L46,55l.06,0,.06,0,.06,0,0,0,0,.05,0,0v0l0,.06v.1Zm5.48.29v.09l0,.09V56l0,.09,0,.09,0,.1-.05.1,0,.09,0,.09,0,.09-.05.09-.06.09-.05.09,0,.08-.07.08-.07.08,0,.06-.06.07-.06.06,0,0-.06,0,0,0-.06,0-.31,0-.31,0-.32,0-.3,0h-.31l-.31,0-.31,0-.31,0-.26-.06-.2-.06,0,0-.05,0,0,0,0,0,0,0,0,0,0,0,0,0,.05-.11,0-.09,0-.07.06-.08,0-.06.06-.06,0,0,.07,0,.07,0,.07,0,.07,0,.09,0,.08,0h.19l.1,0,.06-.05,0,0,0,0,.05-.05.07-.09.07-.1.11-.19.11-.19,0-.1,0-.09.07-.1.07-.09,0,0,.05,0,0,0,0,0,0,0,.05,0,.07,0,.06,0h.95l.21,0,.25,0,.33,0,.06,0,.06,0,0,0,0,0,0,.06,0,.07v.22Zm3.4,2.52-.13,0-.13,0-.14,0H54l-.26,0h-.24l-.13,0-.11,0,0-.05,0,0,0-.05v-.43l0-.08,0-.09,0-.08.06-.18.08-.18.09-.18.1-.16.1-.17.1-.16.1-.14.09-.12.09-.11.07-.08.18-.07.17-.07.18-.07.18-.09L55,55.4l.17-.08.17-.09.18-.09h1.07l.14,0,.13,0,.15,0,.13,0,.13,0,.12,0,.11,0,.11.06v.26l-.07.11-.07.09-.06.1-.07.11,0,.1-.06.12,0,.11-.07.12,0,.11,0,.12,0,.13L57,57l0,.11,0,.13,0,.11v.12l0,.15.05.17,0,.09v.27l-.1,0-.11,0-.1,0h-.11l-.11,0h-1.2Zm6.31,1v.1l0,.05,0,.06,0,.06-.08.13-.08.15-.1.17-.13.19-.16.34-.17.34-.17.34-.17.34-.16.35-.17.33-.16.35-.17.34v.51l0,.12V64l-.19.53-.15.41-.06.18,0,.17v.43l0,.08v.07l0,.08,0,.07,0,.08,0,.07.05.09,0,.09.06.09.07.1.13.2L60,67,60,67v.11l0,.09,0,.09v.32l0,.06,0,0v0l0,0,0,0,0,0,0,0,0,0h0l0,0h-.05l-.11,0-.14,0-.13,0-.16,0-.16,0-.18,0H56.47l-.09,0-.09,0h-.36l-.16,0h-.08l-.07,0h0l0,0,0,0,0,0,0,0,0,0v0l0,0,0,0v-.17l.06-.12,0-.12,0-.13.06-.12,0-.13.06-.12,0-.11,0-.13.18-.3.18-.28.09-.13.09-.14.07-.13.09-.15.07-.14.06-.13.07-.15,0-.15v-.06l0-.08v-.08l0-.07v-.33l-.15-.22L56.57,64l0-.08,0-.08,0-.07,0-.07v-.41l0-.1,0-.12,0-.13v-.36l0-.17,0-.16v-.16l0-.16v-.33l.17-.38.13-.32.06-.15,0-.13v-.07l0-.07v-.38l0-.07v-.07l0-.07,0-.06,0-.08,0-.07,0-.08,0-.08-.1-.16-.11-.18V59l0,0,0-.05v0l.05,0,0,0,.06,0h4l.2,0,.18,0,.15,0,.13.06.06,0,.05,0,0,0,0,0,0,0,0,0,0,0,0,0v.12Zm.37-3-.1.2-.09.21-.09.2,0,.19-.05.16-.06.17,0,.17,0,.07,0,.08,0,.08,0,.07,0,.08,0,.08-.06.07-.06.09h0l-.07,0h-.75l-.42,0h-.56l-.08,0-.06-.07L59,58.14l0-.08L59,58v-.42l0-.11,0-.13,0-.11,0-.13,0-.12.06-.13.06-.13.07-.13.06-.13.08-.12.07-.13.15-.23.16-.23.15-.21.13-.18.12-.14.1-.11.09,0,.09,0,.1,0,.11,0h.11L61,55h.6l.11,0h.23l.1,0,.09,0,0,.05.05,0,0,.07,0,.05,0,.1,0,.1,0,.1,0,.11-.07.21L62,56.1Zm4.9,9.28v.09l0,.09,0,.1,0,.1-.07.19-.08.19-.09.16,0,.16-.09.31-.07.28,0,.13,0,.11-.06.11,0,.11,0,0,0,0,0,.05,0,0,0,0-.05,0,0,0,0,0-.05,0-.06,0-.07,0-.06,0-.07,0h-.07l-.07,0-.08,0H64.05l-.47,0h-.24l-.24,0-.22,0-.22,0-.09,0-.11,0-.08,0-.09,0-.08,0-.08,0-.07,0-.07,0v-.17l0-.14v-.13l0-.12,0-.13,0-.12,0-.13,0-.16v-.34l0-.15,0-.16,0-.15,0-.16,0-.07V65.5l.13-.35.13-.35.05-.17.06-.16.05-.16,0-.17,0-.16,0-.16,0-.17,0-.17,0-.17v-.18l0-.18v-.19l-.08-.17-.05-.14-.06-.13,0-.11,0-.1,0-.1v-.25l0-.09,0-.1,0-.1.09-.24.11-.33v-.37l0-.12,0-.14,0-.12,0-.12,0-.14,0-.12,0-.12,0-.12,0-.12L63,59.3l0-.11.05-.11.06-.1h.28l.09,0h0l0,0,0,0,0,0,0,0,0,0,0,0,0-.06-.1,0-.1,0-.11-.05-.12,0-.12,0-.12-.06-.11,0-.11-.06V58l.06-.05.07-.06.1-.06.09-.06.1-.06.08-.06.07-.06.06,0,.15-.33.12-.28,0-.13,0-.13.05-.12,0-.12,0-.13,0-.12,0-.13,0-.13v-.65l0,0,0,0,0,0,.07,0,0,0,.07,0,.07,0h.08l.09,0h.27l.21,0,.21,0,.19,0,.21,0,.2,0,.18,0,.17,0,.14,0,.11,0,.09,0v.18l0,.09,0,.08,0,.09,0,.08,0,.08,0,.08-.1.16-.1.17-.1.15-.09.17-.1.32-.09.27-.08.24,0,.21,0,.18,0,.15,0,.13,0,.11-.11.08-.1.07-.09,0-.09.05-.1,0-.11,0-.12,0-.11,0v.12l0,0,0,0,.06,0,.05,0,.11,0,.12,0h.13l.14,0h.13l.13,0h.27l.13,0,.12,0,.06,0,.05,0,.06,0,0,0,0,0,0,0,0,0,0,0v.38l-.27.43-.23.39-.1.18-.08.17,0,.08,0,.09,0,.08,0,.09,0,.08v.09l0,.08v.47l0,.1v.11l0,.1,0,.12,0,.11,0,.12,0,.13.06.13v.27l0,.24v.21l0,.18v.17l0,.16v.26l0,.06v.07l0,0,0,.06,0,0,0,0,0,.06,0,.06.05.06.06.06.07.06.08.06.08.06.09.07.1.07.11.07,0,0,0,0v.25Zm4.4-10v.12l0,0v0l0,0,0,0,0,0-.06,0L71,56l-.08,0-.15.07-.15.07-.08,0-.07,0-.07,0-.07,0-.16.26-.13.26-.12.26-.13.27-.12.26-.11.26-.12.28-.12.29-.09.07-.1,0-.1,0-.07,0-.09,0-.1,0h-.21l-.16,0-.14,0-.15,0-.15,0-.15,0-.16,0-.14,0-.15,0,0-.06v-.05l0,0V58l0,0v0l0,0,0-.05,0,0,.07-.07.07-.08.17-.15.17-.13.08-.08.08-.07.07-.06.06-.07.24-.63L68.6,56l0-.1,0-.08,0-.08,0-.07,0-.06,0-.06.05-.06.06,0,.05,0,.06,0,.06,0,.07,0,.08,0h.26l.22,0h.9l.16,0,.12.05.06,0,.08,0,.06,0,.08.07Z"/><path class="cls-1" d="M108.71,48.48h-3.35l-1.32-12-5.42,12H96.49L91.16,36.62,89.83,48.48h-3l2.44-18.22h2.48L97.82,43.7l6-13.44h2.49Z"/><path class="cls-1" d="M124.13,44.07c0,1.56.05,1.87.37,2.24a1.6,1.6,0,0,0,1.33.34l-.42,2a5.68,5.68,0,0,1-2,.11A2.22,2.22,0,0,1,121.18,47a5.64,5.64,0,0,1-4.49,1.88,4.37,4.37,0,0,1-3.63-2,6.54,6.54,0,0,1-.57-3.32V35.33h3.27v7.91c0,2,.7,2.87,2.38,2.87a3.58,3.58,0,0,0,2.72-1.42V35.33h3.27Z"/><path class="cls-1" d="M201.18,36.47a10.89,10.89,0,0,1,5-1.39,5.23,5.23,0,0,1,4,1.51,5.56,5.56,0,0,1,.87,3.54V44c0,1.6.06,1.92.38,2.29a1.68,1.68,0,0,0,1.36.35l-.43,2.06a5.73,5.73,0,0,1-2.09.12,2.17,2.17,0,0,1-2.12-1.48c-1.77,1.27-2.52,1.57-4.12,1.57a4.07,4.07,0,0,1-2.73-1.14,4,4,0,0,1-1-2.81,4,4,0,0,1,2.21-3.51,16.23,16.23,0,0,1,5.22-1.16,3.87,3.87,0,0,0-.11-1.25c-.2-1-1.19-1.45-2.56-1.36a9.73,9.73,0,0,0-4,1.33Zm6.67,5.58c-3,.4-4.26,1.22-4.26,2.7a1.7,1.7,0,0,0,1.88,1.85,4.67,4.67,0,0,0,2.38-.93Z"/></g></g></svg>