<svg xmlns="http://www.w3.org/2000/svg" viewBox="0 0 118.94 23.41"><defs><style>.cls-1{fill:#869499;}</style></defs><title>Logo APSIS Gris</title><g id="Layer_2" data-name="Layer 2"><g id="Layer_1-2" data-name="Layer 1"><path class="cls-1" d="M42,23.18H39.44L37.38,7.38l-2.07,15.8H32.72L36.2.23h1.27c1,0,1.15.62,1.25,1.25L42,23.18"/><path class="cls-1" d="M58.22.23a3,3,0,0,1,3,2.88V9.05c0,2.23-1.08,3.84-3.35,3.84H56.45V23.18H54.78c-.56,0-.65-.33-.65-.49V.23h4.09M59,3.54A1.25,1.25,0,0,0,57.7,2.43H56.45v8.26H57.7A1.25,1.25,0,0,0,59,9.57Z"/><path class="cls-1" d="M78.85,6V3.34a1.25,1.25,0,1,0-2.5,0v2.2a7.64,7.64,0,0,0,1,3.08l2.82,5.31a7.34,7.34,0,0,1,1,3.64v2.92a2.93,2.93,0,0,1-2.95,2.92H76.81A3,3,0,0,1,74,20.49V18.13a1.36,1.36,0,0,1,.66-1.28c.19-.06,1.14-.49,1.73-.75v4a1.25,1.25,0,1,0,2.5,0V17.44a7.92,7.92,0,0,0-1-3.11L75,9.05A7.34,7.34,0,0,1,74,5.41V3.05a3,3,0,0,1,3-3h1.48a3.05,3.05,0,0,1,2.85,3.05v.88a1.33,1.33,0,0,1-.66,1.28c-.19.1-1.11.53-1.73.79"/><path class="cls-1" d="M96.68.23a.9.9,0,0,1,.95.92v22H96c-.56,0-.66-.33-.69-.49V.23h1.41"/><path class="cls-1" d="M116.54,6V3.34a1.25,1.25,0,1,0-2.49,0v2.2a7.64,7.64,0,0,0,1,3.08l2.82,5.31a7.34,7.34,0,0,1,1,3.64v2.92a2.93,2.93,0,0,1-3,2.92h-1.48a3,3,0,0,1-2.85-2.92V18.13a1.37,1.37,0,0,1,.65-1.28c.2-.06,1.15-.49,1.74-.75v4a1.25,1.25,0,1,0,2.49,0V17.44a8,8,0,0,0-1-3.11l-2.82-5.28a7.34,7.34,0,0,1-1-3.64V3.05a3,3,0,0,1,3-3h1.47a3.06,3.06,0,0,1,2.86,3.05v.88a1.33,1.33,0,0,1-.66,1.28c-.2.1-1.11.53-1.74.79"/><path class="cls-1" d="M11,11.92A7.93,7.93,0,0,1,.19,14.82,1.22,1.22,0,0,1,0,14.7a12.65,12.65,0,0,0,4.46,8.09,7.93,7.93,0,0,1,15.86.07c0,.07,0,.14,0,.22a12.68,12.68,0,0,0,4.76-7.9A7.93,7.93,0,0,1,17.21,1.4l.21-.1a12.64,12.64,0,0,0-4.85-1,12.51,12.51,0,0,0-4.38.8A7.92,7.92,0,0,1,11,11.92"/></g></g></svg>